<?xml version="1.0" encoding="utf-8"?>
<!-- Generator: Adobe Illustrator 24.1.1, SVG Export Plug-In . SVG Version: 6.00 Build 0)  -->
<svg version="1.1" id="Layer_1" xmlns="http://www.w3.org/2000/svg" xmlns:xlink="http://www.w3.org/1999/xlink" x="0px" y="0px"
	 viewBox="0 0 58 24" style="enable-background:new 0 0 58 24;" xml:space="preserve">
<style type="text/css">
	.st0{fill:#141414;}
</style>
<g>
	<path class="st0" d="M24.6,7v1.5h1.1v8.4h1.6V7H24.6z M23,9.6v0.5c-0.6-0.5-1.3-0.7-2.1-0.7c-0.7-0.1-1.5,0.1-2.2,0.5
		c-0.7,0.4-1.1,0.9-1.5,1.6c-0.3,0.7-0.5,1.4-0.4,2.2c0.1,0.9,0.5,1.7,1.1,2.3c0.6,0.6,1.4,1,2.3,1.1c0.9,0.1,1.9-0.1,2.6-0.7v0.5
		h1.6V9.6H23z M23,13.2c0,0.6-0.3,1.1-0.7,1.6c-0.4,0.4-1,0.7-1.6,0.7s-1.1-0.3-1.6-0.7c-0.4-0.4-0.7-1-0.7-1.6s0.3-1.1,0.7-1.6
		c0.4-0.4,1-0.7,1.6-0.7s1.1,0.2,1.6,0.7C22.7,12,23,12.6,23,13.2L23,13.2z M41.6,15.4h-3.6l3.6-4.3l0,0V9.6h-5.5v1.5h3.6l-3.6,4.3
		l0,0v1.5h5.5V15.4z M32,9.7c-0.1,0-0.3,0-0.4,0L33.8,7h-1.9l-3,4c-0.6,0.8-0.9,1.7-0.9,2.5c0,0.5,0.1,0.9,0.3,1.4
		c0.2,0.5,0.5,0.9,0.9,1.1c0.7,0.7,1.6,1,2.6,1c0.1,0,0.1,0,0.1,0c2.1-0.1,3.7-1.7,3.6-3.8C35.5,11.4,33.9,9.8,32,9.7z M31.8,15.6
		c-0.3,0-0.5,0-0.8-0.1c-0.3-0.1-0.5-0.3-0.7-0.4c-0.2-0.2-0.4-0.5-0.5-0.7c-0.1-0.3-0.2-0.5-0.2-0.9c0-0.3,0-0.6,0.1-0.9
		c0.1-0.3,0.3-0.5,0.5-0.7c0.2-0.2,0.4-0.3,0.7-0.5s0.5-0.2,0.8-0.2l0,0h0.1c0.5,0,1,0.2,1.4,0.5c0.2,0.2,0.4,0.5,0.5,0.7
		s0.2,0.5,0.2,0.9C33.9,14.5,33,15.5,31.8,15.6z"/>
</g>
</svg>
