<?xml version="1.0" encoding="utf-8"?>
<!-- Generator: Adobe Illustrator 24.1.1, SVG Export Plug-In . SVG Version: 6.00 Build 0)  -->
<svg version="1.1" id="Layer_1" xmlns="http://www.w3.org/2000/svg" xmlns:xlink="http://www.w3.org/1999/xlink" x="0px" y="0px"
	 viewBox="0 0 201.9 107.1" style="enable-background:new 0 0 201.9 107.1;" xml:space="preserve">
<style type="text/css">
	.st0{fill:#FFFFFF;}
	.st1{fill:#B5B5B5;}
	.st2{fill:#141414;}
	.st3{fill:#D3D3D3;}
	.st4{fill:#3F3F3F;}
</style>
<g>
	<path class="st0" d="M0,59l10.9-5.5L0,48.1V59z"/>
	<path class="st1" d="M0,59v10.9L21.9,59L11,53.5L0,59z"/>
	<path class="st2" d="M0,70h32.8v-5.5L21.9,59L0,70z"/>
	<path class="st3" d="M0,37.2v10.9l10.9,5.5l10.9-5.5L0,37.2z"/>
	<path class="st2" d="M0,37.2l21.9,10.9l10.9-5.5v-5.5H0V37.2z"/>
	<path class="st4" d="M21.9,48.1L11,53.6l10.9,5.5l10.9,5.5v-11v-11L21.9,48.1z"/>
	<path class="st2" d="M187.4,55.7c-0.9,0-1.9,0.1-2.8,0.2c-1.7,0.3-2.6,1.1-2.6,2.6c0,1.3,0.9,2,2.1,2c1.7,0,3.3-1.2,3.3-3.5V55.7z
		 M182.9,63.5c-3.1,0-5.1-2-5.1-4.9c0-2.7,1.7-4.4,4.6-5.1c1.6-0.3,3.3-0.5,4.9-0.4c0-2.3-0.9-3.1-3.4-3.1c-1.6,0-3.1,0.4-4.5,1.1
		v-3.2c1.6-0.7,3.3-1,5-1c5.1,0,6.9,2.3,6.9,6.7V60h2v3.2h-5.7l-0.3-1.6h-0.1c-0.6,0.6-1.3,1.2-2,1.5
		C184.6,63.4,183.8,63.6,182.9,63.5L182.9,63.5z M131.7,55.7c-0.9,0-1.9,0.1-2.8,0.2c-1.7,0.3-2.6,1.1-2.6,2.6c0,1.3,0.9,2,2.1,2
		c1.7,0,3.3-1.2,3.3-3.5V55.7z M127.3,63.5c-3.1,0-5.1-2-5.1-4.9c0-2.7,1.7-4.4,4.6-5.1c1.6-0.3,3.3-0.5,4.9-0.4
		c0-2.3-0.9-3.1-3.4-3.1c-1.6,0-3.1,0.4-4.5,1.1v-3.2c1.6-0.7,3.3-1,5-1c5.1,0,6.9,2.3,6.9,6.7V60h2v3.2H132l-0.3-1.6h-0.1
		c-0.6,0.6-1.3,1.2-2,1.5C129,63.4,128.2,63.6,127.3,63.5L127.3,63.5z M68.8,55.7c-0.9,0-1.9,0.1-2.8,0.2c-1.7,0.3-2.6,1.1-2.6,2.6
		c0,1.3,0.9,2,2.1,2c1.7,0,3.3-1.2,3.3-3.5V55.7z M64.4,63.5c-3.1,0-5.1-2-5.1-4.9c0-2.7,1.7-4.4,4.6-5.1c1.6-0.3,3.3-0.5,4.9-0.4
		c0-2.3-0.9-3.1-3.4-3.1c-1.6,0-3.1,0.4-4.5,1.1v-3.2c1.6-0.7,3.3-1,5-1c5.1,0,6.9,2.3,6.9,6.7V60h2v3.2h-5.7L69,61.6h-0.1
		c-0.6,0.6-1.3,1.2-2,1.5C66.1,63.4,65.2,63.6,64.4,63.5L64.4,63.5z M151.9,55.1c0-3-1.5-5-3.8-5s-3.7,2-3.7,4.9s1.4,5,3.6,5
		C150.3,60.1,151.9,58.1,151.9,55.1L151.9,55.1z M156.1,55.1c0,5-2.8,8.4-6.9,8.4c-2.5,0-3.9-1-4.6-2h-0.1v6.8l-4.1,1.7V50.4h-2.1
		v-3.2h5.9l0.3,2.1h0.1c0.5-0.8,1.8-2.4,4.7-2.4C153.5,46.8,156.1,50.1,156.1,55.1L156.1,55.1z M95.7,46.8c-1,0-2,0.2-2.9,0.6
		s-1.7,1-2.3,1.8h-0.1l-0.3-2.1h-6.2v3.2h2.3v12.8h4.2v-7.4c0-4,2.1-5.4,3.9-5.4c1.7,0,2.5,1.1,2.5,3.5v9.3h4.1V52.9
		C101.1,48.9,99.2,46.8,95.7,46.8L95.7,46.8z M114.7,59.7c-4.3,0-6.8-2.9-6.8-7.5c0-4.5,2.5-7.5,6.4-7.5c0.9,0,1.9,0.1,2.8,0.3v4.5
		l3.7-1.5v-5.3c-1.9-1.1-4.1-1.6-6.3-1.6c-6.5,0-11,4-11,11.2c0,6.8,4,11.2,11,11.2c2.2,0,4.4-0.6,6.4-1.6l-0.9-3.5
		C118.3,59.3,116.5,59.7,114.7,59.7z M199.9,59.9V40.1l-4.2,1.7v21.4h6.2V60L199.9,59.9L199.9,59.9z M53.6,56.7
		c0-2.1-1.5-3.2-4.1-3.2h-4v6.4h4C52.4,59.9,53.6,58.6,53.6,56.7L53.6,56.7z M45.5,50.3h3.4c2.4,0,3.5-1.1,3.5-2.7
		c0-1.9-1.1-2.8-3.3-2.8h-3.6C45.5,44.8,45.5,50.3,45.5,50.3z M58,56.9c0,4.2-3.3,6.3-8.2,6.3h-8.6V44.7h-2.6v-3.3H49
		c2.8,0,4.3,0.4,5.4,1.1c0.7,0.5,1.3,1.1,1.7,1.8c0.4,0.7,0.6,1.6,0.6,2.4c0,2.3-1.4,4-3.7,4.6v0.1C56.1,52.1,58,54.1,58,56.9
		L58,56.9z M157.3,50.4h2.3v12.8h4.2v-16h-6.4v3.2H157.3z M159.6,44.4h4.2v-3.9h-4.2V44.4L159.6,44.4z M75.3,50.4h2.3v12.8h4.2v-16
		h-6.4L75.3,50.4L75.3,50.4z M77.6,44.4h4.2v-3.9h-4.2V44.4L77.6,44.4z M172.4,47.1h4.2v3.3h-4.2v7.1c0,1.8,0.4,2.8,2.1,2.8
		c0.6,0,1.3-0.1,1.9-0.3v3.1c-1.1,0.3-2.2,0.4-3.3,0.4c-3.3,0-4.9-1.6-4.9-5v-8.2H166v-3.2h2.3v-2.8l4.1-1.7L172.4,47.1L172.4,47.1z
		"/>
</g>
</svg>
