<?xml version="1.0" encoding="utf-8"?>
<!-- Generator: Adobe Illustrator 24.1.1, SVG Export Plug-In . SVG Version: 6.00 Build 0)  -->
<svg version="1.1" id="Layer_1" xmlns="http://www.w3.org/2000/svg" xmlns:xlink="http://www.w3.org/1999/xlink" x="0px" y="0px"
	 viewBox="0 0 46 45" style="enable-background:new 0 0 46 45;" xml:space="preserve">
<style type="text/css">
	.st0{clip-path:url(#SVGID_2_);}
	.st1{fill:#141414;}
</style>
<g>
	<g>
		<g>
			<defs>
				<rect id="SVGID_1_" x="11" width="23.4" height="23.4"/>
			</defs>
			<clipPath id="SVGID_2_">
				<use xlink:href="#SVGID_1_"  style="overflow:visible;"/>
			</clipPath>
			<g class="st0">
				<path class="st1" d="M34.3,11.6c0,6.4-5.2,11.6-11.6,11.6S11,18.1,11,11.6C11,5.2,16.2,0,22.6,0C29.1,0,34.3,5.2,34.3,11.6z
					 M18,12.9c-0.6,0-1-0.6-1-1.4c0-0.7,0.4-1.2,0.9-1.2c0.2,0,0.4,0.1,0.5,0.2c-0.1,0.1-0.2,0.2-0.2,0.4c0,0.3,0.2,0.5,0.5,0.5
					s0.6-0.3,0.6-0.6c0-0.6-0.6-0.9-1.5-0.9c-1.2,0-1.9,0.7-1.9,1.8c0,1,0.8,1.8,1.9,1.8c0.4,0,0.7-0.1,1-0.3c0.4-0.2,0.5-0.5,0.7-1
					H19C18.8,12.6,18.5,12.9,18,12.9z M20.1,9.9v0.5h0.2c0.4,0,0.6,0.2,0.6,0.7v1c0,0.5-0.2,0.7-0.6,0.7h-0.1v0.5h2.4v-0.5h-0.2
					c-0.4,0-0.6-0.2-0.6-0.7v-0.2c0-0.4,0.1-0.7,0.2-0.9c0.2-0.3,0.5-0.4,0.8-0.4l0,0c0,0.1-0.1,0.2-0.1,0.2c0,0.3,0.2,0.4,0.5,0.4
					c0.3,0,0.6-0.3,0.6-0.6c0-0.5-0.4-0.8-0.8-0.8c-0.3,0-0.6,0.1-0.9,0.4c-0.2,0.2-0.3,0.3-0.4,0.5V10L20.1,9.9L20.1,9.9z
					 M27.6,9.9v0.5c0.5,0,0.6,0.1,0.6,0.3c0,0.1,0,0.1-0.1,0.2c0,0.1-0.1,0.1-0.1,0.2l-0.7,1.2l-0.7-1.1c-0.2-0.2-0.2-0.3-0.2-0.4
					c0-0.2,0.2-0.2,0.6-0.2V10h-2.7v0.5c0.5,0,0.6,0.1,0.9,0.6l1.5,2.4h0.3l1.5-2.4c0.3-0.4,0.5-0.6,0.9-0.6V10L27.6,9.9L27.6,9.9z"
					/>
			</g>
		</g>
	</g>
</g>
</svg>
