<?xml version="1.0" encoding="utf-8"?>
<!-- Generator: Adobe Illustrator 24.1.1, SVG Export Plug-In . SVG Version: 6.00 Build 0)  -->
<svg version="1.1" id="Layer_1" xmlns="http://www.w3.org/2000/svg" xmlns:xlink="http://www.w3.org/1999/xlink" x="0px" y="0px"
	 viewBox="0 0 38 38" style="enable-background:new 0 0 38 38;" xml:space="preserve">
<style type="text/css">
	.st0{fill:#141414;}
</style>
<path class="st0" d="M21.6,9.4H21v0.4h0.6v0.3H21v0.6h-0.4V9.2h1V9.4z M22.2,10.7h-0.4V9.6h0.4V10.7z M22,9.4
	c-0.1,0-0.2-0.1-0.2-0.2C21.8,9.1,21.9,9,22,9s0.2,0.1,0.2,0.2C22.2,9.4,22.1,9.4,22,9.4z M23.2,9.9L23.2,9.9c0,0-0.1,0-0.1,0
	c-0.1,0-0.1,0-0.2,0.1c0,0-0.1,0.1-0.1,0.2v0.5h-0.4V9.6h0.4v0.2l0,0c0.1-0.1,0.2-0.2,0.3-0.2c0.1,0,0.1,0,0.1,0L23.2,9.9z
	 M24.1,10.6c-0.1,0.1-0.2,0.1-0.3,0.1c-0.2,0-0.3-0.1-0.5-0.2l0.1-0.2c0.1,0.1,0.2,0.1,0.3,0.1s0.2,0,0.2-0.1c0-0.1-0.2-0.1-0.2-0.1
	c0,0-0.1,0-0.2-0.1c-0.1,0-0.2-0.1-0.2-0.3s0.2-0.3,0.4-0.3s0.4,0.1,0.4,0.1l-0.1,0.2c-0.1,0-0.2-0.1-0.3-0.1c-0.1,0-0.1,0-0.1,0.1
	c0,0.1,0.1,0.1,0.2,0.1c0.1,0,0.1,0,0.2,0.1c0,0,0.1,0,0.1,0.1s0.1,0.1,0.1,0.2C24.3,10.5,24.2,10.6,24.1,10.6L24.1,10.6z M25.2,9.8
	h-0.2v0.4c0,0.1,0,0.1,0,0.1c0,0,0,0,0.1,0s0.1,0,0.1,0l0,0.3c0,0-0.1,0-0.3,0s-0.2,0-0.3-0.1s-0.1-0.2-0.1-0.3V9.8h-0.2V9.6h0.2
	V9.3h0.4v0.3h0.2V9.8z M19.2,11.8c0,0-0.1,0-0.2,0h-0.1v-0.4H19c0.1,0,0.1,0,0.2,0c0,0,0.1,0.1,0.1,0.2
	C19.2,11.7,19.2,11.7,19.2,11.8L19.2,11.8z M19.3,12.1c0.1,0,0.3-0.2,0.3-0.4c0-0.2-0.1-0.3-0.2-0.4c-0.1-0.1-0.2-0.1-0.4-0.1h-0.6
	v1.6h0.4v-0.6h0.1l0.3,0.6h0.4L19.3,12.1L19.3,12.1z M20.4,12.5c-0.2,0-0.3-0.1-0.3-0.3s0.1-0.3,0.3-0.3c0.2,0,0.3,0.1,0.3,0.3
	C20.7,12.3,20.6,12.5,20.4,12.5z M20.4,11.6c-0.3,0-0.6,0.2-0.6,0.6c0,0.3,0.3,0.6,0.6,0.6c0.3,0,0.6-0.2,0.6-0.6
	C21,11.8,20.8,11.6,20.4,11.6z M22.3,12.7H22v-0.1c0,0.1-0.2,0.2-0.3,0.2c-0.2,0-0.3-0.1-0.3-0.1c-0.1-0.1-0.1-0.2-0.1-0.3v-0.7h0.4
	v0.7c0,0.1,0,0.2,0.2,0.2s0.2-0.1,0.2-0.2v-0.6h0.3V12.7L22.3,12.7z M23.7,12.7h-0.4v-0.6c0-0.1,0-0.3-0.2-0.3
	c-0.2,0-0.2,0.1-0.2,0.3v0.6h-0.4v-1.1h0.4v0.2l0,0c0.1-0.1,0.2-0.2,0.3-0.2c0.3,0,0.4,0.2,0.4,0.5V12.7L23.7,12.7z M24.5,12.5
	c-0.2,0-0.3-0.1-0.3-0.3s0.1-0.3,0.3-0.3s0.3,0.1,0.3,0.3S24.7,12.5,24.5,12.5z M24.8,11.1v0.6c0-0.1-0.1-0.2-0.3-0.2
	c-0.3,0-0.6,0.2-0.6,0.6c0,0.3,0.2,0.6,0.6,0.6c0.1,0,0.3-0.1,0.4-0.2l0,0v0.1h0.3v-1.6L24.8,11.1L24.8,11.1z M17.3,12.7h-3.8V7
	h-1.1V2.3c1.4,0,2.3-1.2,2.3-2.3h10.4v0.9h-9.6c-0.1,0.9-1.2,2-2.2,2.2v3h1.2v5.8h2.9V12.7z"/>
</svg>
