<?xml version="1.0" encoding="utf-8"?>
<!-- Generator: Adobe Illustrator 24.1.1, SVG Export Plug-In . SVG Version: 6.00 Build 0)  -->
<svg version="1.1" id="Layer_1" xmlns="http://www.w3.org/2000/svg" xmlns:xlink="http://www.w3.org/1999/xlink" x="0px" y="0px"
	 viewBox="0 0 137 18" style="enable-background:new 0 0 137 18;" xml:space="preserve">
<style type="text/css">
	.st0{fill-rule:evenodd;clip-rule:evenodd;fill:#141414;}
</style>
<g>
	<path class="st0" d="M57.9,8.2V2.1c0.3-0.1,0.6-0.3,1.4-0.3c1,0,1.8,0.3,2.5,1.1c0.6,0.8,0.6,1.6,0.6,1.9c0,0.3,0,1.2-0.5,2
		C61.1,7.8,60,8.3,57.9,8.2z M65.9,14.7c-0.1-0.1-0.3-0.3-0.6-0.6c-0.3-0.4-0.6-0.9-0.9-1.3l-2.9-4.1c0.3-0.1,0.5-0.1,1-0.4
		c1.3-0.7,1.8-1.6,2-2.2c0.1-0.4,0.2-0.7,0.2-1.1c0-2.7-1.9-3.5-2.8-3.7C61.3,1,60.6,1,60,1h-6.3v0.5h0.2c0.9,0.1,1.2,0.3,1.5,0.6
		c0.2,0.3,0.3,0.5,0.3,1.1c0,0.3,0,0.7,0,1v8.5c0,1.2,0,1.8-0.4,2.3c-0.3,0.3-0.6,0.4-1.4,0.5h-0.2v0.5c2.1,0,4.2,0,6.3,0l0-0.5
		h-0.3c-1.1-0.1-1.7-0.4-1.8-1.7c0-0.4,0-0.7,0-1.1V9.1h1.3l4.8,7h3.5v-0.5c-0.2,0-0.5-0.1-1-0.3C66.3,15.1,66.1,14.9,65.9,14.7
		L65.9,14.7z M127.3,8.2V2.1c0.3-0.1,0.6-0.3,1.4-0.3c1,0,1.8,0.3,2.5,1.1c0.6,0.8,0.6,1.6,0.6,1.9c0,0.3,0,1.2-0.5,2
		C130.6,7.8,129.5,8.3,127.3,8.2z M135.4,14.7c-0.1-0.1-0.3-0.3-0.6-0.6c-0.3-0.4-0.6-0.9-0.9-1.3L131,8.7c0.3-0.1,0.5-0.1,1-0.4
		c1.3-0.7,1.8-1.6,2-2.2c0.1-0.4,0.2-0.7,0.2-1.1c0-2.7-1.9-3.5-2.8-3.7C130.7,1,130.1,1,129.4,1h-6.3v0.5h0.2
		c0.9,0.1,1.2,0.3,1.5,0.6c0.2,0.3,0.3,0.5,0.3,1.1c0,0.3,0,0.7,0,1v8.5c0,1.2,0,1.8-0.4,2.3c-0.3,0.3-0.6,0.4-1.4,0.5h-0.2v0.5
		c2.1,0,4.2,0,6.3,0l0-0.5h-0.3c-1.1-0.1-1.7-0.4-1.8-1.7c0-0.4,0-0.7,0-1.1V9.1h1.3l4.8,7h3.5v-0.5c-0.2,0-0.5-0.1-1-0.3
		C135.8,15.1,135.6,14.9,135.4,14.7z M31.9,8.2V2.1c0.3-0.1,0.6-0.3,1.4-0.3c1,0,1.8,0.3,2.5,1.1c0.6,0.8,0.6,1.6,0.6,1.9
		c0,0.3,0,1.2-0.5,2C35.2,7.8,34.1,8.3,31.9,8.2z M48.8,15.1h-2.7c-0.5,0-0.8,0-1-0.2c-0.2-0.2-0.2-0.6-0.2-1.2V9.8c0-0.4,0-0.9,0-1
		c0.1-0.3,0.5-0.3,0.7-0.3h2.5c0.5,0,1.1,0,1.5,0.5c0.3,0.4,0.4,0.8,0.4,1.7l0.5,0V5.5h-0.5v0.3c0,0.7-0.3,1.4-0.9,1.6
		c-0.3,0.1-1,0.2-1.8,0.2h-1.9c-0.2,0-0.4,0-0.5-0.1c-0.1-0.2-0.1-0.4-0.1-0.4V2.9c0-0.5,0-0.8,0.2-0.9c0.1,0,0.2,0,0.5,0
		c0.7,0,2.7,0,2.7,0c0.7,0,1.1,0,1.8,0.4c0.6,0.3,0.8,0.8,1,1.4c0.1,0.2,0.1,0.4,0.2,0.9h0.5L51.5,1H40.8v0.5H41
		c0.7,0,1,0.2,1.3,0.4c0.2,0.2,0.3,0.3,0.3,0.4c0.2,0.5,0.2,1.4,0.2,1.9v8.5c0,1,0,1.5-0.2,2c-0.3,0.5-0.7,0.8-1,0.8
		c-0.3,0-1,0-2.2-1.4c-0.3-0.4-0.8-1.1-1.1-1.6l-2.7-3.9c0.3-0.1,0.5-0.1,1-0.4c1.3-0.7,1.8-1.6,2-2.2c0.1-0.5,0.2-1,0.2-1.1
		c0-2.7-1.9-3.5-2.8-3.7C35.3,1,34.7,1,34,1h-6.2v0.5H28c0.9,0.1,1.2,0.3,1.5,0.6c0.2,0.3,0.3,0.5,0.3,1.1c0,0.3,0,0.7,0,1v8.5
		c0,1.2,0,1.8-0.4,2.3c-0.3,0.3-0.6,0.4-1.4,0.5h-0.2v0.5c2.1,0,4.2,0,6.2,0l0-0.5h-0.3c-1.1-0.1-1.7-0.4-1.8-1.7c0-0.4,0-0.7,0-1.1
		V9.1h1.3l4.8,7H52l1.2-3.9L52.6,12c-0.1,0.3-0.2,0.9-0.6,1.5C51.4,14.4,50.7,15,48.8,15.1z M93.8,4.2c0-1.2,0-1.9,0.5-2.3
		c0.3-0.3,0.8-0.3,1-0.3c0.4,0,1.1,0.1,1.8,0.7c0.3,0.3,0.5,0.6,0.6,0.7v9.5c0,1.2,0,1.8-0.4,2.2c-0.2,0.3-0.7,0.4-1.4,0.5h-0.2v0.5
		c1.1,0,2.1,0,3.2,0c0.7,0,1.3,0,1.9,0v-0.5h-0.2c-0.4,0-1-0.1-1.3-0.4c-0.6-0.5-0.5-1.4-0.5-1.6c0-0.2,0-0.5,0-0.7V4.1l9.9,11.9
		V4.2c0-0.5,0-1.4,0.2-1.9c0.2-0.6,0.7-0.7,0.9-0.8c0.2-0.1,0.8-0.1,0.8-0.1h0.2c0.7,0,1.1,0.2,1.3,0.4c0.2,0.2,0.3,0.3,0.3,0.4
		c0.2,0.5,0.2,1.4,0.2,1.9v8.4c0,1,0,1.4-0.2,1.9c-0.3,0.6-1,0.7-1.6,0.8h-0.2v0.5h11.3l1.2-3.8l-0.5-0.2c-0.1,0.3-0.2,0.8-0.6,1.5
		c-0.6,0.9-1.3,1.5-3.2,1.6h-2.7c-0.5,0-0.8,0-1-0.2c-0.2-0.2-0.2-0.6-0.2-1.2V9.7c0-0.4,0-0.9,0-1c0.1-0.3,0.5-0.3,0.8-0.3h2.5
		c0.6,0,1.1,0,1.5,0.5c0.3,0.4,0.4,0.8,0.4,1.6l0.5,0V5.5h-0.5v0.3c0,0.7-0.3,1.4-1,1.6c-0.3,0.1-1,0.2-1.8,0.2h-1.9
		c-0.2,0-0.4,0-0.5-0.1c-0.1-0.2-0.1-0.3-0.1-0.6v-4c0-0.5,0-0.8,0.2-0.9c0.1,0,0.2-0.1,0.5-0.1h2.7c0.7,0,1.2,0,1.8,0.4
		c0.6,0.3,0.8,0.8,1,1.3c0.1,0.2,0.1,0.4,0.2,0.9h0.5L121.3,1h-10.9v0c-1.7,0-3.3,0-4.9,0v0.5h0.4c1.2,0,1.6,0.5,1.7,1.7
		c0,0.4,0,0.7,0,1v7.2L99.1,1h-8.4v0.5h0.4c1.2,0,1.6,0.5,1.7,1.7c0,0.4,0,0.7,0,1v7.2L84.3,1h-8.6v0.5h0.2c0.2,0,0.3,0,0.7,0.1
		c0.4,0.1,0.6,0.2,0.9,0.6c0.3,0.5,0.3,1.5,0.3,2v6c0,1.1,0,1.6-0.2,2.1c-0.3,1.1-1,1.9-1.9,2.3c-0.9,0.4-1.7,0.4-2,0.4
		c-1.6,0-3.2-0.8-3.8-2.5c-0.2-0.7-0.2-1.6-0.2-1.8V4.2c0-0.8-0.1-1.9,0.6-2.4c0.4-0.3,1.1-0.3,1.2-0.3h0.2V1c-2.1,0-4.2,0-6.3,0
		v0.5h0.2c0.4,0,1,0,1.3,0.4c0.5,0.4,0.5,1.1,0.5,2.3v6.2c0,0.8,0,1.7,0.3,2.5c0.3,0.9,1.2,2.3,3.4,2.9c0.9,0.2,1.7,0.3,2,0.3
		c0.8,0,4.6,0,5.5-3.5c0.2-0.6,0.2-1.1,0.2-2.3V4.2c0-1.2,0-2,0.5-2.4c0.3-0.3,0.8-0.3,1.1-0.3c0.4,0,1.1,0.1,1.9,0.7
		c0.3,0.3,0.5,0.7,0.6,0.7v9.6c0,1.2,0,1.8-0.4,2.2c-0.2,0.3-0.7,0.4-1.4,0.5h-0.2v0.5c1.1,0,2.1,0,3.2,0c0.7,0,1.3,0,1.9,0v-0.5
		h-0.2c-0.4,0-1-0.1-1.3-0.4c-0.6-0.5-0.5-1.4-0.5-1.6c0-0.2,0-0.5,0-0.7V4.1L93.8,16L93.8,4.2z M1.9,1v0.5h0.2
		c1.1,0.1,1.7,0.4,1.8,1.7c0,0.4,0,0.7,0,1.1v8.5c0,0.8,0.1,1.9-0.6,2.4c-0.2,0.2-0.6,0.3-1.2,0.3H1.9v0.5c0.8,0,1.6,0,2.5,0
		c1.3,0,2.6,0,4,0l0-0.5H7.9c-0.6,0-1-0.2-1.3-0.4c-0.5-0.4-0.5-1.1-0.5-2.4V8.5h3c0.9,0,1.4,0,1.7,0.4c0.1,0.1,0.3,0.3,0.3,0.5
		c0.1,0.2,0.2,0.8,0.2,1.4h0.5c0-0.5,0-1.1,0-1.6c0-1.3,0-2.6,0-3.9h-0.5c0,0.8,0,1.9-1,2.2C10,7.6,9.7,7.6,9,7.6h-3V1.9h2.2
		c0.4,0,0.9,0,1.3,0c1.3,0,1.9,0,2.5,0.4c0.5,0.4,0.7,0.8,0.9,1.4c0.1,0.3,0.1,0.5,0.2,0.8l0.5,0L13.4,1H1.9z M24.1,13.6
		c-0.3,0.5-1,1.7-2.6,2.1c-0.4,0.1-0.6,0.1-0.8,0.1c-0.9,0-1.9-0.4-2.6-1.1c-1-1-1.5-2.6-1.6-4c-0.1-1-0.1-2.4-0.1-2.6
		c0-3,0.9-4.6,2-5.4C19,2.3,19.8,2,20.5,2C21,2,21.8,2,22.7,2.8c1.8,1.4,2,4.1,2,4.6c0,0.5,0.1,0.9,0.1,1.3
		C25,11.2,24.7,12.5,24.1,13.6L24.1,13.6z M26.2,4.4c-1.2-2.1-3-2.8-3.8-3.1C21.8,1.1,21.2,1,20.5,1c-1,0-3.4,0.4-5.2,2.8
		c-1,1.4-1.5,3-1.5,4.8c0,5.2,3,7.2,4.9,7.8c0.8,0.3,1.4,0.3,1.8,0.3c1.8,0,3-0.8,3.6-1.2c1.5-1,2.5-2.7,2.9-4.5
		c0.2-1.1,0.2-2.1,0.2-2.5C27.3,7.1,27,5.7,26.2,4.4z"/>
</g>
</svg>
