<?xml version="1.0" encoding="utf-8"?>
<!-- Generator: Adobe Illustrator 24.1.1, SVG Export Plug-In . SVG Version: 6.00 Build 0)  -->
<svg version="1.1" id="Layer_1" xmlns="http://www.w3.org/2000/svg" xmlns:xlink="http://www.w3.org/1999/xlink" x="0px" y="0px"
	 viewBox="0 0 104 27" style="enable-background:new 0 0 104 27;" xml:space="preserve">
<style type="text/css">
	.st0{fill-rule:evenodd;clip-rule:evenodd;fill:#141414;}
</style>
<g>
	<path class="st0" d="M66.5,18.6c-3.1,0-5.5-2.6-5.5-5.8c0-3.2,2.5-5.9,5.5-5.9c3.1,0,5.5,2.6,5.5,5.8C72,16,69.5,18.6,66.5,18.6z
		 M66.5,5.2c-4,0-7.3,3.4-7.3,7.6c0,4.2,3.3,7.6,7.3,7.6c4,0,7.3-3.4,7.3-7.6C73.7,8.6,70.5,5.2,66.5,5.2z M51.5,5.6h1.8l-6.8,17.8
		c-0.7,1.7-2.3,2.9-4.2,2.9h-1v-1.7h1c1.1,0,2.2-0.7,2.6-1.8l1.1-2.7L40.4,5.6h1.8l4.6,12L51.5,5.6z M103.5,19.9h-2.3L95,13
		l-0.6,0.6v6.3h-1.7V0.2h1.7v11.3l6.3-5.9h2.3l-6.7,6.2L103.5,19.9z M77.6,12.8c0,3.2,2.5,5.8,5.5,5.8c2.3,0,4.3-1.4,5.1-3.5H90
		c-0.9,3.1-3.7,5.3-6.9,5.3c-4,0-7.3-3.4-7.3-7.6c0-4.2,3.3-7.6,7.3-7.6c3.2,0.1,6.1,2.2,6.9,5.4h-1.8c-0.8-2.2-2.8-3.6-5.1-3.6
		C80,6.9,77.6,9.5,77.6,12.8z M55,19.9h1.7V0.2H55V19.9z M7.4,18.6c-3.1,0-5.5-2.6-5.5-5.8c0-3.2,2.5-5.9,5.5-5.9
		c3.1,0,5.5,2.6,5.5,5.8C12.9,16,10.5,18.6,7.4,18.6z M12.9,7.9c-1.4-1.7-3.4-2.7-5.5-2.7c-4,0-7.3,3.4-7.3,7.6
		c0,4.2,3.3,7.6,7.3,7.6c2.1,0,4.2-1,5.5-2.7v0.6c0,3.2-2.5,5.8-5.7,5.8c-1.7,0-3.3-0.8-4.3-2H0.8c1.3,2.3,3.8,3.8,6.4,3.8
		c4.2,0,7.5-3.4,7.4-7.6V5.6H13L12.9,7.9L12.9,7.9z M19.8,7.5c1.2-1.3,2.8-2,4.5-2v1.7c-2.5,0-4.6,2.1-4.6,4.6V20h-1.7V5.6h1.7
		L19.8,7.5z M32.1,6.9c2.8,0,5.2,2,5.7,4.7H26.4C26.9,8.9,29.3,6.9,32.1,6.9z M39.6,13.4l0-0.9C39.5,8.3,36,5,31.8,5.2
		c-4.1,0.1-7.3,3.5-7.3,7.6c0.1,4.2,3.5,7.6,7.7,7.6c3.1,0,5.9-1.9,7.1-4.7h-1.9c-1.1,1.9-3.1,3-5.2,3c-3,0-5.6-2.2-5.9-5.2H39.6z"
		/>
</g>
</svg>
