<?xml version="1.0" encoding="utf-8"?>
<!-- Generator: Adobe Illustrator 24.1.1, SVG Export Plug-In . SVG Version: 6.00 Build 0)  -->
<svg version="1.1" id="Layer_1" xmlns="http://www.w3.org/2000/svg" xmlns:xlink="http://www.w3.org/1999/xlink" x="0px" y="0px"
	 viewBox="0 0 43 28" style="enable-background:new 0 0 43 28;" xml:space="preserve">
<style type="text/css">
	.st0{fill:#141414;}
</style>
<g>
	<path class="st0" d="M18.4,8.2h0.9V2.6h0.7V1.8h-2.4v0.8h0.7v4l-3.3-4.8h-1.6v0.8h0.7v4.8h-0.7v0.8h2.4V7.4h-0.7V3.5L18.4,8.2z
		 M28.9,7.4l-1.8-2.4l1.7-2.3h0.7V1.8H27v0.8h0.7l-1.2,1.7l-1.2-1.7H26V1.8h-2.4v0.8h0.7l1.7,2.3l-1.8,2.4h-0.7v0.8h2.4V7.4h-0.7
		l1.3-1.8l1.3,1.8h-0.7v0.8h2.4V7.4H28.9z M23.2,0.7c0.2,0,0.4,0.1,0.4,0.1c0.1-0.2,0.2-0.4,0.3-0.7C23.8,0.1,23.5,0,23.2,0
		c-1,0-1.6,0.6-1.7,1.7l-0.4,3h-0.7l-0.2,0.8H21l-0.4,3c-0.1,0.6-0.4,0.9-0.9,0.9c-0.2,0-0.3,0-0.5-0.1c-0.1,0.2-0.2,0.4-0.3,0.7
		c0.1,0.1,0.5,0.1,0.7,0.1c0.9,0,1.6-0.6,1.7-1.7l0.4-3h0.7l0.2-0.8H22l0.4-3C22.4,1,22.7,0.7,23.2,0.7z"/>
</g>
</svg>
