<?xml version="1.0" encoding="utf-8"?>
<!-- Generator: Adobe Illustrator 24.1.1, SVG Export Plug-In . SVG Version: 6.00 Build 0)  -->
<svg version="1.1" id="Layer_1" xmlns="http://www.w3.org/2000/svg" xmlns:xlink="http://www.w3.org/1999/xlink" x="0px" y="0px"
	 viewBox="0 0 50 40" style="enable-background:new 0 0 50 40;" xml:space="preserve">
<style type="text/css">
	.st0{clip-path:url(#SVGID_2_);}
	.st1{fill:#AFAFAF;}
	.st2{fill:#474747;}
	.st3{fill:#141414;}
</style>
<g>
	<g>
		<g>
			<defs>
				<rect id="SVGID_1_" x="13" width="23.5" height="19.5"/>
			</defs>
			<clipPath id="SVGID_2_">
				<use xlink:href="#SVGID_1_"  style="overflow:visible;"/>
			</clipPath>
			<g class="st0">
				<path class="st1" d="M30.4,6.6l-1.2,2.6l1.2,2.1L32.5,8L30.4,6.6z"/>
				<path class="st2" d="M28.1,2.7l1.8,0.7l0,0l-0.5-0.9l-0.4-0.5L26.6,0c0.3,0.6,0.7,1.2,0.9,1.9C27.7,2.2,27.9,2.4,28.1,2.7z"/>
				<path class="st3" d="M33.5,11.6l2.7-0.1l0,0l-2-3.3l-1.1-2.9l-0.8,2.6L33.5,11.6z M31.9,3l0.1-1.4l-0.9,0.9l0.5,0.3L31.9,3z"/>
				<path class="st3" d="M30.4,11.3l-0.4,3l3,0.9l0.7-3.4l-1.2-3.6L30.4,11.3z"/>
				<path class="st2" d="M32.6,4.7L33.5,3l2.2-1.6l-2.6,1.3l-1.1,1.9L32.6,4.7z"/>
				<path class="st3" d="M32.6,4.7c0.6-0.2,1.2-0.5,1.7-0.7l0.2-1.6L34.3,4l0.6-0.9l0.9-1.8L33.5,3L32.6,4.7z"/>
				<path class="st3" d="M29.4,2.6l-0.1-1.2L26.6,0l2.5,2L29.4,2.6z M29.9,3.5l0.6-0.1l-1.2-1.9l0.1,1.2L29.9,3.5z"/>
				<path class="st2" d="M30.4,11.3l-1.2-2.1L28,8.9l0,0l-1.7,2.8v0.1l3.6,2.5L30.4,11.3z"/>
				<path class="st2" d="M32.9,15l-3-0.9l-1.2,2l0.8,3.3l0,0l3.7-2.1L32.9,15z"/>
				<path class="st2" d="M29.6,19.4l3.5,0.1l2.5-1.6l-2.3-0.5L29.6,19.4z"/>
				<path class="st3" d="M33.5,11.6L32.9,15l0.4,2.3l2.3,0.5l0.9-3l-0.3-3.4L33.5,11.6z M25.9,15.1l1.7,3l2,1.3l-0.8-3.3L25.9,15.1z
					"/>
				<path class="st1" d="M31.1,2.5c0,0.8-0.1,1.6-0.1,2.4l0.7-2.1L31.1,2.5z"/>
				<path class="st2" d="M32.4,8l0.8-2.6l-0.1-0.1L31.7,5c0-0.7,0.1-1.4,0.1-2l-0.3-0.2L30.9,5l-0.6-0.1l-1.7,1.3l1.7,0.5L32.4,8z"
					/>
				<path class="st1" d="M30.4,6.6l-1.7-0.5l-0.1,0.1l-0.7,2.6l1.2,0.3L30.4,6.6z"/>
				<path class="st3" d="M29.9,14.1l-3.6-2.5L25.9,15v0.1l2.7,1L29.9,14.1z M13.4,8.9H13V8.2h1.9c0.8,0,1.3,0.5,1.3,1.4
					S15.6,11,14.9,11h-0.7v1.6h-0.8V8.9z M14.7,10.3c0.4,0,0.7-0.3,0.7-0.8c0-0.5-0.2-0.8-0.7-0.8h-0.7v1.5L14.7,10.3L14.7,10.3z
					 M17.9,9.3c0.9,0,1.3,0.7,1.3,1.5c0,0.1,0,0.3,0,0.3h-2c0.1,0.5,0.4,0.9,0.9,0.9c0.5,0,0.9-0.4,0.9-0.4l0.3,0.5
					c-0.4,0.3-0.7,0.5-1.2,0.5c-1,0-1.6-0.8-1.6-1.6C16.4,10,17,9.3,17.9,9.3z M18.4,10.6c0-0.4-0.3-0.6-0.6-0.6
					c-0.4,0-0.7,0.2-0.7,0.6H18.4z M21.5,10.6L21.5,10.6L21.5,10.6c0.1-0.5-0.1-0.6-0.5-0.6c-0.1,0-0.4,0-0.4,0.2v0.2h-0.7V10
					c0-0.6,0.8-0.6,1.1-0.6c1,0,1.3,0.5,1.3,1.2v1.2c0,0,0,0,0,0.1c0,0,0,0,0,0.1c0,0,0,0,0.1,0c0,0,0,0,0.1,0h0.2v0.7H22
					c-0.3,0-0.4-0.2-0.4-0.3c0-0.1,0-0.2,0-0.2l0,0c0,0-0.2,0.5-0.9,0.5c-0.5,0-1-0.4-1-1C19.7,10.6,21,10.6,21.5,10.6z M21,12
					c0.4,0,0.7-0.5,0.7-0.9v-0.1h-0.1c-0.4,0-1,0.1-1,0.5C20.5,11.8,20.7,12,21,12L21,12z M23.4,10.2c0-0.1-0.1-0.2-0.1-0.2h-0.2
					V9.3h0.7c0.3,0,0.4,0.2,0.4,0.4v0.2c0,0.1,0,0.2,0,0.2l0,0c0.1-0.5,0.5-0.8,0.9-0.8c0.1,0,0.1,0,0.1,0v0.8c-0.1,0-0.1,0-0.2,0
					c-0.3,0-0.7,0.2-0.8,0.7c-0.1,0.2-0.1,0.3-0.1,0.5v1.2h-0.7L23.4,10.2L23.4,10.2z"/>
			</g>
		</g>
	</g>
</g>
</svg>
