<?xml version="1.0" encoding="utf-8"?>
<!-- Generator: Adobe Illustrator 24.1.1, SVG Export Plug-In . SVG Version: 6.00 Build 0)  -->
<svg version="1.1" id="Layer_1" xmlns="http://www.w3.org/2000/svg" xmlns:xlink="http://www.w3.org/1999/xlink" x="0px" y="0px"
	 viewBox="0 0 137 19" style="enable-background:new 0 0 137 19;" xml:space="preserve">
<style type="text/css">
	.st0{fill:#141414;}
</style>
<g>
	<path class="st0" d="M41.5,0.6c-2,0-3.6,0.7-4.8,1.9c-1.7,1.7-1.7,3.9-1.7,7c0,3-0.1,5.2,1.7,7c1.3,1.3,2.8,1.9,4.8,1.9
		c0.6,0,1-0.1,1.5-0.2h6l-1.7-3C48,13.8,48,12,48,9.6c0-3,0-5.2-1.7-7C45,1.3,43.5,0.6,41.5,0.6z M77.6,0.6c-2,0-3.6,0.6-4.8,1.9
		c-1.8,1.8-1.7,4-1.7,7c0,3.1,0,5.3,1.7,7c1.2,1.2,2.8,1.9,4.8,1.9c2,0,3.6-0.6,4.8-1.9c1.7-1.8,1.7-4,1.7-7c0-3.1,0-5.3-1.7-7
		C81.1,1.3,79.6,0.6,77.6,0.6z M7.5,0.7C3.7,0.7,1.4,2.9,1.4,6c0,1.5,0.5,2.7,1.3,3.5c0.7,0.7,1.9,1.3,3.4,1.5l2.1,0.3
		c0.8,0.2,1.2,0.3,1.6,0.6c0.4,0.4,0.5,0.8,0.5,1.5c0,1.5-1.1,2.2-3.1,2.2c-1.6,0-3.1-0.4-4.2-1.5l-2.2,2.2c1.7,1.7,3.8,2.3,6.4,2.3
		c3.7,0,6.6-1.9,6.6-5.3c0-1.6-0.5-2.8-1.4-3.8C11.7,8.8,10.6,8.3,9,8.1L6.9,7.8C6.2,7.7,5.6,7.5,5.2,7.1C4.9,6.7,4.7,6.3,4.7,5.8
		c0-1.2,0.9-2.2,2.8-2.2c1.1,0,2.5,0.1,3.6,1.2l2.2-2.1C11.7,1.3,9.9,0.7,7.5,0.7z M18.7,0.8v17.6h11.6v-3h-8.2v-4.3h7V7.9h-7V3.8
		h8.2v-3H18.7z M53.1,0.8v11.5c0,3.8,2.9,6.2,6.5,6.2c3.6,0,6.4-2.5,6.4-6.2V0.8h-3.4v11.4c0,2-1.2,3.2-3,3.2c-1.8,0-3-1.2-3-3.2
		V0.8H53.1z M89.1,0.8v17.6h3.4V0.8H89.1z M103.2,0.8l-6.4,17.6h3.6l1.1-3.1h6.2l1,3.1h3.6l-6.4-17.6H103.2z M41.4,3.7
		c0.9,0,1.7,0.4,2.2,0.9c0.6,0.7,0.8,1.6,0.8,4.9c0,3.4-0.2,4.2-0.8,4.9c-0.5,0.5-1.3,0.9-2.2,0.9c-0.9,0-1.7-0.4-2.2-0.9
		c-0.6-0.7-0.8-1.6-0.8-4.9c0-3.4,0.2-4.2,0.8-4.9C39.6,4.1,40.4,3.7,41.4,3.7z M77.6,3.7c0.9,0,1.7,0.4,2.2,0.9
		c0.6,0.7,0.8,1.6,0.8,4.9c0,3.4-0.2,4.2-0.8,4.9c-0.5,0.5-1.3,0.9-2.2,0.9c-0.9,0-1.7-0.4-2.2-0.9c-0.6-0.7-0.8-1.6-0.8-4.9
		c0-3.4,0.2-4.2,0.8-4.9C75.8,4.1,76.7,3.7,77.6,3.7z M104.6,5.9l2.2,6.4h-4.4L104.6,5.9z M119.3,0.8v16l2.2-2.2V0.8H119.3z
		 M123.7,0.8v11.6l2.2-2.2V0.8H123.7z M128.1,0.8V8l2.2-2.2v-5H128.1z M132.5,0.8v4.4h4.4V0.8H132.5z M131.8,7.4l-2.2,2.2h7.2V7.4
		H131.8z M127.4,11.8l-2.2,2.2h11.6v-2.2H127.4z M123,16.2l-2.2,2.2h16v-2.2H123z"/>
</g>
</svg>
