<?xml version="1.0" encoding="utf-8"?>
<!-- Generator: Adobe Illustrator 24.1.1, SVG Export Plug-In . SVG Version: 6.00 Build 0)  -->
<svg version="1.1" id="Layer_1" xmlns="http://www.w3.org/2000/svg" xmlns:xlink="http://www.w3.org/1999/xlink" x="0px" y="0px"
	 viewBox="0 0 65 36" style="enable-background:new 0 0 65 36;" xml:space="preserve">
<style type="text/css">
	.st0{fill:#141414;}
</style>
<g>
	<path class="st0" d="M32.6,0.6c-3.6-1.2-7.1-0.6-7.8,1.5s1.7,4.7,5.3,6s7.1,0.6,7.8-1.5C38.6,4.5,36.2,1.8,32.6,0.6z M36.4,5.6
		c-0.4,1.3-3,1.7-5.6,0.8c-2.7-1-4.4-2.8-4-4.2s3-1.7,5.6-0.8C35.1,2.4,36.9,4.3,36.4,5.6z M12,19c0,0,0.8,0.9,2.1,0.9
		c1,0,1.8-0.6,1.8-1.6c0-2.2-4-1.7-4-4.1c0-1.1,1-2,2.4-2c1.3,0,2,0.8,2,0.8l-0.3,0.4c0,0-0.7-0.7-1.7-0.7c-1.2,0-1.9,0.8-1.9,1.6
		c0,2.1,4,1.5,4,4.1c0,1.2-0.9,2-2.3,2c-1.5,0-2.4-1-2.4-1L12,19z M17.2,12.3h0.5l2.4,6.5c0.1,0.4,0.3,1,0.3,1l0,0
		c0,0,0.2-0.6,0.3-1l2.4-6.5h0.5l-2.9,7.9h-0.5L17.2,12.3z M29.3,17.5h-3.4l-1,2.8h-0.5l2.9-7.9h0.5l2.9,7.9h-0.5L29.3,17.5z
		 M27.7,12.8c0,0-0.2,0.6-0.3,1L26.1,17h3l-1.2-3.2C27.8,13.5,27.7,12.8,27.7,12.8L27.7,12.8z M32.1,14.6h0.4v1
		c0,0.3-0.1,0.4-0.1,0.4l0,0c0.2-0.5,1-1.6,2.4-1.6c1.5,0,1.9,0.9,1.9,2.2v3.6h-0.4v-3.5c0-1-0.1-1.9-1.4-1.9c-1.1,0-2,0.8-2.3,1.8
		c-0.1,0.3-0.1,0.5-0.1,0.8v2.8h-0.4V14.6z M40.6,22.2c1.2,0,2.2-0.6,2.2-2v-0.6c0-0.3,0.1-0.4,0.1-0.4l0,0c-0.3,0.7-1,1.2-1.9,1.2
		c-1.5,0-2.5-1.2-2.5-2.9c0-1.8,1-2.9,2.4-2.9c1.6,0,2,1.1,2,1.1l0,0c0,0,0-0.1,0-0.2v-0.8h0.4v5.6c0,1.7-1.2,2.4-2.6,2.4
		c-0.6,0-1.2-0.1-1.8-0.4l0.3-0.4C39,21.8,39.8,22.2,40.6,22.2z M42.8,17.3c0-1.9-0.8-2.4-2-2.4c-1.2,0-1.9,0.9-1.9,2.4
		s0.8,2.5,2,2.5C41.9,19.8,42.8,19.2,42.8,17.3z M47.6,14.4c1.5,0,2.3,1.2,2.3,2.6c0,0.1,0,0.3,0,0.3h-4.5c0,1.7,1.1,2.6,2.4,2.6
		c1.1,0,1.7-0.7,1.7-0.7l0.3,0.4c0,0-0.8,0.8-2,0.8c-1.6,0-2.9-1.2-2.9-2.9C44.8,15.5,46.1,14.4,47.6,14.4z M49.4,16.9
		c-0.1-1.4-0.9-2-1.9-2c-1,0-2,0.7-2.2,2H49.4z M51.4,12.3h0.5v6.7c0,0.8,0.4,0.9,0.6,0.9c0.1,0,0.2,0,0.2,0v0.4c0,0-0.1,0-0.2,0
		c-0.3,0-1.1-0.1-1.1-1.2L51.4,12.3L51.4,12.3z"/>
</g>
</svg>
