<?xml version="1.0" encoding="utf-8"?>
<!-- Generator: Adobe Illustrator 24.1.1, SVG Export Plug-In . SVG Version: 6.00 Build 0)  -->
<svg version="1.1" id="Layer_1" xmlns="http://www.w3.org/2000/svg" xmlns:xlink="http://www.w3.org/1999/xlink" x="0px" y="0px"
	 viewBox="0 0 73 45" style="enable-background:new 0 0 73 45;" xml:space="preserve">
<style type="text/css">
	.st0{fill-rule:evenodd;clip-rule:evenodd;fill:#141414;}
	.st1{fill:#141414;}
</style>
<g>
	<path class="st0" d="M14,23.6c0.3-0.5,0.5-1.1,0.8-1.7l1.6,3.2c0.7-1.3,1.3-2.6,1.9-3.9c0.4-0.9,0.9-1.8,1.3-2.6
		c-0.1,0-0.1,0-0.1,0c-0.2,0-0.4,0-0.6,0l-0.1,0.1c-0.1,0.4-0.4,0.7-0.5,1.1c-0.1,0.1-0.1,0.2-0.1,0.4c-0.3,0.5-0.5,1.1-0.8,1.6
		c-0.4,0.6-0.6,1.1-0.9,1.7c0,0-0.1,0.1-0.1,0.1v0.1l0,0v-0.1c-0.1-0.2-0.2-0.4-0.3-0.6c-0.3-0.6-0.6-1.2-0.9-1.7c0-0.1,0-0.1,0-0.1
		c0.3-0.7,0.6-1.2,0.9-1.9c0.1-0.1,0.1-0.3,0.2-0.4c0-0.1,0.1-0.1,0.1-0.1l0,0c-0.1,0-0.1,0-0.2,0c-0.1,0-0.4,0-0.5,0
		c0,0-0.1,0-0.1,0.1c-0.1,0.3-0.3,0.6-0.4,1c-0.1,0.2-0.2,0.4-0.3,0.6c0,0,0,0.1-0.1,0.1c0,0,0,0,0,0.1L14,18.7h-0.7l0,0
		c0,0,0,0,0,0.1c0.4,0.7,0.7,1.5,1.1,2.1c0.1,0.1,0.1,0.2,0.1,0.3c0,0.1,0,0.1-0.1,0.3c-0.2,0.4-0.4,0.7-0.6,1.2
		c-0.1,0.2-0.2,0.4-0.4,0.7c0,0-0.1,0.1-0.1,0.2c0,0,0-0.1-0.1-0.1v-0.1c-0.2-0.5-0.5-1-0.7-1.5s-0.5-1-0.7-1.5
		c-0.3-0.5-0.5-1.1-0.8-1.6c0-0.1-0.1-0.1-0.1-0.1c-0.1,0-0.1,0-0.2,0c0,0-0.1,0-0.1,0H10c0.3,0.6,0.6,1.2,0.9,1.8
		c0.8,1.6,1.5,3.1,2.3,4.8C13.5,24.7,13.7,24.1,14,23.6z M20.8,24.9h0.7l0,0c0-0.1,0-0.1,0-0.1v-2.9c0-0.1,0-0.1,0-0.1h0.1h3.1v3.1
		h0.7v-6.2h-0.7v2.4c0,0.1,0,0.1-0.1,0.1h-3c-0.1,0-0.1,0-0.1-0.1v-2.3l0,0c0,0,0,0,0-0.1c0,0,0-0.1-0.1-0.1c-0.2,0-0.4,0-0.7,0l0,0
		L20.8,24.9L20.8,24.9z M35.4,18.7v6.2l0,0h0.1h3.1l0,0l0,0l0,0c0,0,0.1,0,0.1-0.1c0-0.1,0-0.3,0-0.4c0-0.1,0-0.1,0-0.1h-0.1
		c-0.8,0-1.5,0-2.3,0c-0.1,0-0.1,0-0.1-0.1c0-0.5,0-1,0-1.5c0-0.1,0-0.4,0-0.5c0,0,0,0,0-0.1c0,0,0,0,0-0.1h2.5v-0.7h-0.1l0,0
		c-0.7,0-1.5,0-2.3,0c-0.1,0-0.1,0-0.1-0.1c0-0.5,0-1,0-1.5c0-0.1,0-0.4,0-0.5c0,0,0,0,0-0.1c0,0,0,0,0-0.1h0.1c0.2,0,0.4,0,0.6,0
		c0.6,0,1.2,0,1.8,0c0.1,0,0.1,0,0.1-0.1c0-0.1,0-0.3,0-0.4c0-0.1,0-0.1-0.1-0.1c-1,0-2,0-3.1,0C35.5,18.7,35.5,18.7,35.4,18.7
		L35.4,18.7z M33.8,19.2v-0.7h-3.7c0,0.1,0,0.1,0,0.1c0,0.1,0,0.2,0,0.4c0,0.1,0,0.1,0.1,0.1c0.3,0,0.7,0,1,0c0.1,0,0.2,0,0.3,0
		c0.1,0,0.1,0,0.1,0.1v5.5h0.7v-5.6L33.8,19.2L33.8,19.2z M28.4,18.7h-0.7v6.1l0,0v0.1c0,0,0,0.1,0.1,0.1c0.1,0,0.3,0,0.4,0
		c0.1,0,0.1,0,0.1,0C28.4,24.9,28.4,18.7,28.4,18.7z"/>
	<path class="st1" d="M62.4,25.2c-0.2,0-0.4,0-0.6,0c-0.2,0-0.3-0.1-0.4-0.2c-0.6-0.8-1.2-1.7-1.7-2.5c-0.1-0.1-0.1-0.1-0.2-0.1
		c0,0,0,0-0.1,0.1v0.1v2.6c-0.2,0-0.4,0-0.7,0c0,0-0.1,0-0.1-0.1s0-0.1,0-0.1v-6.1h0.1c0.4,0,0.7,0,1.1,0c0.4,0,0.8,0.1,1.2,0.3
		c0.4,0.2,0.7,0.5,0.7,1c0.1,0.4,0.1,1-0.1,1.3c-0.3,0.5-0.7,0.7-1.2,0.8h-0.1C61.1,23.3,61.7,24.3,62.4,25.2z M59.5,19.6L59.5,19.6
		c0,0.7,0,1.5,0,2.2c0,0.1,0,0.1,0.1,0.1c0.3,0,0.7,0,1-0.1c0.4-0.1,0.6-0.3,0.7-0.7c0.1-0.2,0.1-0.4,0.1-0.6c0-0.4-0.1-0.7-0.5-0.8
		c-0.2-0.1-0.4-0.1-0.6-0.1S59.7,19.6,59.5,19.6z M54.3,18.7c1,2.2,1.9,4.4,2.8,6.6h-0.1c-0.2,0-0.4,0-0.6,0c-0.1,0-0.1,0-0.1-0.1
		c-0.2-0.5-0.4-1.1-0.7-1.6c-0.1-0.1-0.1-0.1-0.2-0.1c-0.8,0-1.6,0-2.4,0c-0.1,0-0.1,0-0.1,0.1c-0.2,0.5-0.4,1.1-0.7,1.6
		c0,0.1-0.1,0.1-0.1,0.1c-0.2,0-0.4,0-0.7,0C52.4,23,53.4,20.9,54.3,18.7z M54.3,20.3c-0.4,0.9-0.7,1.7-1.1,2.6h2.1
		C55,22,54.7,21.1,54.3,20.3z M42,23.7c0.2-0.1,0.4-0.1,0.6-0.1c0.1,0,0.1,0,0.1,0.1c0.1,0.3,0.2,0.5,0.4,0.7
		c0.5,0.4,1.2,0.4,1.7,0.1c0.4-0.3,0.5-0.7,0.4-1.2c-0.1-0.3-0.2-0.5-0.5-0.7c-0.3-0.1-0.6-0.3-0.9-0.4c-0.4-0.1-0.7-0.4-1.1-0.6
		c-0.3-0.3-0.4-0.6-0.4-1c0-0.8,0.6-1.4,1.2-1.5c0.6-0.1,1.1-0.1,1.5,0.2c0.2,0.1,0.4,0.4,0.6,0.6c0,0.1,0,0.1,0,0.1
		c-0.1,0.1-0.3,0.2-0.5,0.3c-0.1-0.1-0.1-0.2-0.2-0.3c-0.4-0.4-1.1-0.4-1.5-0.1c-0.5,0.4-0.5,1.1,0.1,1.5c0.3,0.1,0.6,0.3,0.9,0.4
		c0.4,0.1,0.7,0.4,1,0.6c0.4,0.4,0.6,0.8,0.5,1.3c0,0.4-0.2,0.8-0.5,1.2c-0.3,0.4-0.7,0.6-1.2,0.7c-0.5,0.1-1,0-1.4-0.3
		c-0.4-0.3-0.7-0.7-0.8-1.1C42.1,23.9,42.1,23.8,42,23.7L42,23.7z M49.5,25.2h-0.7v-5.6c-0.1,0-0.1,0-0.1,0c-0.4,0-0.9,0-1.3,0
		c-0.1,0-0.1,0-0.1-0.1c0-0.1,0-0.4,0-0.5h3.7v0.7h-1.5C49.5,21.4,49.5,23.3,49.5,25.2z M44.1,32.3c-0.1,0-0.3,0-0.4,0l-0.1-0.1
		c-0.1-0.3-0.2-0.6-0.4-0.9c0-0.1-0.1-0.1-0.1-0.1c-0.4,0-1,0-1.4,0c-0.1,0-0.1,0-0.1,0.1c-0.1,0.3-0.2,0.6-0.4,0.9
		c0,0.1-0.1,0.1-0.1,0.1c-0.1,0-0.2,0-0.4,0c0.6-1.2,1.1-2.5,1.7-3.8C43,29.8,43.5,31,44.1,32.3z M43.1,30.9c-0.2-0.5-0.4-1-0.6-1.5
		l0,0c-0.2,0.4-0.4,1-0.6,1.5C42.2,30.9,42.6,30.9,43.1,30.9z M29.8,32.3c0.6-1.2,1.1-2.5,1.7-3.8c0.5,1.2,1.1,2.5,1.6,3.8
		c-0.1,0-0.3,0-0.4,0l-0.1-0.1c-0.1-0.3-0.2-0.6-0.4-0.9c0-0.1-0.1-0.1-0.1-0.1c-0.4,0-1,0-1.4,0c-0.1,0-0.1,0-0.1,0.1
		c-0.1,0.3-0.2,0.6-0.4,0.9c0,0.1-0.1,0.1-0.1,0.1C30.1,32.3,30,32.3,29.8,32.3z M32.1,30.9c-0.2-0.5-0.4-1-0.6-1.5l0,0
		c-0.2,0.4-0.4,1-0.6,1.5H32.1z M29,31.5c0,0.1,0,0.3,0,0.4c0,0,0,0.1-0.1,0.1c-0.2,0.1-0.5,0.3-0.8,0.3c-0.8,0.1-1.6-0.4-2-1.1
		c-0.4-1,0-2,1-2.5c0.3-0.1,0.6-0.2,1-0.1c0.3,0,0.6,0.1,0.9,0.3l0.1,0.1c0,0.1,0,0.3,0,0.4c-0.8-0.7-1.7-0.5-2.2,0.1
		c-0.5,0.6-0.5,1.5,0.1,2C27.4,32.1,28.3,32.1,29,31.5z M34.4,32.3h-0.4v-3.6l0,0c0.4,0,0.7,0,1,0c0.5,0.1,0.9,0.5,0.8,1
		c0,0.4-0.1,0.7-0.6,0.9c-0.1,0.1-0.3,0.1-0.4,0.1c-0.1,0-0.3,0-0.4,0c-0.1,0-0.1,0-0.1,0.1c0,0.4,0,0.9,0,1.4
		C34.4,32.2,34.4,32.2,34.4,32.3z M34.4,29.6c0,0.2,0,0.4,0,0.6c0,0.1,0,0.1,0.1,0.1c0.1,0,0.3,0,0.4,0c0.1,0,0.3-0.1,0.4-0.1
		c0.2-0.1,0.2-0.4,0.2-0.6c0-0.2-0.1-0.4-0.4-0.5C35,29,34.7,29,34.5,29c-0.1,0-0.1,0.1-0.1,0.1S34.4,29.6,34.4,29.6z M38.4,28.7
		h2.1v0.4h-0.1h-0.7c-0.1,0-0.1,0-0.1,0.1v3c0,0.1,0,0.1-0.1,0.1c-0.1,0-0.1,0-0.2,0c-0.1,0-0.1,0-0.1-0.1c0-0.2,0-0.4,0-0.7v-2.4
		c0-0.1,0-0.1-0.1-0.1c-0.2,0-0.4,0-0.7,0c-0.1,0-0.1,0-0.1-0.1C38.4,28.8,38.4,28.8,38.4,28.7z M46.4,31.9v0.4H45v-3.6
		c0.1,0,0.2,0,0.4,0c0,0,0,0,0.1,0.1v0.1v3c0,0.1,0,0.1,0.1,0.1L46.4,31.9L46.4,31.9z M37.1,32.3v-3.6h0.4v0.1c0,1.2,0,2.3,0,3.4
		c0,0.1,0,0.1-0.1,0.1C37.2,32.3,37.2,32.3,37.1,32.3z M39.4,7.9c-0.4-0.2-0.8-0.4-1.2-0.6c0.1,0.3,0.1,0.7,0.1,1
		c0.1,0.6,0.2,1.1,0.3,1.7V10c-0.1-0.1-0.3-0.1-0.4-0.2c-0.7-0.4-1.3-0.7-1.9-1c-0.1,0-0.1,0-0.1,0c-0.7,0.4-1.5,0.8-2.3,1.2
		c0,0,0,0-0.1,0c0-0.1,0-0.1,0-0.2c0.1-0.5,0.1-1,0.3-1.6l0,0c0.1-0.3,0.1-0.5,0.1-0.8c0-0.1,0-0.1-0.1-0.2C33.6,6.6,33,6,32.4,5.5
		c-0.1-0.1-0.1-0.1-0.1-0.1c0.1,0,0.2-0.1,0.4-0.1c0.4-0.1,0.7-0.1,1-0.1C34.1,5,34.5,5,34.9,5c0,0,0,0,0.1,0c0,0-0.1,0-0.1-0.1
		c-1.2-1.1-2.3-2.2-3.4-3.4c-0.1-0.1-0.3-0.3-0.4-0.4c-0.1,0.2-0.1,0.4-0.1,0.5c0,0.1,0,0.1,0,0.1l0,0c1,1,1.9,1.8,2.9,2.8l0.1,0.1
		c-0.1,0-0.1,0-0.1,0c-0.6,0.1-1.2,0.1-1.8,0.3c-0.1,0-0.1,0-0.1-0.1c-0.3-0.3-0.7-0.6-1-1c-0.1-0.1-0.4-0.3-0.5-0.5
		c-0.1,0.1-0.1,0.3-0.1,0.5c0,0.1,0,0.1,0.1,0.1c0.3,0.3,0.6,0.6,0.9,0.9c0,0,0,0.1,0.1,0.1l0,0c-0.4,0.1-0.9,0.1-1.3,0.2
		c-0.1,0-0.1,0-0.1,0.1c-0.1,0.1-0.1,0.4-0.1,0.5c0.3,0,0.5-0.1,0.7-0.1c0.4-0.1,0.8-0.1,1.2-0.2c0.1,0,0.1,0,0.1,0.1
		c0.4,0.4,1,0.9,1.4,1.3c0,0,0,0,0.1,0.1h-0.1C32.8,7,32.7,7,32.5,7c-0.5,0.1-1,0.1-1.6,0.2c-0.6,0.1-1.2,0.1-1.8,0.2
		c-0.1,0-0.2,0.1-0.3,0.2c0,0.1-0.1,0.2-0.1,0.4c1.8-0.3,3.7-0.5,5.5-0.8l0,0c-1.6,0.9-3.2,1.7-4.9,2.6l0,0c0.1,0.1,0.3,0.2,0.4,0.3
		h0.1c0.1-0.1,0.3-0.1,0.4-0.2l3.1-1.6c0,0,0.1,0,0.1-0.1v0.1c-0.1,0.3-0.1,0.5-0.1,0.7c-0.1,0.4-0.1,0.7-0.2,1.2l-0.1,0.1
		c-0.2,0.1-0.4,0.2-0.7,0.4c-0.4,0.2-0.7,0.4-1.1,0.6c0.1,0.1,0.3,0.2,0.4,0.3c0.1,0.1,0.1,0.1,0.1,0c0.4-0.2,0.7-0.4,1.1-0.6h0.1
		c0,0.1,0,0.1,0,0.1c-0.1,0.4-0.1,0.8-0.2,1.2v0.1c0.1,0.1,0.3,0.2,0.4,0.3c0-0.1,0.1-0.3,0.1-0.4c0.1-0.5,0.1-1,0.2-1.5
		c0-0.1,0.1-0.1,0.1-0.1c0.5-0.3,1-0.5,1.5-0.8c0.1-0.1,0.1-0.1,0.2-0.1v0.1c-0.1,0.2-0.1,0.4-0.1,0.7c-0.1,0.4-0.1,0.9-0.2,1.3
		c-0.1,0.4-0.1,0.7-0.1,1.1c-0.1,0.3-0.1,0.7-0.1,1v0.1c0.1,0.1,0.3,0.2,0.4,0.3c0.3-1.8,0.7-3.6,1-5.4l0,0l0,0
		c0.3,1.8,0.6,3.6,1,5.4c0.1-0.1,0.3-0.2,0.4-0.3c0,0,0.1-0.1,0-0.1c0-0.1-0.1-0.3-0.1-0.4c-0.1-0.6-0.2-1.2-0.3-1.8
		c-0.1-0.5-0.1-1-0.3-1.5c0-0.1,0-0.2-0.1-0.3c0,0,0,0,0.1,0c0.6,0.3,1.2,0.6,1.8,1l0.1,0.1c0.1,0.5,0.1,1,0.3,1.5
		c0,0.1,0.1,0.4,0.1,0.6c0.1-0.1,0.3-0.2,0.4-0.3v-0.1c-0.1-0.3-0.1-0.5-0.1-0.8c0-0.2-0.1-0.4-0.1-0.6c0.1,0,0.1,0,0.1,0.1
		c0.4,0.2,0.7,0.4,1.1,0.6h0.1c0.1-0.1,0.3-0.2,0.4-0.3c-0.6-0.3-1.1-0.6-1.6-0.9c-0.1-0.1-0.3-0.1-0.3-0.4V9.9
		c-0.1-0.5-0.2-1-0.3-1.6V8.2c0.1,0,0.1,0,0.1,0.1c0.8,0.4,1.5,0.8,2.3,1.2c0.4,0.2,0.8,0.4,1.2,0.7c0,0,0.1,0.1,0.1,0
		c0.1-0.1,0.3-0.2,0.4-0.3h-0.1c-0.4-0.2-0.9-0.4-1.4-0.7l0,0C41,8.7,40.2,8.3,39.4,7.9z"/>
	<path class="st1" d="M38.2,7.2C38.2,7.3,38.2,7.3,38.2,7.2C38.2,7.3,38.2,7.3,38.2,7.2c0.4,0.1,0.8,0.1,1.2,0.2
		c0.4,0.1,1,0.1,1.4,0.2l0,0c0.8,0.1,1.6,0.2,2.4,0.4l0,0c0.1,0,0.3,0.1,0.5,0.1c-0.1-0.2-0.1-0.4-0.1-0.5c0,0,0,0-0.1-0.1
		c-0.4-0.1-0.7-0.1-1.1-0.1c-0.4-0.1-0.8-0.1-1.2-0.1c-0.5-0.1-1.1-0.1-1.6-0.2h-0.2l0,0C39.4,7,39.5,7,39.6,6.9
		c0.4-0.4,0.8-0.8,1.2-1.2C40.9,5.6,41,5.6,41,5.6c0.1,0,0.3,0.1,0.4,0.1c0.4,0.1,0.9,0.1,1.4,0.2c0.1,0,0.1,0,0.2,0
		C43,5.8,43,5.6,42.9,5.5c-0.1-0.2-0.2-0.2-0.3-0.2c-0.3-0.1-0.6-0.1-0.9-0.1c-0.1,0-0.3-0.1-0.4-0.1L41.4,5
		c0.3-0.3,0.6-0.6,0.9-0.9c0,0,0.1-0.1,0.1-0.1c-0.1-0.1-0.1-0.3-0.1-0.5c-0.1,0.1-0.1,0.1-0.1,0.1c-0.4,0.4-0.9,0.9-1.3,1.3
		c-0.1,0.1-0.1,0.1-0.1,0.1s-0.2,0-0.3-0.1c-0.5-0.1-1-0.1-1.5-0.2c-0.1,0-0.1,0-0.1,0l0.1-0.1c0.5-0.5,1-1,1.5-1.5
		c0.4-0.4,0.9-0.9,1.3-1.3l0.1-0.1c-0.1-0.1-0.1-0.4-0.1-0.5c-1.3,1.3-2.6,2.6-4,3.8l0,0L40.1,0c-0.1,0-0.3,0-0.5,0
		c-0.1,0-0.1,0-0.1,0.1c-0.1,0.4-0.4,0.7-0.6,1.1c-0.4,0.7-0.7,1.4-1,2c-0.2,0.2-0.3,0.4-0.4,0.6l0,0l0,0c-0.3-0.6-0.6-1.2-0.9-1.8
		c0,0,0-0.1,0-0.1c0.2-0.4,0.4-1,0.7-1.4l0,0l0,0c0.1-0.1,0.1-0.3,0.2-0.4c-0.1,0-0.4,0-0.5,0c-0.1,0-0.1,0-0.1,0.1
		c-0.1,0.3-0.2,0.5-0.4,0.8c-0.1,0.1-0.1,0.3-0.2,0.4c0-0.1-0.1-0.1-0.1-0.1l0,0c-0.2-0.4-0.4-0.7-0.6-1.1l-0.1-0.1
		c-0.1,0-0.4,0-0.5,0c0,0,0,0,0,0.1c0.3,0.6,0.6,1.2,0.9,1.8c0,0,0,0.1,0,0.1c-0.2,0.5-0.4,1-0.7,1.5c-0.1,0.1-0.1,0.2-0.2,0.4
		c0,0,0,0,0-0.1c-0.4-0.9-0.9-1.8-1.3-2.6c-0.1-0.4-0.2-0.7-0.4-1l-0.1-0.1c-0.1,0-0.4,0-0.6,0c0.1,0.1,0.1,0.3,0.2,0.4
		c0.7,1.3,1.3,2.7,2,4c0.1,0.1,0.1,0.3,0.2,0.4L35,4.9c0.4-0.7,0.7-1.5,1.1-2.3c0,0,0-0.1,0.1-0.1l0,0c0.1,0.3,0.2,0.5,0.4,0.7
		c0.3,0.5,0.5,1.1,0.8,1.6L37.4,5c0.4,0.1,0.7,0.1,1.1,0.1c0.5,0.1,1,0.1,1.4,0.2c0.1,0,0.2,0,0.3,0.1l-0.1,0.1
		C39.4,6.1,38.8,6.7,38.2,7.2z"/>
</g>
</svg>
