<?xml version="1.0" encoding="utf-8"?>
<!-- Generator: Adobe Illustrator 24.1.1, SVG Export Plug-In . SVG Version: 6.00 Build 0)  -->
<svg version="1.1" id="Layer_1" xmlns="http://www.w3.org/2000/svg" xmlns:xlink="http://www.w3.org/1999/xlink" x="0px" y="0px"
	 viewBox="0 0 74 25.2" style="enable-background:new 0 0 74 25.2;" xml:space="preserve">
<style type="text/css">
	.st0{fill:#141414;}
</style>
<g>
	<path class="st0" d="M16.7,22.2c0.2-0.7,0.4-1.5,0.6-2.2c0.5-1.8,1-3.7,1.5-5.6c0.3-1.1,0.8-1.5,1.8-1.5c1.1,0,1.6,0.4,1.9,1.5
		c0.6,2.4,1.3,4.8,2,7.2c0.1,0.2,0.1,0.4,0.3,0.8c0.1-0.4,0.2-0.6,0.3-0.8c0.8-2.7,1.6-5.3,2.5-7.9c0.1-0.5,0.4-0.6,0.8-0.6
		c0.4,0.1,1,0.1,1.5,0.1c-0.1,0.3-0.1,0.5-0.2,0.7c-1,3.3-2,6.6-3,9.9c-0.4,1.1-0.8,1.5-2,1.5c-1.1,0-1.5-0.4-1.9-1.5
		c-0.6-2.4-1.3-4.7-2-7.1c-0.1-0.3-0.1-0.5-0.4-0.8c-0.1,0.6-0.4,1.3-0.5,1.8c-0.6,2-1.1,4.1-1.6,6c-0.3,1.1-0.8,1.5-1.8,1.5
		c-1.1,0-1.7-0.4-2-1.4c-1.1-3.3-2-6.7-3.1-10.1c0-0.1-0.1-0.3-0.1-0.5c0.7,0,1.4-0.1,2.1,0c0.1,0,0.3,0.4,0.4,0.6
		c0.8,2.7,1.6,5.3,2.5,8.1c0.1,0.1,0.1,0.4,0.1,0.5C16.6,22.2,16.6,22.2,16.7,22.2z M46.1,22.4c0-3.1,0-6.1,0-9.3c0.8,0,1.5,0,2.2,0
		c0,0.2,0.1,0.4,0.1,0.6c0,3.1,0,6.3,0,9.4c0,1.1-0.4,1.6-1.2,1.8c-1,0.3-1.9,0.1-2.5-0.7c-1.8-2.7-3.6-5.4-5.3-8.1
		c-0.1-0.2-0.3-0.4-0.5-0.5c0,3,0,6.1,0,9.2c-0.8,0-1.5,0-2.2,0c0-0.2-0.1-0.4-0.1-0.7c0-3,0-6.1,0-9.1c0-1.2,0.3-1.7,1.1-1.9
		c1.1-0.4,2.1-0.1,2.7,0.8c1.8,2.7,3.5,5.3,5.3,8c0.1,0.1,0.2,0.4,0.4,0.5C45.9,22.5,46,22.5,46.1,22.4z M61.7,13.1
		c0,0.6,0,1.1,0,1.6c-0.2,0-0.5,0-0.7,0c-1.8,0-3.7,0-5.5,0c-0.4,0-0.6,0-1,0.1c-1,0.1-1.3,0.5-1.3,1.5c0,1.8,0,3.6,0,5.3
		c0,1.1,0.4,1.5,1.3,1.5c1.4,0.1,2.8,0.1,4.2,0c1-0.1,1.4-0.5,1.4-1.5c0-1.1,0-2.2,0-3.2c0.8,0,1.5,0,2.3,0c0,1.5,0.1,2.9,0,4.4
		c-0.1,0.8-0.6,1.4-1.3,1.8c-0.6,0.2-1.3,0.4-1.9,0.4c-1.6,0.1-3.2,0.1-4.8,0c-0.7,0-1.4-0.1-2-0.4c-1-0.4-1.5-1.1-1.5-2.2
		c0-2.2,0-4.5,0-6.7c0-1.1,0.6-1.8,1.5-2.2c0.4-0.1,0.8-0.3,1.2-0.3C56.3,13.1,58.9,13.1,61.7,13.1z M33.9,24.9c-0.8,0-1.5,0-2.2,0
		c0-0.2-0.1-0.4-0.1-0.5c0-2,0-4.1,0-6.3c0-0.4,0.1-0.6,0.5-0.7c0.6-0.3,1.2-0.6,1.9-0.9C33.9,19.3,33.9,22.1,33.9,24.9z M34,13.8
		V13h-2.3v0.9c0,0.7,0,1.4,0,2.2C33.7,15.5,34,15.3,34,13.8z"/>
</g>
</svg>
