<?xml version="1.0" encoding="utf-8"?>
<!-- Generator: Adobe Illustrator 24.1.1, SVG Export Plug-In . SVG Version: 6.00 Build 0)  -->
<svg version="1.1" id="Layer_1" xmlns="http://www.w3.org/2000/svg" xmlns:xlink="http://www.w3.org/1999/xlink" x="0px" y="0px"
	 viewBox="0 0 1920 975" style="enable-background:new 0 0 1920 975;" xml:space="preserve">
<style type="text/css">
	.st0{fill:#141414;}
	.st1{opacity:0.5;fill:#141414;enable-background:new    ;}
	.st2{fill-rule:evenodd;clip-rule:evenodd;fill:#141414;}
</style>
<g>
	<g>
		<path class="st0" d="M1176.6,290.2l28.2,20.7l28.2-20.7l18.9,35.4l-19.9,20v-24.5l-7.8-1.8l-8.9,29l-10.5,4.5l-10.5-4.5l-8.9-29
			l-7.8,1.8v24.5l-20-20L1176.6,290.2z"/>
		<path class="st0" d="M1185.4,319.2l-4.5-14.6l-23.3,20.8L1185.4,319.2z M1224.2,319.2l4.5-14.6l23.3,20.8L1224.2,319.2z"/>
		<path class="st1" d="M1185.4,319.2l-8.9-29l-3.3,6.1l7.5,24.1L1185.4,319.2z"/>
		<path class="st0" d="M1157.7,325.6l19.9-4.5v4.5v20l-16.3-16.5L1157.7,325.6z M1251.8,325.6l-19.9-4.5v4.5v20l16.3-16.5
			L1251.8,325.6z"/>
		<path class="st0" d="M1157.7,325.6l19.9-4.5v4.5l-16.3,3.5L1157.7,325.6z M1251.8,325.6l-19.9-4.5v4.5l16.3,3.5L1251.8,325.6z
			 M1176.6,290.2l28.2,20.7l28.2-20.7l-17.6,58.2l-10.5,4.5l-10.5-4.5L1176.6,290.2z"/>
		<path class="st0" d="M1204.8,352.8l-10.5-4.5l-13.2-43.7l23.8,38.8l23.8-38.8l-13.2,43.7L1204.8,352.8z"/>
		<path class="st0" d="M1204.8,352.8l-10.5-4.5l10.5-4.8l10.5,4.8L1204.8,352.8z"/>
		<path class="st0" d="M1176.6,290.2l28.2,20.7l28.2-20.7l18.9,35.4l-19.9,20v-24.5l-7.8-1.8l-8.9,29l-10.5,4.5l-10.5-4.5l-8.9-29
			l-7.8,1.8v24.5l-20-20L1176.6,290.2z M1281.2,324.8l7.8-10.4v18.3h6.9v-29.4h-6.1l-9.5,12.5l-9.3-12.5h-6.1v29.4h7.1v-18.3
			l7.6,10.5h1.6V324.8z M1302.4,332.5h6.9V310h-6.9V332.5z M1301.8,304c0,1.9,1.6,3.5,4.1,3.5c2.6,0,4.1-1.6,4.1-3.5
			c0-1.9-1.6-3.5-4.1-3.5C1303.4,300.5,1301.8,302.1,1301.8,304z M1321.3,321.3c0-3.8,2.7-6.1,6.1-6.1c3.4,0,6.1,2.6,6.1,6.1
			c0,3.8-2.7,6.3-6.1,6.3C1324,327.6,1321.3,325.2,1321.3,321.3z M1314.5,321.3c0,6.5,4.8,11.6,11.6,11.6c3,0,5.4-1.1,7.2-2.3v0.8
			c0,2-1,5.6-5.7,5.6c-3,0-4.6-1.5-5.2-3.3h-6.5c0.3,4.1,3.4,8.9,11.7,8.9c7.9,0,12.3-4.8,12.3-11.4v-20.7h-5.4l-0.4,1.9
			c-1.6-1.4-4.2-2.6-7.4-2.6C1319.2,309.4,1314.5,314.8,1314.5,321.3z M1370.2,320.5c0-6.9-3.1-11-10.4-11c-2.6,0-4.9,1-6.5,2.2
			l0.1-9.5h-6.8v30.5h6.8v-11.9c0-3.3,2-5.6,5.2-5.6s4.9,1.1,4.9,5.4v12h6.9v-12.1H1370.2z M1377.3,309.5l-3.4,1.4v5.2h3.7v7.9
			c0,7.6,4.2,8.9,9.4,8.9h4.5l0.1-5.4h-3.8c-1.8,0-3.3-0.7-3.3-3.5v-7.9h6.7v-5.7h-6.7V304l-4.9,0.1L1377.3,309.5z M1411.9,310.2
			l-5.4,13.3l-0.4-1.4l-4.9-12h-7.6l9.3,21l-4.4,9.1h7.4l13.3-30.1C1419.2,310.2,1411.9,310.2,1411.9,310.2z"/>
	</g>
	<g>
		<path class="st0" d="M1238.7,703.6h15.1V765h-8.4v-54.1l-13.8,54.1h-12l-13.9-54.3V765h-8.4v-61.4h15.1l13.3,54.8L1238.7,703.6z
			 M1280.6,766c-4.9,0-8.8-1.1-11.8-3.6c-2.9-2.4-4.5-5.5-4.5-9.7c0-2.9,0.8-5.3,2.3-7.3c1.6-1.9,3.7-3.4,6.3-4.5
			c2.8-1.1,5.8-1.8,9.2-2.1c5-0.5,8.8-1.1,10.9-1.6s3.2-1.3,3.2-2.4l0,0c0-2.3-1-4.1-2.8-5.2c-1.9-1.1-4.5-1.8-7.9-1.8
			c-3.7,0-6.5,0.6-8.4,1.9c-1.9,1.3-2.9,3.4-2.9,6.2h-8.6c0-3.4,0.8-6.3,2.6-8.6c1.8-2.4,4.1-4.2,7.1-5.3c3.1-1.3,6.5-1.9,10.4-1.9
			c3.6,0,6.8,0.6,9.9,1.8c3.1,1.1,5.3,2.8,7.1,5c1.8,2.3,2.6,5,2.6,8.3v21.1c0,1,0,1.9,0,3.1c0,1,0.2,1.8,0.5,2.6
			c0.2,0.8,0.5,1.6,0.8,2.1s0.6,1,0.8,1.1h-8.8c-0.2-0.2-0.5-0.5-0.8-1.1c-0.3-0.5-0.6-1.3-0.8-1.9c-0.2-0.6-0.5-1.3-0.5-2.1
			c-1.6,1.8-3.7,3.2-6.5,4.4C1287.2,765.4,1284.1,766,1280.6,766z M1282.5,758.4c2.4,0,4.9-0.5,6.8-1.3s3.7-2.1,4.9-3.7
			c1.3-1.6,1.9-3.9,1.9-6.5V743c-1.6,0.5-3.6,1-5.7,1.3s-4.2,0.6-6.3,0.8c-3.7,0.3-6.5,1-8.3,1.9c-1.8,1-2.8,2.6-2.8,4.7
			C1273.1,756.3,1276.2,758.4,1282.5,758.4z M1349.1,720.8l-13.9,44.2h-11.7l-14.3-44.2h9.1l11,38.1l10.7-38.1H1349.1z
			 M1396.8,751.3c-0.2,2.4-1.1,4.7-2.8,7c-1.6,2.3-4.1,4.2-7.1,5.5c-3.1,1.5-6.8,2.3-11.3,2.3c-4.5,0-8.4-1-11.8-2.9
			c-3.4-1.9-6-4.7-7.9-8.1c-1.9-3.4-2.8-7.5-2.8-12c0-4.5,1-8.6,2.9-12c1.9-3.4,4.5-6.2,7.9-8.1c3.4-1.9,7.3-2.9,11.8-2.9
			c4.5,0,8.4,1,11.7,2.9c3.2,1.9,5.8,4.7,7.6,8.1c1.8,3.4,2.8,7.3,2.8,11.8c0,0.5,0,1.1,0,1.8c0,0.6,0,1.1-0.2,1.5h-35.7
			c0.5,3.9,1.9,6.8,4.4,9.1c2.4,2.1,5.7,3.2,9.7,3.2c2.8,0,5-0.5,6.8-1.1c1.8-0.8,3.1-1.6,4.1-2.8c0.8-1.1,1.5-2.3,1.5-3.2
			L1396.8,751.3L1396.8,751.3z M1375.5,727.6c-3.7,0-6.6,1-9.1,3.1c-2.4,1.9-4.1,4.9-4.7,8.4h26.4c-0.2-3.1-1.3-5.8-3.4-8.1
			C1382.5,728.7,1379.6,727.6,1375.5,727.6z M1407.3,765v-44.2h8.8v6.6c1.6-2.3,3.7-4.1,6.3-5.3c2.4-1.3,5.2-1.9,8.1-1.9
			c5,0,9.1,1.5,12,4.5c2.9,2.9,4.4,7,4.4,12.2v28.4h-8.8v-25.8c0-3.2-0.8-5.8-2.3-7.9c-1.5-2.1-4.1-3.1-7.9-3.1
			c-2.1,0-4.2,0.5-6,1.6c-1.8,1.1-3.2,2.6-4.2,4.5c-1,1.9-1.6,4.1-1.6,6.5v24.1L1407.3,765L1407.3,765z"/>
	</g>
	<g>
		<path class="st0" d="M1471.9,558.3c-9,0-17.8-3.7-23.7-9.7c-6.1-6.3-9.3-15.5-8.6-24.7c0.7-8.2,4.4-16.6,10.6-23.7
			c5.4-5.9,11.7-10.4,18.6-13c7.8-2.8,16.1-3,23.3-0.6c7.1,2.3,13.1,7.1,16.8,13.3c3.7,6.1,4.9,13.5,3.5,20.4
			c-1.8,8.3-8.2,17.3-18.2,17.5c-5.1,0-9.3-2.3-13.4-4.7c-1.4-0.8-2.8-1.6-4.2-2.3c-1,2.5-2.1,5.1-3.8,7.5c-1.7,2.4-3.4,4.1-5.5,5.2
			c-2.8,1.6-6.2,1.8-8.9,0.8c-4.2-1.7-6.6-6.8-5.4-11.1c1-3.1,3.1-5.8,6.5-7.5c3.7-2,8.6-2.7,13.1-2c0.3-0.8,0.4-1.8,0.7-2.7l0,0
			c0-0.1,0.3-1.3,0.8-3c-0.6-0.3-1.3-0.4-1.8-0.8c-5.6-2.7-9.7-6.9-13.3-10.4l4.4-3.8c4.1,4.1,7.2,7.2,11.6,9.3
			c0.3,0.1,0.7,0.3,1,0.4c1-2.8,2.3-5.6,3.5-7.6c1.7-2.4,3.4-4.1,5.5-5.4c2.8-1.6,6.1-2,8.9-0.8c4.2,1.7,6.6,6.6,5.4,11.1
			c-1,3.7-4.1,6.8-8.3,8.3c-3.4,1.4-7.2,1.7-11.1,1.1c-0.3,1.1-0.7,2.1-0.8,2.8l0,0c-0.3,1-0.6,2-0.8,3c2,0.8,3.7,2,5.5,3
			c3.4,2,6.8,3.8,10.2,3.8c0,0,0,0,0.1,0c4.8,0,10.6-4.1,12.4-13c1.1-5.6,0.1-11.6-2.8-16.5c-3-4.9-7.9-8.7-13.7-10.7
			c-5.9-2-12.8-1.8-19.5,0.4c-5.9,2.1-11.6,5.9-16.2,11.3c-5.4,6.2-8.6,13.4-9.2,20.6c-0.6,7.8,2.1,15.2,7.1,20.4
			c5.1,5.2,12.8,8.2,20.6,7.9c7.5-0.3,15.1-3.8,20.2-9.2l4.4,3.8c-6.3,6.8-15.2,10.7-24.4,11
			C1472.9,558.3,1472.5,558.3,1471.9,558.3z M1469.5,529.2c-2.5,0-5.1,0.6-6.9,1.6c-1.8,1-3.1,2.4-3.5,3.9c-0.4,1.8,0.3,3.9,1.8,4.5
			c1,0.4,2.4,0.3,3.7-0.4s2.4-1.8,3.5-3.4c1.3-2,2.3-3.9,3.1-6.1C1470.7,529.2,1470.1,529.2,1469.5,529.2z M1482.1,514.2
			c2.5,0.3,4.9,0,7.1-0.8c2.5-1,4.4-2.7,4.9-4.7c0.4-1.8-0.4-3.9-1.8-4.5c-1-0.4-2.4-0.1-3.7,0.4c-1.3,0.7-2.4,1.8-3.5,3.5
			C1483.9,509.6,1482.9,511.8,1482.1,514.2z M1542.2,540.2h-7.6v-37.5h7.6V540.2z M1571.9,527.9c0,7.5-5.2,12.8-12.7,12.8
			s-12.5-5.2-12.5-12.8v-14.1h7.6v14.1c0,3.4,2,5.5,5.1,5.5c3.1,0,5.1-2.1,5.1-5.5v-14.1h7.6v14.1H1571.9z M1602.6,525.4v14.8h-7.6
			v-14c0-3.4-2.1-5.6-5.2-5.6s-5.2,2.3-5.2,5.6v14h-7.6v-26.4h7.6v3.4c1.7-2.5,4.1-3.9,7.2-3.9
			C1598.6,513.2,1602.6,517.7,1602.6,525.4z M1620.4,540.7c-7.9,0-14-5.9-14-13.7c0-7.9,6.1-13.8,14-13.8c5.2,0,9.6,2.5,11.7,6.5
			l-6.5,3.7c-1-1.8-2.8-3-5.2-3c-3.8,0-6.5,2.8-6.5,6.5c0,3.7,2.7,6.3,6.5,6.3c2.7,0,4.7-1.1,5.8-3.4l6.8,3
			C1630.8,537.6,1626.1,540.7,1620.4,540.7z M1661,525.4v14.8h-7.6v-14c0-3.4-2.1-5.6-5.2-5.6c-3.1,0-5.2,2.3-5.2,5.6v14h-7.6v-37.5
			h7.6v14.7c1.7-2.5,4.1-3.9,7.2-3.9C1656.9,513.2,1661,517.7,1661,525.4z M1678.6,540.7c-7.9,0-14-5.9-14-13.7
			c0-7.9,6.1-13.8,14-13.8c5.2,0,9.6,2.5,11.7,6.5l-6.5,3.7c-1-1.8-2.8-3-5.2-3c-3.8,0-6.5,2.8-6.5,6.5c0,3.7,2.7,6.3,6.5,6.3
			c2.7,0,4.7-1.1,5.8-3.4l6.8,3C1689.2,537.6,1684.4,540.7,1678.6,540.7z M1701.2,540.2h-7.6v-37.5h7.6V540.2z M1731,527.9
			c0,7.5-5.2,12.8-12.7,12.8c-7.5,0-12.5-5.2-12.5-12.8v-14.1h7.6v14.1c0,3.4,2,5.5,5.1,5.5c3.1,0,5.1-2.1,5.1-5.5v-14.1h7.6v14.1
			H1731z M1764.4,526.9c0,7.6-5.5,13.8-12.3,13.8c-3.7,0-6.5-1.4-8.5-4.2v3.7h-7.6v-37.5h7.6v14.9c1.8-2.8,4.8-4.2,8.5-4.2
			C1758.9,513.2,1764.4,519.4,1764.4,526.9z M1756.9,526.9c0-3.7-3-6.5-6.6-6.5s-6.6,2.8-6.6,6.5c0,3.7,2.8,6.5,6.6,6.5
			C1754.1,533.5,1756.9,530.6,1756.9,526.9z"/>
	</g>
	<g>
		<path class="st0" d="M586.1,734.5c7.8,1.8,17.8,4.9,17.7,15.7c0,4.9-1.9,8.8-5.7,11.5c-3.7,2.8-8.4,4.1-14.1,4.1
			c-10,0-17.3-4.4-20.6-11.8l9.4-5.5c1.8,4.9,5.5,7.3,11.2,7.3c5.8,0,8.6-1.9,8.6-5.7c0-3.2-4.2-5.2-9.6-6.5
			c-7.6-1.9-17.8-4.9-17.5-15.6c0-4.7,1.8-8.4,5.2-11.2c3.6-2.8,7.9-4.2,13.3-4.2c8.4,0,15.2,3.9,18.6,10.5l-9.2,5.2
			c-1.8-3.9-4.9-5.8-9.6-5.8c-4.1,0-7.5,1.8-7.5,5.3C576.7,731.1,580.9,732.9,586.1,734.5z M653.9,734.6v31.1H643v-30
			c0-7.6-4.4-11.7-11.3-11.7c-7.6,0-12.8,4.7-12.8,14.6v27.1H608v-70.7h10.9v26.7c3.4-5.2,8.4-7.8,15.7-7.8
			C646.1,713.9,653.9,721.8,653.9,734.6z M692.7,693.6c0,2.3-1,4.5-2.6,6.2s-3.9,2.6-6.2,2.6c-2.3,0-4.5-1-6.2-2.6s-2.6-3.9-2.6-6.2
			C675.4,693.6,692.7,693.6,692.7,693.6z M669.4,743.7c1.6,7.6,7.8,11.8,16.2,11.8c5.8,0,10-2.1,13-6.3l8.9,5.2
			c-4.9,7.5-12.3,11-22.2,11c-8.1,0-14.9-2.6-19.9-7.5c-5-5-7.6-11.5-7.6-19.1c0-7.6,2.6-13.8,7.5-19c4.9-5.2,11.5-7.6,19.3-7.6
			c7.5,0,13.5,2.6,18.2,7.8c4.7,5.2,7.1,11.5,7.1,19c0,1.6-0.2,3.1-0.3,4.5L669.4,743.7L669.4,743.7z M699.1,734.8
			c-1.5-8.1-7.3-12.5-14.4-12.5c-8.1,0-13.8,4.7-15.2,12.5H699.1z M744.6,704.2c-7.9-0.6-11.8,2.6-11.8,10v1h11.8v10.5h-11.8v40
			h-10.9v-40h-7.8v-10.5h7.6v-1c0-13.8,7.9-21.4,22.9-20.4V704.2z"/>
	</g>
	<g>
		<path class="st0" d="M467,339.2l34.6,34.5C484,370.7,470,356.8,467,339.2z M466.4,330.3l44.5,44.3c2.6-0.1,5.3-0.5,7.8-1.1
			l-51.1-50.8C467,325.2,466.6,327.7,466.4,330.3z M469.8,316l55.6,55.3c2-0.8,4-1.9,5.7-3l-58.3-58
			C471.8,312.1,470.7,314.1,469.8,316z M476.7,304.7c7.8-9,19.2-14.7,32-14.7c23.4,0,42.4,18.8,42.4,42.1c0,12.8-5.7,24.2-14.7,32
			L476.7,304.7z M582.8,356.9h29.6v-7.2h-21v-40.3h-8.7v47.5H582.8z M619.5,356.9h8.4v-35.7h-8.4V356.9z M623.8,316.2
			c2.7,0,4.9-2,4.9-4.6s-2.2-4.6-4.9-4.6s-4.9,2-4.9,4.6S621,316.2,623.8,316.2z M645,336.1c0-5.2,3.1-8.2,7.6-8.2
			c4.4,0,6.9,2.9,6.9,7.6v21.4h8.4v-22.7c0-8.6-4.9-13.5-12.3-13.5c-5.3,0-9,2.6-10.6,6.5h-0.4v-6h-8v35.7h8.4v-20.8H645L645,336.1z
			 M692.3,357.7c8.3,0,14-4.1,15.5-10.2l-7.9-0.8c-1.1,3-4,4.6-7.6,4.6c-5.4,0-9.1-3.5-9.1-9.7h24.9v-2.6c0-12.5-7.5-18-16.2-18
			c-10.2,0-16.9,7.5-16.9,18.5C674.8,350.5,681.5,357.7,692.3,357.7z M683.3,335.8c0.3-4.6,3.7-8.4,8.6-8.4c4.9,0,8,3.5,8.2,8.4
			H683.3z M725.5,357.7c5.6,0,9-2.6,10.5-5.6h0.3v4.9h8v-24c0-9.4-7.8-12.3-14.6-12.3c-7.5,0-13.2,3.4-15.1,9.9l7.9,1.1
			c0.8-2.5,3.3-4.6,7.4-4.6c4,0,6,2,6,5.4v0.1c0,2.5-2.6,2.6-8.9,3.3c-6.9,0.7-13.6,2.9-13.6,10.8
			C713.5,353.9,718.7,357.7,725.5,357.7z M727.7,351.4c-3.5,0-6-1.6-6-4.8c0-3.3,2.9-4.6,6.5-5.2c2.2-0.3,6.5-0.8,7.8-1.8v4.2
			C736,348,732.7,351.4,727.7,351.4z M752.8,356.9h8.4v-21c0-4.6,3.4-7.8,8-7.8c1.4,0,3.1,0.3,4,0.4v-7.8c-0.7-0.1-2-0.3-3-0.3
			c-4.1,0-7.5,2.3-8.9,6.4h-0.4v-5.9h-8.2L752.8,356.9L752.8,356.9z"/>
	</g>
	<g>
		<path class="st2" d="M962.7,193.5l-6.7-23.3h-8.9l-6.7,23.3l-5.5-20.7c-2,2.4-4.4,4.2-7.4,5.2c-0.3,0-0.5,0.1-0.8,0.3l7.9,24.8
			h10.4l6.6-21.1l6.5,21.1h10.4l10.6-33h-10.1L962.7,193.5z"/>
		<path class="st2" d="M932.3,170.5c1.6-2.2,2.4-4.6,2.4-7.1c0-2.8-0.9-5.2-3-7.1c-2-2-4.4-3.1-7.4-3.1c-2.8,0-5.2,0.7-7.1,2.2
			c-2,1.5-3,3.2-3,5.1c0,1.2,0.4,2.4,1.2,3.4c0.7,0.7,1.7,1.6,3.8,1.6c1.3,0,2.6-0.4,3.5-1.3c0.9-0.9,1.5-1.9,1.5-3.1
			c0-0.9-0.4-1.9-1.1-2.8c-0.4-0.5-0.4-0.7-0.4-0.7c0.1,0,0.5-0.1,1.5-0.1c1.5,0,2.7,0.4,3.6,1.3c0.9,0.9,1.5,2.2,1.5,3.6
			c0,2.7-1.1,4.6-3.5,5.9s-6.6,2.2-12.4,2.2c-7.1,0-11.8,1.2-14.7,3.8c-2.8,2.6-4.2,5.4-4.2,8.5c0,2.3,0.9,4.2,2.6,5.7
			c1.7,1.6,3.8,2.3,6.1,2.3c2,0,3.6-0.7,5-1.7c1.3-1.2,2-2.7,2-4.4c0-1.3-0.5-2.4-1.3-3.2c-0.9-0.8-2-1.2-3.1-1.2
			c-1.3,0-2.4,0.5-3.2,1.3c-0.8,0.9-1.2,2-1.2,3.2c0,0.1,0,0.4,0,0.7v0.4v0.1c0,0,0,0-0.1,0c-0.4,0-0.9-0.3-1.5-0.8
			c-0.5-0.7-0.9-1.3-0.9-2.4c0-1.7,0.9-3.1,2.7-4.3c2-1.2,4.2-1.9,6.7-1.9c3.1,0,5.5,0.8,7.3,2.4c1.7,1.6,2.7,3.4,2.7,5.5
			c0,3.4-1.9,6.1-5.5,8.6c-3.9,2.4-8.6,3.8-14,3.8c-5.7,0-10.5-1.6-14.3-4.7c-3.8-3.1-5.7-6.5-5.7-10c0-1.6,0.5-3.1,1.7-4.3
			c1.1-1.2,2.3-1.7,3.5-1.7c0.9,0,1.9,0.4,2.8,1.2c1.5,1.2,2.7,1.7,3.8,1.7c1.3,0,2.2-0.7,2.6-1.1c0.5-0.7,0.8-1.3,0.8-2
			c0-1.5-0.8-3.9-6.5-3.9c-0.3,0-0.3,0-0.3,0s-0.3-0.3-0.7-1.2c-0.3-0.7-0.4-1.6-0.4-2.7c0-2.4,0.9-4.4,3.1-6.3
			c2.2-1.9,4.4-2.8,6.7-2.8c1.5,0,2.6,0.3,3.5,1.1c0.9,0.7,1.3,1.3,1.3,2.4c0,0.7-0.1,1.5-0.5,2.3c-0.4,0.9-0.5,1.2-0.5,1.6
			c0,1.1,0.8,1.9,2,1.9c1.3,0,2.6-0.8,3.6-2.3c0.9-1.3,1.5-2.8,1.5-4.4c0-2.2-0.9-4-3-5.7c-2-1.5-4.4-2.3-7.3-2.3
			c-2.6,0-5,0.7-7.3,1.9c-2.3,1.2-4.2,2.8-5.7,4.8c-1.5,2-2.3,4.3-2.3,6.7c0,1.6,0.4,3.4,1.1,5.2c-3.4,0.7-5.9,2-7.8,4
			c-2.2,2.4-3.2,5.2-3.2,8.7c0,2.8,0.7,5.4,2,7.8c1.3,2.4,3.4,4.4,5.7,6.1c2.4,1.6,4.8,2.8,7.4,3.8c2.6,0.8,6.1,1.2,10.2,1.2
			c5.1,0,9.4-0.7,13.1-2.2s6.7-3.6,9.3-6.6c2.6-3.1,3.9-6.2,3.9-9.6c0-3.4-1.3-6.5-3.9-8.9c2.8-0.3,5-0.7,6.7-1.2
			C928.6,174.2,930.6,172.7,932.3,170.5z M894.2,106h9.1v6.9h6.6v7.1h-6.6v12.6c0,5,1.6,5.9,5.2,5.9c0.5,0,0.9,0,1.7,0v7.4
			c0,0-1.5,0.3-4,0.3c-8.5,0-12.2-4.4-12.2-13.3v-13.1h-3.8v-7.1h3.8L894.2,106L894.2,106z M933.7,121.6c-7,0-9.6,4-9.6,10.6v13.5
			h-9.4v-32.8h9.1v5.7c1.6-3.2,5.1-5.7,9.8-5.7V121.6L933.7,121.6z M938.6,131.8v-19h9.4v19.9c0,3.6,2.7,5.9,5.9,5.9
			c3.9,0,6.3-2.7,6.3-6.2v-19.6h9.4v33h-9.1V142c-1.5,2.3-4.8,4.7-9.4,4.7C940.9,146.6,938.6,138.8,938.6,131.8z M974.5,140.4
			l5.4-4.6c1.7,1.9,4.2,3.6,8.2,3.6c2.7,0,4.3-1.1,4.3-3c0-5-16.7-3.1-16.7-14.8c0-6.1,5.7-9.7,12.8-9.7c6.7,0,10.4,3.2,12.1,5.9
			l-6.2,4.2c-1.1-1.2-3.1-3.1-6.5-3.1c-2.2,0-3.6,0.9-3.6,2.7c0,5.2,16.8,2.7,16.8,14.5c0,6.5-5.9,10.5-13.6,10.5
			C980.8,146.6,976.5,143.2,974.5,140.4z"/>
		<path class="st2" d="M1009.1,106h9.1v6.9h6.6v7.1h-6.6v12.6c0,5,1.6,5.9,5.2,5.9c0.5,0,0.9,0,1.7,0v7.4c0,0-1.5,0.3-4,0.3
			c-8.5,0-12.2-4.4-12.2-13.3v-13.1h-3.8v-7.1h3.8L1009.1,106L1009.1,106z M987.7,157.6c-3.1,0-5.4,2.2-5.4,5c0,2.8,2.4,5,5.4,5
			c3.1,0,5.4-2.2,5.4-5C993.2,159.8,990.8,157.6,987.7,157.6z"/>
		<path class="st2" d="M983.1,203.2h9.4v-33h-9.4V203.2z M999.5,203.2h9.4v-45.5h-9.4V203.2z M1015.8,203.2h9.4v-45.5h-9.4V203.2
			L1015.8,203.2z"/>
	</g>
	<path class="st0" d="M901,944.5l-6.3-1.4c-4.2-1.1-4.2-4-4.2-4c0-4.5,4.3-4.5,4.3-4.5c2.3,0,4.3,2.2,4.3,4.5h18.4
		c-0.5-10.1-8.7-15.7-23.1-15.7c-8.8,0-15.5,2-19.9,6c-2.7,2.5-4.2,5.8-4.2,9.6c0,7.2,4.2,12.1,12.8,14.1l10.8,2.5l0,0
		c2,0.5,4.2,0.9,4.3,3.1c0,6-8.5,6-8.7,0h-20c0,10.5,8.3,16.4,23.5,16.4c8.7,0,15.2-2,19.5-6c2.7-2.5,4.2-5.8,4.2-9.9
		C917,951.5,912.3,947,901,944.5z M945.2,949.9v9.6c0,1.6-1.3,3.1-2.9,3.1c-1.6,0-2.9-1.4-2.9-3.1v-19.7h17.3v-14.3h-17.3v-10.8
		l-17.9,7.8v34.1c0,11.4,7.2,18,20,18c12.6,0,21.3-7.2,21.3-18v-6.7L945.2,949.9L945.2,949.9z M990.7,974.6v-48.2h-24.2v14.4h4.9
		v33.7H990.7L990.7,974.6z M991.7,915.3c0.2,2.7-1.8,4.5-4,5.4c-2.3,1.1-4.7,1.3-6.7,1.3c-2,0-4.3-0.4-6.7-1.3
		c-2.3-0.9-4.2-2.9-4-5.4c-0.2-2.7,1.8-4.5,4-5.4c2.3-1.1,4.7-1.3,6.7-1.3c2,0,4.3,0.4,6.7,1.3C990.1,910.8,991.9,912.6,991.7,915.3
		z M1030.7,945c0.5,0,2.3,0,3.6,0.4v-19.1c-1.1-0.2-2.2-0.4-3.2-0.4c-2.7,0-4.9,0.5-6.5,1.4c-5.8,3.2-7,6.3-8.1,15.3v0.4h-2.2v-16.2
		h-18.6V975h19.1v-15C1014.8,950.5,1020.8,945,1030.7,945z"/>
	<g>
		<g>
			<path class="st0" d="M232.4,546.8c7.2,0,11.7-3.7,11.7-9.6l0,0c0-4.5-2.7-7.1-9-8.5l-3.2-0.7c-3.8-0.8-5.2-2.1-5.2-4.2l0,0
				c0-2.5,2.4-4.1,5.8-4.1c3.4,0,5.6,1.7,6.1,3.9v0.3h5.2v-0.3c-0.4-4.8-4.5-8.5-11.3-8.5c-6.5,0-11.1,3.7-11.1,9l0,0
				c0,4.5,2.7,7.3,8.9,8.6l3.2,0.7c3.9,0.8,5.5,2.1,5.5,4.4l0,0c0,2.5-2.5,4.4-6.2,4.4c-3.8,0-6.5-1.7-6.8-4.2v-0.1h-5.2v0.3
				C221,543.3,225.3,546.8,232.4,546.8z M268.3,546.8c6.9,0,12-4.1,12.7-10v-0.1h-5.2v0.1c-0.7,3.4-3.7,5.5-7.5,5.5
				c-5.1,0-8.3-4.2-8.3-11.1l0,0c0-6.9,3.2-11.1,8.3-11.1c3.8,0,6.6,2.4,7.5,5.9v0.1h5.2v-0.1c-0.7-6.2-5.9-10.6-12.8-10.6
				c-8.6,0-13.8,6.1-13.8,15.8l0,0C254.5,540.7,259.7,546.8,268.3,546.8z M292.6,545.9h5.4v-11.3h5.9l5.9,11.3h6.2l-6.6-12.1
				c3.5-1.3,5.6-4.7,5.6-8.6l0,0c0-5.8-3.9-9.3-10.3-9.3h-12.1V545.9z M298.1,530.6v-10.3h6.1c3.4,0,5.5,2,5.5,5.1l0,0
				c0,3.2-2,5.1-5.4,5.1h-6.2V530.6z M325,545.9h5.6l2.5-7.8h11.1l2.5,7.8h5.6l-10.7-30.2h-6.1L325,545.9z M338.6,521.4h0.4
				l4.1,12.5h-8.5L338.6,521.4z M367.5,545.9h5.4v-25.7h9.3v-4.5h-24v4.5h9.3L367.5,545.9L367.5,545.9z M404.8,546.8
				c6.9,0,12-4.1,12.7-10v-0.1h-5.2v0.1c-0.7,3.4-3.7,5.5-7.5,5.5c-5.1,0-8.3-4.2-8.3-11.1l0,0c0-6.9,3.2-11.1,8.3-11.1
				c3.8,0,6.6,2.4,7.5,5.9v0.1h5.2v-0.1c-0.7-6.2-5.9-10.6-12.8-10.6c-8.6,0-13.8,6.1-13.8,15.8l0,0
				C390.9,540.7,396.2,546.8,404.8,546.8z M429.1,545.9h5.4v-13h14.7v13.1h5.4v-30.2h-5.4v12.5h-14.7v-12.5h-5.4V545.9z
				 M467.6,545.9h5.4v-10h6.6c6.1,0,10.3-4.1,10.3-10l0,0c0-6.1-4.1-10-10.3-10h-12V545.9z M478.3,520.3c3.8,0,6.1,2.1,6.1,5.6l0,0
				c0,3.7-2.3,5.6-6.1,5.6h-5.4v-11.3H478.3z M497.2,545.9h5.6l2.5-7.8h11.1l2.5,7.8h5.6L514,515.8h-6.1L497.2,545.9z M510.7,521.4
				h0.4l4.1,12.5h-8.5L510.7,521.4z M535.4,545.9h11.3c9,0,14.2-5.5,14.2-15.2l0,0c0-9.4-5.2-14.9-14.2-14.9h-11.3V545.9z
				 M540.8,541.4v-21.2h5.2c5.9,0,9.4,3.8,9.4,10.4l0,0c0,6.8-3.4,10.6-9.4,10.6h-5.2V541.4z"/>
			<g>
				<path class="st0" d="M186.8,541.4h-26.6c-0.8,0-1.6-0.7-1.6-1.6c0-0.8,0.7-1.6,1.6-1.6h26.6c0.8,0,1.6,0.7,1.6,1.6
					C188.5,540.6,187.8,541.4,186.8,541.4z M186.6,530h-26.6c-0.8,0-1.6-0.7-1.6-1.6s0.7-1.6,1.6-1.6h26.6c0.8,0,1.6,0.7,1.6,1.6
					S187.4,530,186.6,530z M186.8,519.3h-26.6c-0.8,0-1.6-0.7-1.6-1.6c0-0.8,0.7-1.6,1.6-1.6h26.6c0.8,0,1.6,0.7,1.6,1.6
					C188.4,518.6,187.8,519.3,186.8,519.3z"/>
			</g>
			<g>
				<path class="st0" d="M194.2,553.1h-42c-2.1,0-3.8-1.7-3.8-3.8v-42c0-2.1,1.7-3.8,3.8-3.8h42c2.1,0,3.8,1.7,3.8,3.8v42
					C198,551.4,196.3,553.1,194.2,553.1z M152.3,506.9c-0.3,0-0.6,0.3-0.6,0.6v42c0,0.3,0.3,0.6,0.6,0.6h42c0.3,0,0.6-0.3,0.6-0.6
					v-42c0-0.3-0.3-0.6-0.6-0.6H152.3z"/>
			</g>
			<g>
				<path class="st0" d="M184.4,561.2h-42c-2.1,0-3.8-1.7-3.8-3.8v-41.9c0-2.1,1.7-3.8,3.8-3.8h9v3.2h-9c-0.3,0-0.6,0.3-0.6,0.6
					v41.9c0,0.3,0.3,0.6,0.6,0.6h42c0.3,0,0.6-0.3,0.6-0.6v-5.8h3.2v5.8C188.1,559.5,186.4,561.2,184.4,561.2z"/>
			</g>
		</g>
		<g>
			<path class="st0" d="M232.4,546.8c7.2,0,11.7-3.7,11.7-9.6l0,0c0-4.5-2.7-7.1-9-8.5l-3.2-0.7c-3.8-0.8-5.2-2.1-5.2-4.2l0,0
				c0-2.5,2.4-4.1,5.8-4.1c3.4,0,5.6,1.7,6.1,3.9v0.3h5.2v-0.3c-0.4-4.8-4.5-8.5-11.3-8.5c-6.5,0-11.1,3.7-11.1,9l0,0
				c0,4.5,2.7,7.3,8.9,8.6l3.2,0.7c3.9,0.8,5.5,2.1,5.5,4.4l0,0c0,2.5-2.5,4.4-6.2,4.4c-3.8,0-6.5-1.7-6.8-4.2v-0.1h-5.2v0.3
				C221,543.3,225.3,546.8,232.4,546.8z M268.3,546.8c6.9,0,12-4.1,12.7-10v-0.1h-5.2v0.1c-0.7,3.4-3.7,5.5-7.5,5.5
				c-5.1,0-8.3-4.2-8.3-11.1l0,0c0-6.9,3.2-11.1,8.3-11.1c3.8,0,6.6,2.4,7.5,5.9v0.1h5.2v-0.1c-0.7-6.2-5.9-10.6-12.8-10.6
				c-8.6,0-13.8,6.1-13.8,15.8l0,0C254.5,540.7,259.7,546.8,268.3,546.8z M292.6,545.9h5.4v-11.3h5.9l5.9,11.3h6.2l-6.6-12.1
				c3.5-1.3,5.6-4.7,5.6-8.6l0,0c0-5.8-3.9-9.3-10.3-9.3h-12.1V545.9z M298.1,530.6v-10.3h6.1c3.4,0,5.5,2,5.5,5.1l0,0
				c0,3.2-2,5.1-5.4,5.1h-6.2V530.6z M325,545.9h5.6l2.5-7.8h11.1l2.5,7.8h5.6l-10.7-30.2h-6.1L325,545.9z M338.6,521.4h0.4
				l4.1,12.5h-8.5L338.6,521.4z M367.5,545.9h5.4v-25.7h9.3v-4.5h-24v4.5h9.3L367.5,545.9L367.5,545.9z M404.8,546.8
				c6.9,0,12-4.1,12.7-10v-0.1h-5.2v0.1c-0.7,3.4-3.7,5.5-7.5,5.5c-5.1,0-8.3-4.2-8.3-11.1l0,0c0-6.9,3.2-11.1,8.3-11.1
				c3.8,0,6.6,2.4,7.5,5.9v0.1h5.2v-0.1c-0.7-6.2-5.9-10.6-12.8-10.6c-8.6,0-13.8,6.1-13.8,15.8l0,0
				C390.9,540.7,396.2,546.8,404.8,546.8z M429.1,545.9h5.4v-13h14.7v13.1h5.4v-30.2h-5.4v12.5h-14.7v-12.5h-5.4V545.9z
				 M467.6,545.9h5.4v-10h6.6c6.1,0,10.3-4.1,10.3-10l0,0c0-6.1-4.1-10-10.3-10h-12V545.9z M478.3,520.3c3.8,0,6.1,2.1,6.1,5.6l0,0
				c0,3.7-2.3,5.6-6.1,5.6h-5.4v-11.3H478.3z M497.2,545.9h5.6l2.5-7.8h11.1l2.5,7.8h5.6L514,515.8h-6.1L497.2,545.9z M510.7,521.4
				h0.4l4.1,12.5h-8.5L510.7,521.4z M535.4,545.9h11.3c9,0,14.2-5.5,14.2-15.2l0,0c0-9.4-5.2-14.9-14.2-14.9h-11.3V545.9z
				 M540.8,541.4v-21.2h5.2c5.9,0,9.4,3.8,9.4,10.4l0,0c0,6.8-3.4,10.6-9.4,10.6h-5.2V541.4z"/>
			<g>
				<path class="st0" d="M186.8,541.4h-26.6c-0.8,0-1.6-0.7-1.6-1.6c0-0.8,0.7-1.6,1.6-1.6h26.6c0.8,0,1.6,0.7,1.6,1.6
					C188.5,540.6,187.8,541.4,186.8,541.4z M186.6,530h-26.6c-0.8,0-1.6-0.7-1.6-1.6s0.7-1.6,1.6-1.6h26.6c0.8,0,1.6,0.7,1.6,1.6
					S187.4,530,186.6,530z M186.8,519.3h-26.6c-0.8,0-1.6-0.7-1.6-1.6c0-0.8,0.7-1.6,1.6-1.6h26.6c0.8,0,1.6,0.7,1.6,1.6
					C188.4,518.6,187.8,519.3,186.8,519.3z"/>
			</g>
			<g>
				<path class="st0" d="M194.2,553.1h-42c-2.1,0-3.8-1.7-3.8-3.8v-42c0-2.1,1.7-3.8,3.8-3.8h42c2.1,0,3.8,1.7,3.8,3.8v42
					C198,551.4,196.3,553.1,194.2,553.1z M152.3,506.9c-0.3,0-0.6,0.3-0.6,0.6v42c0,0.3,0.3,0.6,0.6,0.6h42c0.3,0,0.6-0.3,0.6-0.6
					v-42c0-0.3-0.3-0.6-0.6-0.6H152.3z"/>
			</g>
			<g>
				<path class="st0" d="M184.4,561.2h-42c-2.1,0-3.8-1.7-3.8-3.8v-41.9c0-2.1,1.7-3.8,3.8-3.8h9v3.2h-9c-0.3,0-0.6,0.3-0.6,0.6
					v41.9c0,0.3,0.3,0.6,0.6,0.6h42c0.3,0,0.6-0.3,0.6-0.6v-5.8h3.2v5.8C188.1,559.5,186.4,561.2,184.4,561.2z"/>
			</g>
		</g>
		<g>
			<path class="st0" d="M232.4,546.8c7.2,0,11.7-3.7,11.7-9.6l0,0c0-4.5-2.7-7.1-9-8.5l-3.2-0.7c-3.8-0.8-5.2-2.1-5.2-4.2l0,0
				c0-2.5,2.4-4.1,5.8-4.1c3.4,0,5.6,1.7,6.1,3.9v0.3h5.2v-0.3c-0.4-4.8-4.5-8.5-11.3-8.5c-6.5,0-11.1,3.7-11.1,9l0,0
				c0,4.5,2.7,7.3,8.9,8.6l3.2,0.7c3.9,0.8,5.5,2.1,5.5,4.4l0,0c0,2.5-2.5,4.4-6.2,4.4c-3.8,0-6.5-1.7-6.8-4.2v-0.1h-5.2v0.3
				C221,543.3,225.3,546.8,232.4,546.8z M268.3,546.8c6.9,0,12-4.1,12.7-10v-0.1h-5.2v0.1c-0.7,3.4-3.7,5.5-7.5,5.5
				c-5.1,0-8.3-4.2-8.3-11.1l0,0c0-6.9,3.2-11.1,8.3-11.1c3.8,0,6.6,2.4,7.5,5.9v0.1h5.2v-0.1c-0.7-6.2-5.9-10.6-12.8-10.6
				c-8.6,0-13.8,6.1-13.8,15.8l0,0C254.5,540.7,259.7,546.8,268.3,546.8z M292.6,545.9h5.4v-11.3h5.9l5.9,11.3h6.2l-6.6-12.1
				c3.5-1.3,5.6-4.7,5.6-8.6l0,0c0-5.8-3.9-9.3-10.3-9.3h-12.1V545.9z M298.1,530.6v-10.3h6.1c3.4,0,5.5,2,5.5,5.1l0,0
				c0,3.2-2,5.1-5.4,5.1h-6.2V530.6z M325,545.9h5.6l2.5-7.8h11.1l2.5,7.8h5.6l-10.7-30.2h-6.1L325,545.9z M338.6,521.4h0.4
				l4.1,12.5h-8.5L338.6,521.4z M367.5,545.9h5.4v-25.7h9.3v-4.5h-24v4.5h9.3L367.5,545.9L367.5,545.9z M404.8,546.8
				c6.9,0,12-4.1,12.7-10v-0.1h-5.2v0.1c-0.7,3.4-3.7,5.5-7.5,5.5c-5.1,0-8.3-4.2-8.3-11.1l0,0c0-6.9,3.2-11.1,8.3-11.1
				c3.8,0,6.6,2.4,7.5,5.9v0.1h5.2v-0.1c-0.7-6.2-5.9-10.6-12.8-10.6c-8.6,0-13.8,6.1-13.8,15.8l0,0
				C390.9,540.7,396.2,546.8,404.8,546.8z M429.1,545.9h5.4v-13h14.7v13.1h5.4v-30.2h-5.4v12.5h-14.7v-12.5h-5.4V545.9z
				 M467.6,545.9h5.4v-10h6.6c6.1,0,10.3-4.1,10.3-10l0,0c0-6.1-4.1-10-10.3-10h-12V545.9z M478.3,520.3c3.8,0,6.1,2.1,6.1,5.6l0,0
				c0,3.7-2.3,5.6-6.1,5.6h-5.4v-11.3H478.3z M497.2,545.9h5.6l2.5-7.8h11.1l2.5,7.8h5.6L514,515.8h-6.1L497.2,545.9z M510.7,521.4
				h0.4l4.1,12.5h-8.5L510.7,521.4z M535.4,545.9h11.3c9,0,14.2-5.5,14.2-15.2l0,0c0-9.4-5.2-14.9-14.2-14.9h-11.3V545.9z
				 M540.8,541.4v-21.2h5.2c5.9,0,9.4,3.8,9.4,10.4l0,0c0,6.8-3.4,10.6-9.4,10.6h-5.2V541.4z"/>
			<g>
				<path class="st0" d="M186.8,541.4h-26.6c-0.8,0-1.6-0.7-1.6-1.6c0-0.8,0.7-1.6,1.6-1.6h26.6c0.8,0,1.6,0.7,1.6,1.6
					C188.5,540.6,187.8,541.4,186.8,541.4z M186.6,530h-26.6c-0.8,0-1.6-0.7-1.6-1.6s0.7-1.6,1.6-1.6h26.6c0.8,0,1.6,0.7,1.6,1.6
					S187.4,530,186.6,530z M186.8,519.3h-26.6c-0.8,0-1.6-0.7-1.6-1.6c0-0.8,0.7-1.6,1.6-1.6h26.6c0.8,0,1.6,0.7,1.6,1.6
					C188.4,518.6,187.8,519.3,186.8,519.3z"/>
			</g>
			<g>
				<path class="st0" d="M194.2,553.1h-42c-2.1,0-3.8-1.7-3.8-3.8v-42c0-2.1,1.7-3.8,3.8-3.8h42c2.1,0,3.8,1.7,3.8,3.8v42
					C198,551.4,196.3,553.1,194.2,553.1z M152.3,506.9c-0.3,0-0.6,0.3-0.6,0.6v42c0,0.3,0.3,0.6,0.6,0.6h42c0.3,0,0.6-0.3,0.6-0.6
					v-42c0-0.3-0.3-0.6-0.6-0.6H152.3z"/>
			</g>
			<g>
				<path class="st0" d="M184.4,561.2h-42c-2.1,0-3.8-1.7-3.8-3.8v-41.9c0-2.1,1.7-3.8,3.8-3.8h9v3.2h-9c-0.3,0-0.6,0.3-0.6,0.6
					v41.9c0,0.3,0.3,0.6,0.6,0.6h42c0.3,0,0.6-0.3,0.6-0.6v-5.8h3.2v5.8C188.1,559.5,186.4,561.2,184.4,561.2z"/>
			</g>
		</g>
		<g>
			<path class="st0" d="M232.4,546.8c7.2,0,11.7-3.7,11.7-9.6l0,0c0-4.5-2.7-7.1-9-8.5l-3.2-0.7c-3.8-0.8-5.2-2.1-5.2-4.2l0,0
				c0-2.5,2.4-4.1,5.8-4.1c3.4,0,5.6,1.7,6.1,3.9v0.3h5.2v-0.3c-0.4-4.8-4.5-8.5-11.3-8.5c-6.5,0-11.1,3.7-11.1,9l0,0
				c0,4.5,2.7,7.3,8.9,8.6l3.2,0.7c3.9,0.8,5.5,2.1,5.5,4.4l0,0c0,2.5-2.5,4.4-6.2,4.4c-3.8,0-6.5-1.7-6.8-4.2v-0.1h-5.2v0.3
				C221,543.3,225.3,546.8,232.4,546.8z M268.3,546.8c6.9,0,12-4.1,12.7-10v-0.1h-5.2v0.1c-0.7,3.4-3.7,5.5-7.5,5.5
				c-5.1,0-8.3-4.2-8.3-11.1l0,0c0-6.9,3.2-11.1,8.3-11.1c3.8,0,6.6,2.4,7.5,5.9v0.1h5.2v-0.1c-0.7-6.2-5.9-10.6-12.8-10.6
				c-8.6,0-13.8,6.1-13.8,15.8l0,0C254.5,540.7,259.7,546.8,268.3,546.8z M292.6,545.9h5.4v-11.3h5.9l5.9,11.3h6.2l-6.6-12.1
				c3.5-1.3,5.6-4.7,5.6-8.6l0,0c0-5.8-3.9-9.3-10.3-9.3h-12.1V545.9z M298.1,530.6v-10.3h6.1c3.4,0,5.5,2,5.5,5.1l0,0
				c0,3.2-2,5.1-5.4,5.1h-6.2V530.6z M325,545.9h5.6l2.5-7.8h11.1l2.5,7.8h5.6l-10.7-30.2h-6.1L325,545.9z M338.6,521.4h0.4
				l4.1,12.5h-8.5L338.6,521.4z M367.5,545.9h5.4v-25.7h9.3v-4.5h-24v4.5h9.3L367.5,545.9L367.5,545.9z M404.8,546.8
				c6.9,0,12-4.1,12.7-10v-0.1h-5.2v0.1c-0.7,3.4-3.7,5.5-7.5,5.5c-5.1,0-8.3-4.2-8.3-11.1l0,0c0-6.9,3.2-11.1,8.3-11.1
				c3.8,0,6.6,2.4,7.5,5.9v0.1h5.2v-0.1c-0.7-6.2-5.9-10.6-12.8-10.6c-8.6,0-13.8,6.1-13.8,15.8l0,0
				C390.9,540.7,396.2,546.8,404.8,546.8z M429.1,545.9h5.4v-13h14.7v13.1h5.4v-30.2h-5.4v12.5h-14.7v-12.5h-5.4V545.9z
				 M467.6,545.9h5.4v-10h6.6c6.1,0,10.3-4.1,10.3-10l0,0c0-6.1-4.1-10-10.3-10h-12V545.9z M478.3,520.3c3.8,0,6.1,2.1,6.1,5.6l0,0
				c0,3.7-2.3,5.6-6.1,5.6h-5.4v-11.3H478.3z M497.2,545.9h5.6l2.5-7.8h11.1l2.5,7.8h5.6L514,515.8h-6.1L497.2,545.9z M510.7,521.4
				h0.4l4.1,12.5h-8.5L510.7,521.4z M535.4,545.9h11.3c9,0,14.2-5.5,14.2-15.2l0,0c0-9.4-5.2-14.9-14.2-14.9h-11.3V545.9z
				 M540.8,541.4v-21.2h5.2c5.9,0,9.4,3.8,9.4,10.4l0,0c0,6.8-3.4,10.6-9.4,10.6h-5.2V541.4z"/>
			<g>
				<path class="st0" d="M186.8,541.4h-26.6c-0.8,0-1.6-0.7-1.6-1.6c0-0.8,0.7-1.6,1.6-1.6h26.6c0.8,0,1.6,0.7,1.6,1.6
					C188.5,540.6,187.8,541.4,186.8,541.4z M186.6,530h-26.6c-0.8,0-1.6-0.7-1.6-1.6s0.7-1.6,1.6-1.6h26.6c0.8,0,1.6,0.7,1.6,1.6
					S187.4,530,186.6,530z M186.8,519.3h-26.6c-0.8,0-1.6-0.7-1.6-1.6c0-0.8,0.7-1.6,1.6-1.6h26.6c0.8,0,1.6,0.7,1.6,1.6
					C188.4,518.6,187.8,519.3,186.8,519.3z"/>
			</g>
			<g>
				<path class="st0" d="M194.2,553.1h-42c-2.1,0-3.8-1.7-3.8-3.8v-42c0-2.1,1.7-3.8,3.8-3.8h42c2.1,0,3.8,1.7,3.8,3.8v42
					C198,551.4,196.3,553.1,194.2,553.1z M152.3,506.9c-0.3,0-0.6,0.3-0.6,0.6v42c0,0.3,0.3,0.6,0.6,0.6h42c0.3,0,0.6-0.3,0.6-0.6
					v-42c0-0.3-0.3-0.6-0.6-0.6H152.3z"/>
			</g>
			<g>
				<path class="st0" d="M184.4,561.2h-42c-2.1,0-3.8-1.7-3.8-3.8v-41.9c0-2.1,1.7-3.8,3.8-3.8h9v3.2h-9c-0.3,0-0.6,0.3-0.6,0.6
					v41.9c0,0.3,0.3,0.6,0.6,0.6h42c0.3,0,0.6-0.3,0.6-0.6v-5.8h3.2v5.8C188.1,559.5,186.4,561.2,184.4,561.2z"/>
			</g>
		</g>
		<g>
			<path class="st0" d="M232.4,546.8c7.2,0,11.7-3.7,11.7-9.6l0,0c0-4.5-2.7-7.1-9-8.5l-3.2-0.7c-3.8-0.8-5.2-2.1-5.2-4.2l0,0
				c0-2.5,2.4-4.1,5.8-4.1c3.4,0,5.6,1.7,6.1,3.9v0.3h5.2v-0.3c-0.4-4.8-4.5-8.5-11.3-8.5c-6.5,0-11.1,3.7-11.1,9l0,0
				c0,4.5,2.7,7.3,8.9,8.6l3.2,0.7c3.9,0.8,5.5,2.1,5.5,4.4l0,0c0,2.5-2.5,4.4-6.2,4.4c-3.8,0-6.5-1.7-6.8-4.2v-0.1h-5.2v0.3
				C221,543.3,225.3,546.8,232.4,546.8z M268.3,546.8c6.9,0,12-4.1,12.7-10v-0.1h-5.2v0.1c-0.7,3.4-3.7,5.5-7.5,5.5
				c-5.1,0-8.3-4.2-8.3-11.1l0,0c0-6.9,3.2-11.1,8.3-11.1c3.8,0,6.6,2.4,7.5,5.9v0.1h5.2v-0.1c-0.7-6.2-5.9-10.6-12.8-10.6
				c-8.6,0-13.8,6.1-13.8,15.8l0,0C254.5,540.7,259.7,546.8,268.3,546.8z M292.6,545.9h5.4v-11.3h5.9l5.9,11.3h6.2l-6.6-12.1
				c3.5-1.3,5.6-4.7,5.6-8.6l0,0c0-5.8-3.9-9.3-10.3-9.3h-12.1V545.9z M298.1,530.6v-10.3h6.1c3.4,0,5.5,2,5.5,5.1l0,0
				c0,3.2-2,5.1-5.4,5.1h-6.2V530.6z M325,545.9h5.6l2.5-7.8h11.1l2.5,7.8h5.6l-10.7-30.2h-6.1L325,545.9z M338.6,521.4h0.4
				l4.1,12.5h-8.5L338.6,521.4z M367.5,545.9h5.4v-25.7h9.3v-4.5h-24v4.5h9.3L367.5,545.9L367.5,545.9z M404.8,546.8
				c6.9,0,12-4.1,12.7-10v-0.1h-5.2v0.1c-0.7,3.4-3.7,5.5-7.5,5.5c-5.1,0-8.3-4.2-8.3-11.1l0,0c0-6.9,3.2-11.1,8.3-11.1
				c3.8,0,6.6,2.4,7.5,5.9v0.1h5.2v-0.1c-0.7-6.2-5.9-10.6-12.8-10.6c-8.6,0-13.8,6.1-13.8,15.8l0,0
				C390.9,540.7,396.2,546.8,404.8,546.8z M429.1,545.9h5.4v-13h14.7v13.1h5.4v-30.2h-5.4v12.5h-14.7v-12.5h-5.4V545.9z
				 M467.6,545.9h5.4v-10h6.6c6.1,0,10.3-4.1,10.3-10l0,0c0-6.1-4.1-10-10.3-10h-12V545.9z M478.3,520.3c3.8,0,6.1,2.1,6.1,5.6l0,0
				c0,3.7-2.3,5.6-6.1,5.6h-5.4v-11.3H478.3z M497.2,545.9h5.6l2.5-7.8h11.1l2.5,7.8h5.6L514,515.8h-6.1L497.2,545.9z M510.7,521.4
				h0.4l4.1,12.5h-8.5L510.7,521.4z M535.4,545.9h11.3c9,0,14.2-5.5,14.2-15.2l0,0c0-9.4-5.2-14.9-14.2-14.9h-11.3V545.9z
				 M540.8,541.4v-21.2h5.2c5.9,0,9.4,3.8,9.4,10.4l0,0c0,6.8-3.4,10.6-9.4,10.6h-5.2V541.4z"/>
			<g>
				<path class="st0" d="M186.8,541.4h-26.6c-0.8,0-1.6-0.7-1.6-1.6c0-0.8,0.7-1.6,1.6-1.6h26.6c0.8,0,1.6,0.7,1.6,1.6
					C188.5,540.6,187.8,541.4,186.8,541.4z M186.6,530h-26.6c-0.8,0-1.6-0.7-1.6-1.6s0.7-1.6,1.6-1.6h26.6c0.8,0,1.6,0.7,1.6,1.6
					S187.4,530,186.6,530z M186.8,519.3h-26.6c-0.8,0-1.6-0.7-1.6-1.6c0-0.8,0.7-1.6,1.6-1.6h26.6c0.8,0,1.6,0.7,1.6,1.6
					C188.4,518.6,187.8,519.3,186.8,519.3z"/>
			</g>
			<g>
				<path class="st0" d="M194.2,553.1h-42c-2.1,0-3.8-1.7-3.8-3.8v-42c0-2.1,1.7-3.8,3.8-3.8h42c2.1,0,3.8,1.7,3.8,3.8v42
					C198,551.4,196.3,553.1,194.2,553.1z M152.3,506.9c-0.3,0-0.6,0.3-0.6,0.6v42c0,0.3,0.3,0.6,0.6,0.6h42c0.3,0,0.6-0.3,0.6-0.6
					v-42c0-0.3-0.3-0.6-0.6-0.6H152.3z"/>
			</g>
			<g>
				<path class="st0" d="M184.4,561.2h-42c-2.1,0-3.8-1.7-3.8-3.8v-41.9c0-2.1,1.7-3.8,3.8-3.8h9v3.2h-9c-0.3,0-0.6,0.3-0.6,0.6
					v41.9c0,0.3,0.3,0.6,0.6,0.6h42c0.3,0,0.6-0.3,0.6-0.6v-5.8h3.2v5.8C188.1,559.5,186.4,561.2,184.4,561.2z"/>
			</g>
		</g>
	</g>
</g>
</svg>
