<svg width="61" height="24" viewBox="0 0 61 24" fill="none" xmlns="http://www.w3.org/2000/svg" role="presentation"><g clip-path="url(#fdic_clip0)"><path d="M6.5 24H0V0h13.3v6.2H6.5v3.9h6.4v6.2H6.5V24zm28-12C34.5 1.1 24.8.1 20.7.1h-6.5V24h6.5V6.3c4 0 7.4 1.4 7.4 5.7 0 4.2-3.4 5.7-7.4 5.7V24c5 0 13.8-1 13.8-11.9zm7.6-12h-6.4v24H42V0zm13.2 17.6a5.7 5.7 0 01-5.6-5.6c0-3.1 2.5-5.6 5.6-5.6 2.9 0 4.4 1.5 5.3 3.5V1.3S57.8 0 55.1 0c-6 0-12.4 5.5-12.4 12 0 8 6.2 12 12.4 12 2.7 0 5.5-1.3 5.5-1.3v-8.5c-1.1 2-2.4 3.4-5.3 3.4z" fill="currentColor"></path><path d="M55.4 15.4a3.4 3.4 0 100-6.8 3.4 3.4 0 000 6.8z" stroke="currentColor" stroke-width="0.204"></path><path d="M55.4 17a5 5 0 100-9.9 5 5 0 000 9.8z" stroke="currentColor" stroke-width="0.204"></path><mask id="a" fill="#fff"><path d="M54.3 9.2v.7h-.1v-.5H54v-.2h.2z"></path></mask><path d="M54.3 9.2v.7h-.1v-.5H54v-.2h.2z" fill="#036"></path><path d="M54.3 9.2h.8v-.8h-.8v.8zm0 .7v.8h.8v-.8h-.8zm-.1 0h-.9v.8h.9v-.8zm0-.5h.8v-.8h-.8v.8zm-.1 0l-.8-.3-.4 1H54v-.7zm0-.2v-.8h-.5l-.2.5.8.3zm-.6 0v.7H55v-.7h-1.6zm.8-.2h-.1v1.7h.1V9zm.7.9v-.5h-1.7v.5H55zm-.8-1.3H54v1.6-1.6zm.7 1l-1.5-.7v.2l1.5.6zm-.7.4h.1V8.4h-.1V10z" fill="currentColor" mask="url(#a)"></path><path d="M54.9 9.5h0s0 0 0 0v0z" fill="#036" stroke="currentColor" stroke-width="0.817"></path><mask id="b" fill="#fff"><path d="M55.6 9.9l-.2-.1h.2l.2-.1s0-.1-.2 0v-.2h.2c0-.1 0-.2-.2-.2l-.1.1.1-.2c.2 0 .3 0 .3.2v.3s-.1.2-.3.2z"></path></mask><path d="M55.6 9.9l-.2-.1h.2l.2-.1s0-.1-.2 0v-.2h.2c0-.1 0-.2-.2-.2l-.1.1.1-.2c.2 0 .3 0 .3.2v.3s-.1.2-.3.2z" fill="#036"></path><path d="M55.4 9.8l-.6-.6-.5.5.4.6.7-.5zm0 0L56 9l-.6-.3-.4.4.6.6zm.2-.2h-.8v1l.9-.2-.1-.8zm0-.1v-.8h-.8v.8h.8zm-.1-.1l-.6.6.6.6.6-.7-.6-.5zm0 0l-.8-.5-.3.5.4.5.6-.6zm.3.1l-.5-.6-1 .7 1.1.6.4-.7zm0 .2h-.7.8zm-.2-.6h.4l.1.2-1.3 1c.2.2.6.4 1 .4V9.1zm.4 1.3v-.1L55 9l-.1.1 1.2 1.2zm-1 0h.2l.4.2V9a.7.7 0 01.3 0l-.8 1.4zm.6.2l.5-.1c.2-.1.5-.4.5-.8h-1.7a.7.7 0 01.4-.7h.3v1.6zm1-1l-.4-.7a1 1 0 00-.7-.1l.2 1.6-.4-.1a.7.7 0 01-.4-.6h1.7zm-.2 0v-.1h-1.6v.1h1.6zm-.9.7l.7-.1c.3-.2.4-.6.4-.8h-1.7a.7.7 0 01.4-.6l.4-.1-.2 1.6zm1-.9c0-.3-.1-.6-.3-.7a1 1 0 00-.6-.2v1.6h-.4a.7.7 0 01-.3-.7h1.7zm-.9-.9a1 1 0 00-.7.4l1.2 1s-.2.2-.5.2V8.5zm.5.3H56l-1.2 1 .1.2 1.2-1.2zm0 1c-.1.2-.4.2-.5.2V8.4a1 1 0 00-.9.5l1.4.9zm-.5.2l-.3-.1a.6.6 0 01-.2-.5h1.6c0-.7-.6-1-1-1V10zm-.5-.6a.6.6 0 01.2-.5l1 1.3c.3-.2.4-.5.4-.8h-1.6zm.3.8a.7.7 0 01-.3-.2v-.3h1.6a1 1 0 00-.5-.9l-.8 1.4zm-.3-.5c0-.2 0-.4.2-.5l.3-.1v1.6c.5 0 1.1-.4 1.1-1h-1.6z" fill="currentColor" mask="url(#b)"></path><mask id="c" fill="#fff"><path d="M56.3 9.9l-.2-.1h.2l.1-.1s0-.1-.1 0v-.2h.2c0-.1 0-.2-.2-.2l-.1.1h-.1c0-.2.1-.2.2-.2.2 0 .3 0 .3.2v.3s-.1.2-.3.2z"></path></mask><path d="M56.3 9.9l-.2-.1h.2l.1-.1s0-.1-.1 0v-.2h.2c0-.1 0-.2-.2-.2l-.1.1h-.1c0-.2.1-.2.2-.2.2 0 .3 0 .3.2v.3s-.1.2-.3.2z" fill="#036"></path><path d="M56 9.8l-.5-.6-.5.5.4.6.7-.5zm.2 0l.4-.8-.6-.3-.4.4.6.6zm0-.2h-.7v1l.9-.2-.1-.8zm0-.1l.2-.8-1-.1v.9h.9zm0-.1l-.6.6.6.6.6-.7-.6-.5zm-.1 0l-.7-.5-.3.5.4.5.6-.6zm.4.1L56 9l-1 .7 1 .6.5-.7zm-.2-.4h.3l.1.2-1.3 1c.2.3.6.4 1 .4V9.1zm.4 1.3v-.1l-1.1-1.2-.1.1 1.2 1.2zm-1 0h.2l.4.2V9a.7.7 0 01.3 0l-.9 1.4zm.6.2l.5-.1c.2-.1.5-.4.5-.8h-1.7A.7.7 0 0156 9h.3v1.6zm1-1c0-.2-.1-.5-.4-.6a1 1 0 00-.7-.2l.2 1.6-.4-.1a.7.7 0 01-.4-.6h1.7zm-.2 0v-.1h-1.6v.1H57zm-.9.7l.7-.1c.3-.2.4-.5.4-.8h-1.7a.7.7 0 01.4-.6l.4-.1-.2 1.6zm1-.9c0-.3-.1-.6-.3-.7a1 1 0 00-.6-.2v1.6H56a.7.7 0 01-.3-.7h1.7zm-.9-.9a1 1 0 00-.7.4l1.2 1s-.2.2-.5.2V8.5zm.5.3h-.1l-1.2 1 .1.2 1.2-1.2zm0 1c-.1.2-.4.2-.5.2V8.4a1 1 0 00-.9.5l1.4.9zm-.5.2H56a.6.6 0 01-.2-.5h1.6c0-.7-.7-1-1-1V10zm-.5-.6a.6.6 0 01.2-.5l1 1.3c.3-.2.4-.5.4-.8h-1.6zm.3.8a.6.6 0 01-.3-.6h1.6a1 1 0 00-.5-.8l-.8 1.4zm-.3-.5c0-.5.3-.6.5-.6v1.6c.5 0 1.1-.4 1.1-1h-1.6z" fill="currentColor" mask="url(#c)"></path><mask id="d" fill="#fff"><path d="M54.3 14v-.3.5h.1V14h.2v.2h.2v-.5h.4l.2.1h.6a.3.3 0 00.5 0v-.3c0-.2-.2-.3-.3-.3v.1s.2 0 .2.2l-.1.2v.3l-.2-.1v-.4l.1-.2c-.1 0-.2 0-.2.2h-2v.2h.6v.4-.2h-.3v.2h-.1z"></path></mask><path d="M54.3 14v-.3.5h.1V14h.2v.2h.2v-.5h.4l.2.1h.6a.3.3 0 00.5 0v-.3c0-.2-.2-.3-.3-.3v.1s.2 0 .2.2l-.1.2v.3l-.2-.1v-.4l.1-.2c-.1 0-.2 0-.2.2h-2v.2h.6v.4-.2h-.3v.2h-.1z" fill="#036"></path><path d="M54.3 14h-.8v.9h.8v-.8zm0-.3h.8V13h-.8v.8zm0 0V13h-.9v.8h.8zm0 .5h-.9v.8h.8v-.8zm.1 0v.8h.9v-.8h-.9zm0-.2v-.8h-.8v.8h.8zm.2 0h.8v-.8h-.8v.8zm0 .2h-.9v.8h.9v-.8zm.2 0v.8h.8v-.8h-.8zm0-.5V13H54v.8h.8zm1.4-.5v-.8h-.8v.8h.8zm0 .1h-.8v.8h.8v-.8zm.1.4l-.6-.6-.5.6.5.5.6-.5zm-.2 0l.6.5.5-.5-.5-.6-.6.6zm.1-.4v.8h.8v-.8h-.8zm0 0h.8v-.9h-.8v.8zm-2 .3v-.8h-1v.8h1zm0 .1h-1v.8h1v-.8zm.5 0h.8V13h-.8v.8zm0 .4v.8h.8v-.8h-.8zm0 0h-.9v.8h.8v-.8zm0-.2h.7v-.8h-.8v.8zm-.3 0v-.8h-.8v.8h.8zm0 .2v.8h.8v-.8h-.8zm.7 0v-.4h-1.6v.4H55zm-.8-1.2v1.6V13zm-.9.8v.5H55v-.5h-1.6zm.8 1.3h.2v-1.7h-.2V15zm1-.8V14h-1.6v.2h1.7zm-.8.6h.2v-1.6h-.2v1.6zm-.7-.8v.2h1.7V14h-1.7zm.9 1h.2v-1.7h-.2V15zm1-.8v-.5H54v.5h1.6zm-.8.3h.1V13h-.1v1.6zm.1 0a.6.6 0 01-.3 0 1 1 0 00.5.1V13a.7.7 0 01.4 0 1 1 0 00-.6 0v1.5zm.2.1a.9.9 0 00.6-.2.7.7 0 01-.5.1V13a.9.9 0 00-.5.2.7.7 0 01.4-.1v1.6zm.1 0a.8.8 0 01-.5-.3 1 1 0 00.1.2.9.9 0 00.6.1V13a.8.8 0 01.5.2 1 1 0 00-.3-.2h-.4v1.5zm.2 0a.9.9 0 00.7-.3H56a.8.8 0 01-.5.2V13a.9.9 0 00-.7.3.6.6 0 01.1 0 .8.8 0 01.5-.2v1.6zm0 0a.8.8 0 01-.4-.2 1 1 0 00.2.1 1 1 0 00.4.1V13a.7.7 0 01.5.1 1 1 0 00-.3-.1h-.3v1.5zm.2 0a1 1 0 00.4 0v-.1h-.2V13a1.1 1.1 0 00-.5.1h.3v1.6zm.2 0s-.2 0-.4-.3a.7.7 0 01-.3-.5h1.7c0-.1 0-.4-.3-.6a1 1 0 00-.7-.3v1.6zm-.7-.8c0 .6.5 1.1 1.1 1.1v-1.6c.3 0 .6.2.6.5H55zm1.1 1.1c.6 0 1-.5 1-1h-1.6c0-.4.3-.6.6-.6v1.6zm1-1v-.4h-1.6v.3h1.7zm0-.4c0-.6-.4-1-1-1V14a.6.6 0 01-.6-.5h1.7zm-1.8-.3v.1H57h-1.6zm.8 1a.7.7 0 01-.7-.7h1.7c0-.6-.5-1-1-1v1.6zm-.7-.7v-.2a.6.6 0 01.2-.2l.6.6.6.5a.6.6 0 000-.1l.2-.2v-.4h-1.6zm.8.2l-.6.5a.7.7 0 01-.1-.2h1.6a1.2 1.2 0 00-.3-.7l-.6.5zm-.8.2c0-.4.3-.7.7-.7v1.6c.5 0 1-.4 1-1h-1.7zm.7-.7c.4 0 .7.3.7.7h-1.7c0 .5.5 1 1 1v-1.7zm.7.7v.1a.6.6 0 01-.2.2 76.6 76.6 0 01-1.2-1 1.1 1.1 0 00-.2.2v.5h1.6zm-.8-.2l.6-.6a.7.7 0 01.1.2v.2h-1.6a1.2 1.2 0 00.3.7l.6-.5zm.8-.2c0 .3-.3.6-.7.6v-1.6a1 1 0 00-1 1H57zm.1-.2h-1.6H57zm-.8-.9a1 1 0 00-1 1h1.6c0 .4-.3.6-.6.6v-1.6zm-1 1l.2-.4.4-.2v1.6c.2 0 .5 0 .7-.2l.3-.7H55zm.6-.6h.2-.4v1.5a.7.7 0 01-.3 0 1.1 1.1 0 00.5.1v-1.6zm-.2 0a.9.9 0 00-.6.1.7.7 0 01.2 0l.3-.1v1.6a.9.9 0 00.5-.2.7.7 0 01-.4.1v-1.6zm-.1 0a.8.8 0 01.5.2 1 1 0 00-.1-.1.9.9 0 00-.5-.2v1.6a.8.8 0 01-.6-.2 1 1 0 00.3.2l.4.1v-1.6zm-.1-.1a.9.9 0 00-.7.3.8.8 0 01.5-.2v1.6a.9.9 0 00.7-.3.7.7 0 01-.3.2h-.2v-1.6zm-.2 0a.8.8 0 01.5.2 1 1 0 00-.2-.1 1 1 0 00-.4 0v1.5a.7.7 0 01-.4-.1 1 1 0 00.3.2h.2v-1.6zm0 0a1 1 0 00-.6.2.6.6 0 01.3-.1v1.6a1 1 0 00.6-.2.6.6 0 01-.2.1H55v-1.6zm-.3 0h-.8v1.8h.7v-1.6zm-1.6.9v.1h1.6v-.1h-1.6zm.8 1h.1v-1.7 1.6zm.1 0v-1.7 1.6zm0 0h.5v-1.7h-.4v1.6zm-.3-.9v.4h1.6v-.4H54zm.8-.4v1.6-1.6zm.7.8v-.2h-1.6v.2h1.6zm-.8-1h-.2v1.6h.2v-1.6zm-1 .8v.2h1.6v-.2h-1.6zm.8-.6h-.1v1.6-1.6z" fill="currentColor" mask="url(#d)"></path><mask id="e" fill="#fff"><path d="M54.5 7.6l.4.7h-.2v-.1h-.3v-.1h.2l-.1-.2v.5h-.2v-.8h.2z"></path></mask><path d="M54.5 7.6l.4.7h-.2v-.1h-.3v-.1h.2l-.1-.2v.5h-.2v-.8h.2z" fill="#036"></path><path d="M54.5 7.6l.7-.4-.3-.5-.6.1.2.8zm.4.7V9l1.3-.1-.6-1.1-.7.4zm-.2 0l-.7.4.3.5.6-.1-.2-.8zm0-.1l.7-.4-.3-.5h-.6l.2.9zm-.3 0h-.8v1l1-.2-.2-.8zm0-.1l-.1-.8h-.6V8h.8zm.2 0l.2.7 1-.2-.5-1-.7.4zm-.1-.2l.7-.4-1.3-2.3-.2 2.6h.8zm0 .2h.8-.8zm0 .1h-.9.8zm0 .2l.1.8.6-.2v-.6h-.8zm-.2 0h-.8l-.2 1.2 1.2-.4-.2-.8zm0-.8l-.2-.8-.5.2v.6h.7zm-.5.4l.4.7 1.4-.8-.4-.7-1.4.8zm1-.5h-.3l.4 1.6V7.5zm.6.4v-.1l-1.4.8v.1l1.4-.8zm-1-.5h-.1l.3 1.6h.2l-.3-1.6zm.9.9v-.2L53.6 8v.2l1.7.1zm-.7.6h.2l-.4-1.7h-.1l.3 1.7zm.7-1.3l-.1-.1-1.4.8v.1l1.5-.8zm-1.6.2V8l1.6.1V8l-1.6-.1zm0 .2v.2l1.6.1v-.2L53.6 8zm0 .2v.1l1.5.1v-.1l-1.6-.1zm.6-.6H54l.5 1.6h.1l-.3-1.6zm.8.9v-.8l-1.6-.1v.7l1.6.2zm-.6 0l.2-.1-.4-1.6h-.2l.4 1.6z" fill="currentColor" mask="url(#e)"></path><mask id="f" fill="#fff"><path d="M58.6 9l-.3.1.2.3h-.1l-.2-.2-.1.1.2.3h.2l.2-.2-.2-.2.1-.1.2.2h.1l-.2-.4h-.1z"></path></mask><path d="M58.6 9l-.3.1.2.3h-.1l-.2-.2-.1.1.2.3h.2l.2-.2-.2-.2.1-.1.2.2h.1l-.2-.4h-.1z" fill="#036"></path><path d="M58.6 9l-.6-.7.6.6zm-.3.1l-.5-.6.5.6zm0 0l.7-.4-.7.5zm.2.3l.5.6.7-.5-.6-.7-.6.6zm-.1 0l-.6.6.5.6.6-.5-.5-.6zm-.2-.2l.6-.5-.5-.6-.6.5.5.6zm-.1.1l-.6-.6-.6.6.6.6.6-.6zm.2.3l-.6.6.6-.6zm.2 0l.5.6-.5-.6zm.2-.2l.5.7-.5-.7zm0 0l-.6.5.6-.6zm-.2-.2l-.5-.7-.6.6.5.6.6-.5zm.1-.1l.6-.6-.5-.6-.6.6.5.6zm.2.2l-.6.6.5.6.6-.6-.5-.6zm.1 0l.6.5.6-.5-.5-.6-.7.5zm-.2-.4l-.6.6.6-.6zm-.7-.6l-.2.2 1 1.2.3-.2-1-1.2zm-.2.2c-.3.3-.4.8 0 1.2l1.1-1c.3.3.3.8 0 1l-1.1-1.2zm0 1.2v.2l1.3-1-.1-.2-1.3 1zm.2-1l-.1.1 1 1.3.1-.1-1-1.2zm1 .2l-.2-.2-1.2 1 .2.3L59 9zm-1.3-.3l-.2.1 1.1 1.2h.1l-1-1.3zm-.2 1.3l.2.3L59 9l-.2-.3-1.2 1zm.2.3c.4.3 1 .4 1.3 0L58 9c.2-.3.7-.2 1 0l-1.3 1.2zm1.3 0l.2-.1-1-1.3-.3.2 1 1.2zm.2-.2c.3-.2.4-.8 0-1.2l-1.1 1a.8.8 0 010-1l1.1 1.2zm0-1.2v-.2l-1.3 1.1.2.2 1.2-1.1zm-.2 1l.1-.1-1-1.2H58l1 1.3zm-1-.2l.2.3 1.2-1.1-.2-.3L58 9.6zm1.3.3h.2l-1-1.3h-.2l1 1.3zm.3-1.2l-.3-.3-1.2 1 .2.4 1.3-1.1zm-.3-.3a.9.9 0 00-1.3-.1l1.1 1.2c-.3.3-.8.3-1 0l1.2-1.1z" fill="currentColor" mask="url(#f)"></path><mask id="g" fill="#fff"><path d="M52 10.4v.1l-.7-.3.2-.4h.1v.3l.1-.2.2.1-.1.2.2.2z"></path></mask><path d="M52 10.4v.1l-.7-.3.2-.4h.1v.3l.1-.2.2.1-.1.2.2.2z" fill="#036"></path><path d="M52 10.4l.8.3.3-.7-.7-.4-.4.8zm0 .1l-.4.7.8.4.3-.8-.7-.3zm-.7-.3l-.7-.4-.4.7.7.4.4-.7zm.2-.4L52 9l-.8-.3-.3.7.7.4zm.1 0l.8.4.3-.7L52 9l-.4.7zm0 .3l-.8-.4-.4.8.7.3.4-.7zm0 0l-.3.8.7.4.4-.8-.8-.3zm.1-.2l.4-.7-.7-.4-.4.8.7.3zm.2.1l.7.4.4-.8-.7-.3-.4.7zm-.1.2L51 10l-.3.7.7.4.4-.8zm-.5-.2l-.1.2 1.5.6v-.1l-1.4-.7zm1-.2l-.6-.4-.8 1.5.7.3.7-1.4zm-.3.7l.2-.4-1.4-.7-.2.4 1.4.7zm-.9 0h.2l.7-1.4-.8 1.4zm-.2-1l-.1.2 1.4.8.2-.3-1.5-.7zm.2 1.3h.2l.7-1.4h-.1l-.8 1.4zm1.3-.3v-.2L51 9.6l-.1.2 1.5.7zm-1 .2h.1l.8-1.4-.2-.1-.7 1.5zm-.3-1v.2l1.4.7.1-.2-1.5-.8zm.3 1.3h.2l.8-1.4-.3-.1-.7 1.5z" fill="currentColor" mask="url(#g)"></path><mask id="h" fill="#fff"><path d="M58.4 8.6v.2l-.4.4-.1-.1-.2-.1v-.2l.4-.4h.1v.2l-.3.3.2.1.2-.3-.2-.1.1-.2.3.2z"></path></mask><path d="M58.4 8.6v.2l-.4.4-.1-.1-.2-.1v-.2l.4-.4h.1v.2l-.3.3.2.1.2-.3-.2-.1.1-.2.3.2z" fill="#036"></path><path d="M58.4 8.6l-.6.6.6-.6zm0 .2l.6.5-.6-.5zm-.4.4l.7.5-.7-.5zm-.1 0l.5-.7-.5.7zm-.1-.1l-.5.6.5-.6zm-.2-.1l.5-.7-.5.7zm0-.2l-.6-.5.6.5zm.4-.4l.6.5-.6-.5zm.1 0l.8.3.2-.6-.5-.3-.5.6zm0 .2l.6.5V9l.1-.2-.8-.2zm-.3.3l-.6-.5-.6.6.7.5.5-.6zm.2.1l-.6.7.7.5.5-.7L58 9zm.2-.3l.7.5.5-.6-.7-.5-.5.6zm-.2-.1l-.7-.3-.2.5.4.4.5-.6zm.1-.2l.5-.6-.9-.8-.4 1.1.8.3zm-.3.8a.7.7 0 010-1l1.2 1c.3-.3.3-.9-.1-1.2l-1 1.2zm0-1l-.4.4 1.3 1 .3-.3-1.3-1zm-.4.4c.3-.3.7-.3 1 0l-1 1.2c.4.3 1 .3 1.3-.1l-1.3-1zm1 0a.8.8 0 010-.1 1.6 1.6 0 00-.1-.1l-1 1.3v.1l1.1-1.3zm-.1-.2H58l-1 1.2h.1v.1l1-1.3zm-.2 0c.4.2.4.7.2 1l-1.3-1a1 1 0 00.1 1.2l1-1.3zm.2 1l.3-.5-1.3-1-.3.4 1.3 1zm.3-.5c-.3.3-.7.4-1 .1l1-1.2a1 1 0 00-1.3.1l1.3 1zm-1.3-.8v.2l1.5.5v-.1L57.4 8zm.1 0l-.2.3 1.2 1 .3-.3-1.3-1zm-.1 1.4l.1.2 1-1.3-.1-.2-1 1.3zm1.3 0l.3-.3-1.3-1-.3.3 1.3 1zm.1-1.4l-.1-.2-1 1.3.1.1 1-1.2zm.1.7v-.1L57.4 8v.2l1.5.5zm-1.2.2l.2.2 1-1.2-.2-.2-1 1.2z" fill="currentColor" mask="url(#h)"></path><mask id="i" fill="#fff"><path d="M53.8 8.3h-.2l.2-.2h-.3l.1.1v.2l.2.2h-.2l-.3-.6.5-.2.1.3.1.1v.2h.1l-.1.1-.1-.2h-.1z"></path></mask><path d="M53.8 8.3h-.2l.2-.2h-.3l.1.1v.2l.2.2h-.2l-.3-.6.5-.2.1.3.1.1v.2h.1l-.1.1-.1-.2h-.1z" fill="#036"></path><path d="M53.8 8.3l-.3-.8.3.8zm-.1 0l-.8.4.3.7.8-.3-.3-.7zm-.1 0l-.3-.8-.8.3.3.7.8-.3zm.2-.2l.3.8-.3-.8zm0 0l.7-.3-.7.3zm0 0l-.8.3.8-.4zm-.1 0l.3.7-.3-.8zm-.2 0l-.3-.7-.7.3.3.7.7-.3zm.1.1l.7-.3-.7.3zm0 .2l-.7.3.8-.3zm.2.2l.3.8.8-.4-.4-.7-.7.3zm-.2 0L53 9l.3.8.8-.4-.4-.7zm-.3-.6l-.3-.7-.8.3.4.8.7-.4zm.5-.2l.3.8-.3-.8zm0 0l.8-.3-.7.4zm.1.3l.8-.3-.8.3zm0 0l-.3-.7h-.2v.2l.5.6zm0 0l.8-.2v-.2l-.2-.1-.6.6zm0 0l-.3-.7.3.8zm.1.1l-.7.3.7-.3zm0 .2l-.7.3.8-.3zm.1 0l.8-.3-.2-.5H54l.1.8zm0 0l.3.8.8-.3-.3-.8-.7.3zm-.1.1l-.3.8h.6l-.3-.8zm0 0l.7-.4-.8.4zm-.1-.2l-.8.3.8-.3zm-.4-.8l-.2.1.7 1.5h.1l-.6-1.6zm1 .5l-.2-.1-1.5.6.1.2 1.5-.7zm-.6 1l.2-.1-.7-1.5h-.1l.6 1.6zm.2-.1c.4-.2.6-.7.4-1.1l-1.5.6c-.2-.4 0-.8.4-1l.7 1.5zm.4-1.1l-1.5.6 1.5-.6zm0 0a.9.9 0 00-1.2-.5l.8 1.5c-.5.2-1 0-1.1-.4l1.5-.7zm-1.1-.5h-.2l.7 1.5h.1l-.6-1.5zm-.6 1.1v.2l1.5-.7v-.1l-1.5.6zm0 .1l.1.2 1.5-.7-1.6.6zm.1.2l.1.2 1.5-.6V8l-1.6.7zm.5-.8h-.2l.8 1.5h.1l-.7-1.5zm1 .4l-.3-.6-1.5.7.3.6 1.5-.7zm-.7.5l.4-.2-.7-1.5-.4.2.7 1.5zm.4-.2c-.4.2-.8 0-1-.4l1.5-.7a.9.9 0 00-1.2-.4l.7 1.5zm-1-.4l.1.2 1.5-.7-.1-.2-1.5.7zm0 .2c0-.4 0-.8.5-1l.6 1.5c.5-.2.7-.7.5-1.1l-1.5.6zm.2-.8l-.1.3c-.1.1-.2.5.1.8l1.2-1.1a.8.8 0 010 1.1l-1.2-1.1zm-.2.8c.2.5.7.7 1.2.5l-.7-1.5c.4-.2 1 0 1 .5l-1.5.5zm1.1.5c-.3.2-.8 0-1-.4l1.6-.6a.9.9 0 00-1.2-.5l.6 1.5zm-1-.4l.1.1v.1L55 8l-.1-.1v-.1l-1.5.6zm.1.2l.2.3a.9.9 0 00.7.2L54 7.6a.8.8 0 01.7.3l.1.2-1.5.6zm.1 0l1.5-.6-1.5.7zm.5-1h-.2l.6 1.6h.1L54 7.6zm.4 0a.7.7 0 01.4.4l-1.5.7c0 .2.2.4.5.5l.6-1.6zm.4.4V8l-1.6.6a3.4 3.4 0 000 .2h.1l1.5-.7zm0 0a.9.9 0 00-1.2-.6L54 9c-.3.2-.8 0-1-.4l1.5-.6z" fill="currentColor" mask="url(#i)"></path><mask id="j" fill="#fff"><path d="M55.5 8.2v-.1h-.3v-.6H55v.8h.5z"></path></mask><path d="M55.5 8.2v-.1h-.3v-.6H55v.8h.5z" fill="#036"></path><path d="M55.5 8.2v.9h.8v-.9h-.8zm0-.1h.8v-.9h-.8v.9zm-.3 0h-.8V9h.8v-.8zm0-.6h.8v-.8h-1v.8zm-.2 0v-.8h-.8v.9h.8zm0 .8h-.8V9h1l-.1-.8zm1.3 0V8h-1.6v.2h1.6zm-.8-1h-.3v1.6h.3V7.3zm.5.8v-.6h-1.6v.6H56zm-.9-1.4H55v1.6h.2V6.7zm-.9.9v.7H56v-.8h-1.7zm1 1.5h.3V7.4H55l.1 1.7z" fill="currentColor" mask="url(#j)"></path><mask id="k" fill="#fff"><path d="M52.4 9.5v.1l-.2.4-.6-.4.3-.4h.1l-.2.3.1.1.2-.2h.1l-.1.3.3-.2z"></path></mask><path d="M52.4 9.5v.1l-.2.4-.6-.4.3-.4h.1l-.2.3.1.1.2-.2h.1l-.1.3.3-.2z" fill="#036"></path><path d="M52.4 9.5l.4-.6-.6-.5-.5.7.7.4zm0 .1l.7.5.5-.6L53 9l-.5.6zm-.2.4l-.5.7.7.4.5-.7-.7-.4zm-.6-.4L51 9l-.5.7.7.4.4-.6zm.3-.4l.5-.7-.7-.5-.5.7.7.5zm.1 0l.7.6.5-.7-.7-.5-.5.7zm-.2.3l-.6-.4-.5.6.7.5.4-.7zm.1.1l-.4.7.6.5.5-.7-.7-.5zm.2-.2l.5-.7-.7-.4-.5.6.7.5zm.1 0l.7.6.5-.7-.7-.5-.5.7zm-.1.3l-.7-.5-.5.7.7.5.5-.7zm0 0l-.4.7.7.5.4-.6-.6-.5zm-.2.5L53 9v-.1l-1 1.3zm0-1a6 6 0 00-.4.3l1.4 1 .2-.4-1.3-1zm.8.1L52 9l-1 1.3.6.5 1-1.4zm-.4.7l.3-.3-1.4-1-.2.4 1.3 1zm-.9-.1h.1l1-1.3h-.1l-1 1.3zm0-1l-.2.2 1.3 1 .2-.3-1.3-1zm0 1.3l1-1.3-1 1.3zm1.2-.1l.2-.2-1.4-1-.1.2 1.3 1zm-1 0h.1l1-1.3h-.1l-1 1.3zm0-1l-.2.1 1.3 1 .2-.2-1.3-1zm0 1.3h.1l1-1.3h-.1l-1 1.3zm1.2-.1l.2-.3-1.3-1-.2.3 1.3 1z" fill="currentColor" mask="url(#k)"></path><mask id="l" fill="#fff"><path d="M52.6 9.5L52 9h.2l.3.3.1-.2-.3-.3-.1.2H52l.3-.3h.1l.4.4v.1l-.1.1-.2.2z"></path></mask><path d="M52.6 9.5L52 9h.2l.3.3.1-.2-.3-.3-.1.2H52l.3-.3h.1l.4.4v.1l-.1.1-.2.2z" fill="#036"></path><path d="M52.6 9.5l-.6.6.6.6.6-.6-.6-.6zM52 9l-.6-.6-.6.6.6.6.6-.6zm0 0l.4-.8-.5-.3-.4.4.5.6zm.2 0l.6-.6h-.1l-.2-.1-.3.7zm.3.3l-.6.6.6.5.5-.5-.5-.6zm.1-.2l.6.6.6-.6-.6-.5-.6.5zm-.3-.3l.6-.5-.6-.6-.5.6.5.5zm-.1.2l-.4.7.6.3.4-.4-.6-.6zM52 9l-.5-.7-.9.9 1 .5.4-.8zm.3-.3l.5.6-.5-.6zm.1 0l.6-.6-.6.6zm.4.4l.6-.6-.6.6zm0 .1l-.6-.6.6.6zm-.1.1l-.6-.6.6.6zm.4-.4l-.6-.5-1.1 1.2.5.5 1.2-1.2zm-.6.7l.1-.1-1.1-1.2-.1.1 1.1 1.2zm-.8 0l.1.1.7-1.4-.1-.1-.7 1.5zm-.1 0l.3.3 1.2-1.2-.3-.3-1.2 1.2zm1.4.3l.2-.2-1.1-1.2-.2.2L53 9.9zm.2-1.3l-.3-.3-.9 1.1.3.3 1.1-1.1zM52 8.3l-.2.1L53 9.6l.1-.2L52 8.3zm.7 0l-.1-.1-.7 1.5h.1l.7-1.4zm.1 1.2l.2-.2L51.8 8l-.2.2 1.1 1.2zm.2-.2c-.2.3-.7.2-1 0L53.1 8a1 1 0 00-1.3 0l1.1 1.2zm-1 0l.4.3 1.2-1.1L53 8l-1.2 1.2zm.4.3a.7.7 0 010-1l1.2 1.2c.3-.4.3-1 0-1.3l-1.2 1.1zm0-1v.1l1 1.2a14.8 14.8 0 00.2-.1l-1.2-1.2zm-.2.2a10.6 10.6 0 01-.1.2l1.2 1 .2-.1L52 8.8z" fill="currentColor" mask="url(#l)"></path><mask id="m" fill="#fff"><path d="M53.4 8.6v.2l-.3.2-.4-.6.4-.2v.1l-.2.2h.3l-.1.2v.1l.3-.2z"></path></mask><path d="M53.4 8.6v.2l-.3.2-.4-.6.4-.2v.1l-.2.2h.3l-.1.2v.1l.3-.2z" fill="#036"></path><path d="M53.4 8.6l.7-.4-.5-.7-.7.5.5.6zm0 .2l.5.7.7-.5-.5-.7-.6.5zm-.3.2l-.7.5.5.7.7-.5L53 9zm-.4-.6l-.5-.6-.7.4.5.7.7-.5zm.4-.2l.6-.5-.4-.7-.7.5.5.7zm0 .1l.5.7.7-.5-.5-.6-.7.4zm-.2.2l-.5-.7-.6.5.4.6.7-.4zm0 0l-.6.5.5.7.6-.5-.4-.6zm.3 0l.7-.5-.5-.7-.7.5.5.6zm0 0l.5.7.7-.4L54 8l-.7.5zm-.1.2l-.5-.7-.7.5.5.7.7-.5zm0 .1l-.6.5.4.7.7-.5-.5-.7zm-.4.3v.1l1.4-.9v-.1l-1.4.9zm.3-1l-.4.3 1 1.3.3-.2L53 8zm.8.5l-.4-.6-1.4.9.4.6 1.4-1zM53 9l.4-.3-1-1.3-.3.3 1 1.3zm-.7-.5v.2l1.4-1-1.4.8zm.3-1l-.3.2 1 1.3.2-.1-1-1.4zM52.2 9l.1.1 1.3-.9-1.4.8zm1.2.3l.3-.1-1-1.3-.2.1 1 1.3zm-.9-.3l1.5-.9-.1-.1-1.4.9zm.3-1l-.2.1 1 1.4.1-.2-.9-1.3zm-.4 1.3l1.4-.8v-.2l-1.4 1zm1.2.3l.2-.2L53 8l-.2.1.9 1.4z" fill="currentColor" mask="url(#m)"></path><mask id="n" fill="#fff"><path d="M55.8 8.3l.1-.8h.1v.6h.2v-.3h-.1v-.3l.3.1v.6l-.2.1h-.4z"></path></mask><path d="M55.8 8.3l.1-.8h.1v.6h.2v-.3h-.1v-.3l.3.1v.6l-.2.1h-.4z" fill="#036"></path><path d="M55.8 8.3L55 8v1h.8l.1-.7zm.1-.8l.2-.8-.8-.1-.2.8.8.1zm.1 0l.8-.1v-.6h-.6l-.2.7zm0 .2l.9.2v-.3l-.8.1zm0 .4l-.8-.1-.2.8.9.1v-.8zm.2 0l-.1.9.8.1.1-.8-.8-.1zm0-.3h.9l.1-.7-.8-.2-.1.9zm-.1 0h-.8v.6l.6.1.2-.8zm0-.3v-.8l-1-.2.1 1.2.8-.2zm.3.1l.1-.8-.1.8zm0 .1l.9.2-.8-.2zm0 .5l-.8-.1.8.1zm-.2.1l.2-.8-.2.8zm-.1 0v-.8.8zm.5.1l.1-.7-1.6-.3V8l1.5.3zm-.8 0l.4-1.7H56l-.3 1.6zm-.6-.7v.2l1.7-.3v-.2l-1.7.3zm0-.1V8l1.6.3v-.4l-1.5-.3zm.7 1.3h.2l.3-1.5H56v1.4zm1.1-.6v-.4l-1.5-.3V8l1.5.3zm-.6-1.4h-.2L56 8.5h.2l.3-1.6zm.5.7v-.2l-1.7.3v.2l1.7-.3zm-1 .8h.3l.3-1.6h-.3l-.3 1.6zm.3 0a.7.7 0 01-.6-.8l1.7.2c0-.4-.3-.9-.8-1l-.3 1.6zm-.5-.8l-.1.5 1.6.3v-.5l-1.5-.3zm-.1.5c0-.4.4-.7.8-.6L56 9.1c.5.1 1-.2 1-.7L55.7 8zm.8-.6h-.1a1.7 1.7 0 00-.1 0L56 9h.1l.3-1.6zm-.2 0h-.4L55.7 9h.2l.3-1.6z" fill="currentColor" mask="url(#n)"></path><mask id="o" fill="#fff"><path d="M57 8.4v.2l-.5-.2.3-.7.4.2V8h-.3l.2.1-.1.2-.2-.1v.1l.2.1z"></path></mask><path d="M57 8.4v.2l-.5-.2.3-.7.4.2V8h-.3l.2.1-.1.2-.2-.1v.1l.2.1z" fill="#036"></path><path d="M57 8.4l.8.3.3-.8-.8-.3-.3.8zm0 .2l-.4.7.8.3.3-.7-.8-.3zm-.5-.2l-.7-.3-.3.8.8.3.2-.8zm.3-.7L57 7l-.8-.3-.3.7.8.3zm.4.2l.8.3.3-.8-.8-.3-.3.8zm0 .1l-.3.8.7.3.3-.8-.8-.3zm-.3 0l.2-.8-.7-.3-.3.7.8.3zm0 0l-.8-.3-.3.8.7.3.3-.8zm.2.1l.7.3.3-.7-.8-.3-.2.7zm-.1.2l-.3.7.8.3.3-.7-.8-.3zm-.2-.1l.2-.8-.7-.3-.3.8.8.3zm0 .1L56 8l-.3.8.7.3.3-.8zm-.6-.2v.2l1.5.6v-.2l-1.5-.6zm1-.3l-.4-.2-.5 1.6.3.1.7-1.5zm0 .9l.3-.7-1.5-.6-.2.7 1.5.6zm-.7-.2l.4.1.6-1.5L57 7l-.6 1.5zm0-1l-.1.2 1.5.6v-.1l-1.5-.6zm1-.2l-.4-.1-.5 1.5h.3l.5-1.4zm-1.4.3v.1l1.5.6-1.5-.7zm.4 1.2l.3.1.5-1.5-.2-.1-.6 1.5zm-.2-1V8l1.5.6v-.2l-1.5-.6zm1-.3H57L56.5 9h.2l.6-1.5zM56 8l1.5.6v-.1L56 7.9zm.4 1.2h.3l.6-1.5H57L56.4 9z" fill="currentColor" mask="url(#o)"></path><mask id="p" fill="#fff"><path d="M57.3 8.4l.1-.1h.2l-.1-.1h-.1v.2l-.2.3-.2-.1.4-.6.4.2-.1.4h-.1l-.3-.2z"></path></mask><path d="M57.3 8.4l.1-.1h.2l-.1-.1h-.1v.2l-.2.3-.2-.1.4-.6.4.2-.1.4h-.1l-.3-.2z" fill="#036"></path><path d="M57.4 8.3l.4-.7-.7-.4-.4.7.7.4zm.2 0l.4-.6-.4.7zm0 0L57 8l.7.4zm0 0l.7.4-.7-.4zm0 0l-.4.7.4-.7zm-.1-.1l.4-.7-.7-.4-.4.7.7.4zm-.1 0l-.7-.3.7.4zm-.2.5l-.4.7.7.4.4-.7-.7-.4zm-.2-.1l-.7-.4-.4.7.8.4.3-.7zm.4-.6l.4-.8-.7-.4-.4.8.7.4zm.4.2l-.4.7.4-.7zm0 0l-.7-.3.7.4zm-.1.4l.7.4-.7-.4zm-.1 0l.4-.7-.4.7zm.4.2l.1-.1-1.4-.8V8l1.3.8zM57 9h.2l.8-1.3-.2-.1L57 9zm.1 0c.5.3 1 .2 1.2-.2L57 8c.2-.4.7-.6 1-.3L57.2 9zm1.2-.2l-1.3-1 1.4.9zm0 0c.3-.5.1-1-.3-1.3L57.3 9a.8.8 0 01-.4-1l1.5.7zM58 7.5l-.1-.1-.8 1.4h.1l.8-1.3zm-1.2.2h-.1l1.4.9v-.1l-1.3-.8zm-.1.1V8l1.3.8.1-.1-1.4-.8zm0 .1l-.2.3 1.4.8.1-.3-1.4-.8zm.9 0l-.2-.1-.7 1.4.1.1.8-1.4zm.1 1l.4-.6-1.4-.8-.4.6 1.4.8zm-.7-.3l.4.2.8-1.4-.4-.3-.8 1.5zm.4.2a.7.7 0 01-.3-1l1.4.8c.3-.4.1-1-.3-1.2l-.8 1.4zm-.3-1l-.1.3 1.4.8.2-.3-1.5-.8zm-.1.3c.2-.4.6-.5 1-.3l-.8 1.4c.4.2 1 0 1.2-.3L57 8.2zm1-.3l-.3-.2-.8 1.4.3.2.8-1.4z" fill="currentColor" mask="url(#p)"></path><mask id="q" fill="#fff"><path d="M58.5 9.8l.6-.4v.2l-.5.4v-.1h-.1z"></path></mask><path d="M58.5 9.8l.6-.4v.2l-.5.4v-.1h-.1z" fill="#036"></path><path d="M58.5 9.8l-.5-.6-.6.4.4.7.7-.5zm.6-.4l.7-.4-.5-.7-.7.5.5.6zm0 .2l.5.6.7-.4L60 9l-.7.5zm-.5.4l-.7.4.5.7.6-.5-.4-.6zm0-.1l-.8.4.7-.4zm.4.6l.6-.4-1-1.3-.6.4 1 1.3zm-.6-.6l.1.1 1.4-.9-.1-.1-1.4.9zm.3-1l-.6.4 1 1.3.5-.4-.9-1.3zm.6.6a17.7 17.7 0 00-.1 0l-1.3.9 1.4-.9zm0 0h-.1v-.1l-1.4.9 1.4-.8z" fill="currentColor" mask="url(#q)"></path><mask id="r" fill="#fff"><path d="M59.3 10.1l-.5.3v-.1l.4-.3v-.2h.1l.2.4h-.1v-.1z"></path></mask><path d="M59.3 10.1l-.5.3v-.1l.4-.3v-.2h.1l.2.4h-.1v-.1z" fill="#036"></path><path d="M59.3 10.1l.7-.4-.3-.7-.8.4.4.7zm-.5.3l-.7.3.3.8.8-.4-.4-.7zm0-.1l.7-.4-.7.4zm0 0l-.4-.8-.8.4.4.7.7-.4zm.4-.3l.4.7.7-.4-.3-.7-.8.4zm0-.2l-.4-.7-.7.4.3.7.8-.4zm.1 0l.7-.4-.3-.7-.8.3.4.7zm.2.4l.4.7.7-.4-.4-.7-.7.4zm-.1 0l-.7.4.3.7.8-.3-.4-.8zm-.5-.8l-.5.2.8 1.5.5-.3-.8-1.4zm.6.6l-1.5.7 1.5-.7zm0-.1l-1.5.7 1.5-.7zm-.4 1l.5-.2-.7-1.5-.5.3.7 1.4zm.9-1.3l-.1-.1-1.5.7.1.1 1.5-.7zm-.5 1l.2-.1-.8-1.5h-.1l.7 1.5zm-1-.5l.3.4 1.4-.7-.2-.4-1.4.7zm.7-.7l-.2.1.8 1.5v-.1l-.6-1.5zm1 .5l-.2-.2-1.4.8v.1l1.5-.7z" fill="currentColor" mask="url(#r)"></path><mask id="s" fill="#fff"><path d="M51.4 10.7v.2l.1.1h-.2v.2-.1H51l.2-.1-.1-.2h.3z"></path></mask><path d="M51.4 10.7v.2l.1.1h-.2v.2-.1H51l.2-.1-.1-.2h.3z" fill="#036"></path><path d="M51.4 10.7h.8V8.5l-1.5 1.8.7.5zm0 .2h-.9v.6l.5.2.4-.8zm.1.1l.3.8L54 11l-2.2-.9-.3.8zm-.2 0l-.2-.7-.5.1v.6h.7zm0 .2l-.6.5 1.3 2 .1-2.4h-.8zm0-.1l.6-.5-.3-.4H51l.2.9zm-.3 0l-.6-.5-1.5 1.9 2.3-.6-.2-.8zm.2-.1l.6.5.4-.5-.4-.5-.6.5zm-.1-.2l.2-.8-2.2-.8 1.3 2 .7-.4zm.1 0l-.2.8.5.2.4-.4-.7-.5zm-.7-.1v.2h1.7v-.1l-1.7-.1zm.5 1h.2l.6-1.5h-.1l-.7 1.5zm.3-1.5h-.2l.5 1.6h.2l-.5-1.6zm-.8.8v.2l1.6.1v-.2l-1.6-.1zm1.5-.2l-.1-.2-1.4 1 .2.1 1.3-1zm-1-.5h-.2l.4 1.6h.2l-.4-1.6zm.7 1.3l.1-.1-1.3-1-.1.1 1.3 1zm.1-1v-.2l-1.4.8v.2l1.4-.9zm-1 1h.2l.5-1.5h-.2l-.5 1.5zm1-.2l.2-.1-1.3-1.1v.2l1.2 1z" fill="currentColor" mask="url(#s)"></path><mask id="t" fill="#fff"><path d="M59.5 10.7v.2l-.2.1h.2v.2l.1-.1h.2l-.1-.1v-.2h-.2z"></path></mask><path d="M59.5 10.7v.2l-.2.1h.2v.2l.1-.1h.2l-.1-.1v-.2h-.2z" fill="#036"></path><path d="M59.5 10.7l.6-.5-1.5-1.8v2.4h.9zm0 .2l.3.8.5-.2v-.6h-.8zm-.2.1l-.3-.8-2.2 1 2.3.6.2-.8zm.2 0h.8v-.6l-.6-.1-.2.8zm0 .2l-.8.1.1 2.3 1.4-1.9-.7-.5zm.1-.1l.2-.8-.6-.1-.3.4.7.5zm.2 0l-.2.8 2.3.6-1.5-1.9-.6.5zm-.1-.1l-.7-.5-.3.5.3.5.7-.5zm0-.2l.8.4 1.2-2-2.2.8.3.8zm-.1 0l-.6.6.3.4.6-.2-.3-.7zm-1 0v.2l1.7-.1v-.2h-1.7zm.6-.6H59l.6 1.6.2-.1-.6-1.5zm-.1 1.6h.1l.5-1.5h-.2l-.4 1.5zm-.4-.7v.2l1.6-.1V11l-1.6.1zm1.5.6v-.2l-1.3-.9v.2l1.3 1zm-.8.2h.2l.4-1.6h-.2l-.4 1.6zm1-1.3v-.1l-1.4 1 .1.1 1.3-1zm0 .8v-.2l-1.3-.8-.1.1 1.4 1zm-1-1.4v.1l.5 1.5h.1l-.5-1.6zm.8.4l-.1-.2-1.3 1 .2.2 1.2-1z" fill="currentColor" mask="url(#t)"></path><mask id="u" fill="#fff"><path d="M53.7 16h-.2l.2-.4h.2l.1.2v-.3h-.2l-.1-.1h-.1l-.2.5v.1l.3.2h.1V16z"></path></mask><path d="M53.7 16h-.2l.2-.4h.2l.1.2v-.3h-.2l-.1-.1h-.1l-.2.5v.1l.3.2h.1V16z" fill="#036"></path><path d="M53.7 16l.4-.8-.8-.3-.3.8.7.3zm0 0l-.3.8.7.3.4-.7-.8-.4zm-.2 0l-.7-.4-.4.7.8.4.3-.8zm.2-.4l.3-.8-.7-.3-.4.7.8.4zm.2 0l.7.4.4-.8-.8-.3-.3.7zm0 0l-.8-.3-.3.8.7.3.4-.7zm.1.2l-.3.7.7.3.4-.7-.8-.3zm0-.1l-.7-.4.8.4zm0-.2l.4-.7-.4.7zm-.2 0l-.3.7.3-.7zm-.1-.1l-.4.7.4-.7zm-.1 0l.7.4-.7-.4zm-.2.5l.7.4-.7-.4zm0 .1l-.3.8.3-.8zm.3.2l.4-.8-.4.8zm.1 0l-.7-.4.7.3zm0-.2l.8.4.4-.8-.8-.3-.3.7zm-.8-.3l1.5.7-1.5-.7zm1-.4l-.1-.1-.7 1.5h.2l.7-1.4zm.3 1l.1-.4-1.5-.7-.1.4 1.5.7zm-1 0h.3l.6-1.4H54l-.7 1.4zm-.1-1l1.4.7-1.4-.7zm.3 1.1l.2.1.7-1.5h-.2l-.7 1.4zm1.3-.3V16l-1.5-.7v.1l1.5.7zm0-.1c.2-.5 0-1-.4-1.2l-.7 1.5a.7.7 0 01-.4-1l1.5.7zm-.5-1.2a5.6 5.6 0 00-.1 0l-.7 1.4h.2l.6-1.4zm-.1 0v-.1a2.3 2.3 0 01-.1 0l-.8 1.4a4 4 0 00.2 0l.7-1.4zm-.1-.1a1 1 0 00-1.3.4l1.5.7c-.1.3-.6.5-1 .3l.8-1.4zm-1.3.4l-.2.5 1.5.7.2-.5-1.5-.7zm-.2.5c-.2.4 0 1 .5 1.2l.6-1.5c.4.2.6.6.4 1l-1.5-.7zm.5 1.2l.3.1.6-1.5-.3-.1-.6 1.5zm.3.1c.4.2 1 0 1.2-.4l-1.5-.7c.2-.4.6-.5 1-.4l-.7 1.5zm1.2-.4v-.1l-1.5-.7v.1l1.5.7zm-.4-1.2h-.1l-.7 1.4h.1l.7-1.4z" fill="currentColor" mask="url(#u)"></path><mask id="v" fill="#fff"><path d="M51.6 11.9H51v-.2h.8v.2z"></path></mask><path d="M51.6 11.9H51v-.2h.8v.2z" fill="#036"></path><path d="M51.6 11.9v.8h.8V12h-.8zm-.7 0l-.8-.1v.8h.8v-.8zm0-.2v-.9h-.7v.8h.7zm.8 0l.8.1.1-.9h-.9v.8zm0 0l.8.1h-.9zm0-.7H51l-.1 1.6h.7l.1-1.6zm0 .9v-.2l-1.6-.1v.2h1.6zm-.8.6h.7l.1-1.6H51l-.1 1.6zm0-1v.3h1.6l-1.7-.2zm0 .2v.1l1.6.1-1.7-.2z" fill="currentColor" mask="url(#v)"></path><path d="M51 13.3h.1zm0 0h.1zm.1 0h.1zm0 0h0s0 0 0 0h0zm.1 0v-.1h0z" fill="#036" stroke="currentColor" stroke-width="0.817"></path><mask id="w" fill="#fff"><path d="M51.2 12.5h.5v.1H51l.4-.4h-.5v-.1h.7v.1l-.4.3z"></path></mask><path d="M51.2 12.5h.5v.1H51l.4-.4h-.5v-.1h.7v.1l-.4.3z" fill="#036"></path><path d="M51.2 12.5l-.4-.6-2.3 1.7 2.8-.3v-.8zm.5 0l.8-.1v-.8h-1l.2.9zm0 0l-.8.1h.8zm0 .1v.8h.9l-.1-.9-.8.1zm-.7 0l-.9.2.1.8.8-.1v-.8zm0 0l-.5-.7-.4.3v.4h.8zm.4-.4l.5.7 2-1.6-2.6.1v.8zm-.5 0h-.8v.9h.8v-.9zm0-.1v-.8H50v.8h.8zm.7 0h.9v-.9h-.9v.9zm0 .1l.5.7.4-.3v-.4h-.9zm-.3 1.1h.4l-.1-1.6h-.4l.1 1.6zm-.4-.8v.1l1.6-.1v-.1l-1.6.1zm0 .1a2.4 2.4 0 010 .1l1.6-.2-1.6.1zm.7-.8h-.7l.1 1.7h.8l-.2-1.7zm.2.8v-.1l-1.7.1v.2l1.7-.2zm-.4.6l.5-.3-1-1.3-.4.3 1 1.3zm0-1.8h-.5V13h.5v-1.6zm.3.8v-.1h-1.6v.1h1.6zm-.8.7h.8v-1.7h-.8V13zm0-.8h1.6-1.7zm0 0v.1h1.6-1.7zm.2-.5l-.3.3 1 1.3.3-.3-1-1.3z" fill="currentColor" mask="url(#w)"></path><mask id="x" fill="#fff"><path d="M51.4 14h.1l.6-.2v-.1l-.6.2v-.2l.4-.3v-.1l-.6.2v.5z"></path></mask><path d="M51.4 14h.1l.6-.2v-.1l-.6.2v-.2l.4-.3v-.1l-.6.2v.5z" fill="#036"></path><path d="M51.4 14l-.8.3.8-.3zm.1 0l-.3-.7.3.7zm.6-.2l.3.7.8-.3-.4-.7-.7.3zm0-.1l.7-.4-.3-.7-.8.3.3.8zm-.6.2l-.7.3.3.8.7-.4-.3-.7zm0-.2l-.4-.8-.8.3.4.8.7-.3zm.4-.3l.4.8.7-.3-.3-.8-.8.3zm0-.1l.7-.3-.3-.8-.8.4.4.7zm-.6.2l-.3-.7.3.7zm0 .2l.7-.3-.8.3zm-.7.6c.2.5.8.7 1.2.5l-.6-1.5c.4-.2.8 0 1 .4l-1.6.6zm1.2.5l.6-.3-.6-1.5-.6.3.6 1.5zm1-1.3v-.2l-1.5.7v.1l1.5-.6zm-1.1-.6l-.5.2.6 1.5.6-.2-.7-1.5zm.6.7l-.1-.3-1.5.7v.2l1.6-.6zm-.6.8l.6-.2-.7-1.5-.5.2.6 1.5zm1-1.3V13l-1.6.6v.2l1.6-.7zm-1.2-.5l-.5.2.6 1.5.6-.3-.7-1.4zm-.5.2a1 1 0 00-.5 1.2l1.5-.7c.2.4 0 .9-.4 1l-.6-1.5zm-.5 1.2l.1.3 1.5-.6-.1-.3-1.5.6z" fill="currentColor" mask="url(#x)"></path><mask id="y" fill="#fff"><path d="M52.1 15.1h.2l.1-.1.2-.1-.1.2V15h-.2l.1.2v.3l.4-.7-.1-.2-.7.4.1.1z"></path></mask><path d="M52.1 15.1h.2l.1-.1.2-.1-.1.2V15h-.2l.1.2v.3l.4-.7-.1-.2-.7.4.1.1z" fill="#036"></path><path d="M52.1 15.1l-.5.6.4.4.5-.3-.4-.7zm.2 0l-.4-.8.4.8zm.1-.1l-.4-.7.4.7zm.2-.1l.7.4 1.2-2.4-2.3 1.3.4.7zm-.1.2l-.6.5.8.8.5-1-.7-.3zm0-.1l.5-.6-.4-.4-.6.3.4.7zm-.2 0l-.4-.7-1 .6.8.7.6-.5zm.1.2l.7.4.3-.5-.4-.5-.6.6zm0 .1l-.8-.4-.3.6.5.4.5-.6zm0 .2l-.5.5.8.8.5-1-.7-.3zm.4-.7l.8.3.2-.5-.4-.4-.6.6zm-.1-.2l.6-.5-.5-.5-.5.3.4.7zm-.7.4l-.4-.7-1 .5.8.8.6-.6zm.5.8h.1l-.7-1.5-.2.1.8 1.4zm.1 0l.2-.1-.8-1.4.7 1.5zm.2-.1l.2-.1-.8-1.4H52l.8 1.5zm-1-1.2v.2l1.4.7.1-.1-1.4-.8zm1.3 0l-.1-.1-1.2 1.2h.1l1.2-1.1zm-1-.2h-.2l.7 1.5.2-.1-.8-1.4zm-.4 1.3l.1.2 1.2-1.2-.2-.1-1.1 1.1zm0-.8v.1l1.4.8v-.1l-1.4-.8zm0 1.1l.2.1 1.1-1v-.1L51.8 16zm1.5 0l.4-.8-1.5-.7-.4.7 1.5.7zm.2-1.7l-.1-.1-1.2 1.1.2.2 1.1-1.2zm-1-.3l-.8.4.8 1.4.7-.3-.8-1.5zm-1 1.7l.2.1 1.1-1.2h-.1l-1.2 1z" fill="currentColor" mask="url(#y)"></path><mask id="z" fill="#fff"><path d="M52.4 14.3v.1l-.2.2-.3.2-.1-.1.2-.2-.1-.2h.2v.1h.1v-.2H52l-.1.1-.2.2-.1-.1.6-.4.2.3z"></path></mask><path d="M52.4 14.3v.1l-.2.2-.3.2-.1-.1.2-.2-.1-.2h.2v.1h.1v-.2H52l-.1.1-.2.2-.1-.1.6-.4.2.3z" fill="#036"></path><path d="M52.4 14.3l.7-.4-.7.4zm0 .1l-.4-.6.4.6zm-.2.2l-.4-.7.4.7zm0 0l.6-.5-.7.5zm0 0l.3.7h.1l.1-.2-.6-.5zm0 0l.6-.5V14l-.2-.1-.5.7zm0 0l.4.7-.5-.7zm-.3.2l-.4-.7.4.7zm0 0l.5.7.5-.3-.2-.7-.8.3zm0 0l-.7.5.5.7.7-.5-.5-.7zm-.1-.1l-.8-.1v.3l.1.3.7-.5zm0 0l-.4-.7.4.6zm.2-.2l-.5-.6.5.6zm0 0l.7-.5-.7.5zm-.1-.2l-.5-.6-.6.4.4.7.7-.5zm.1 0l.7-.5-.5-.7-.6.5.4.7zm.1 0l.7-.4-.7.5zm0 .1l.5.7-.4-.7zm.1 0l.5.7-.5-.7zm0 0l.7-.5-.7.4zm0-.2l.6-.5-.5-.7-.6.5.4.7zm-.2 0l.5.7-.5-.6zm-.1.1l-.5-.6.5.6zm-.2.2l-.7.5.5.6.6-.4-.4-.7zm-.1-.1l-.5-.7-.7.5.5.6.7-.4zm.6-.4l.7-.5-.5-.7-.7.5.5.7zm-.4.8a.7.7 0 01.2-1l.9 1.3c.4-.3.5-.8.2-1.2l-1.3 1zm.2-1l-.2.1.9 1.3h.2l-1-1.4zm-.3.1c.4-.2.9-.2 1.1.2l-1.4.9c.3.4 1 .5 1.3.2l-1-1.3zm1.1.2a.8.8 0 00-1.2-.1l1.1 1.1c-.3.4-1 .4-1.2 0l1.3-1zm-1-.3a.8.8 0 00-.1 1.4l.9-1.3a.8.8 0 01-.1 1.4l-.7-1.5zm-.3 1.2a.8.8 0 01.2-1l.9 1.3c.4-.3.5-.8.2-1.2l-1.3 1zm.2-1h-.2l.9 1.5v-.1h.2l-1-1.4zm-.2.1l-.2.2a.9.9 0 00-.2.8l1.6-.6a.8.8 0 01-.1.8l-.2.1-1-1.3zm0 0l.9 1.4-1-1.3zm1 .3v-.2l-1.4 1 .1.1 1.4-1zm.1.4c0 .3-.2.5-.3.5l-1-1.3s-.3.2-.3.6l1.6.2zm-.3.5h.1l-.9-1.4a1.2 1.2 0 00-.1 0l1 1.4zm.1 0c.5-.4.5-.9.3-1.3l-1.4.9a.8.8 0 01.2-1l1 1.3zm.3-1.3l-.1-.1-1.4 1h.1l1.4-.9zm-.3 1l-.8-1.4h-.2l1 1.4zm-1-.3v.2l1.4-1v-.1l-1.4 1zm0 .2c.3.3.9.4 1.2.2l-.9-1.4c.4-.2.9-.1 1.1.2l-1.3 1zm1.2.2l-.8-1.4.8 1.4zm0 0c.5-.3.6-.8.3-1.2l-1.3.9a.8.8 0 01.2-1.1l.9 1.4zm.3-1.2v-.2l-1.4 1L53 14zm-1.2-.4h-.1l.9 1.4h.1l-1-1.4zm-.1 0l-.2.2 1 1.3-.8-1.4zm-.2.2l-.2.1 1 1.4.2-.2-1-1.3zm1 .3l-.2-.1-1.3 1h.1l1.3-.9zm-.4 1l.6-.4-.9-1.3-.6.4 1 1.3zm-.5-.6l.3.5 1.3-1-.2-.4-1.4.9z" fill="currentColor" mask="url(#z)"></path><mask id="A" fill="#fff"><path d="M54.6 15.9v-.2l-.4-.1-.2.7.4.1v-.1l-.2-.1V16h.2-.2v-.2h.4z"></path></mask><path d="M54.6 15.9v-.2l-.4-.1-.2.7.4.1v-.1l-.2-.1V16h.2-.2v-.2h.4z" fill="#036"></path><path d="M54.6 15.9l-.3.8.8.2.2-.8-.7-.2zm0-.2l.8.2.2-.8-.8-.2-.2.8zm-.4-.1l.2-.8-.8-.3-.2.9.8.2zm-.2.7l-.8-.2-.2.7.7.3.3-.8zm.4.1l-.2.8.8.2.2-.8-.8-.2zm0-.1l.8.2.2-.8-.7-.2-.3.8zm-.2-.1l-.8-.3-.3.8.8.3.3-.8zm0-.1l.2-.8-.8-.3-.2.8.8.3zm.2 0l-.2.8.8.2.2-.7-.8-.3zm0-.1l.9.2.2-.8-.8-.2-.2.8zm-.2 0l-.7-.3-.3.8.8.2.2-.8zm0-.2l.3-.8-.8-.2-.2.8.8.2zm1.1.3v-.2l-1.5-.4v.1l1.5.5zm-.5-1.2h-.4l-.5 1.5.5.1.4-1.6zm-1.4.5l-.2.7 1.6.4.2-.7-1.6-.4zm.3 1.7l.5.1.4-1.6-.4-.1-.5 1.6zm1.5-.5v-.1l-1.5-.5v.2l1.5.4zm-.5-1.1l-.3-.1-.5 1.6h.3l.5-1.5zm.2 1v-.2l-1.5-.5v.1l1.5.5zm-1 .3l.3.1.5-1.6h-.3l-.4 1.5zm1.3-.4v-.2l-1.5-.4v.1l1.5.5zm-.5-1.2h-.2l-.5 1.5h.3l.4-1.5zm.3 1V16l-1.5-.4 1.5.5zm-1 .4h.3l.5-1.5-.3-.1-.4 1.6z" fill="currentColor" mask="url(#A)"></path><mask id="B" fill="#fff"><path d="M53.2 15.6l.2-.4h.1l-.4.7H53v-.6l-.3.3.3-.6h.1v.6z"></path></mask><path d="M53.2 15.6l.2-.4h.1l-.4.7H53v-.6l-.3.3.3-.6h.1v.6z" fill="#036"></path><path d="M53.2 15.6h-.9v2.8l1.5-2.4-.6-.4zm.2-.4l.5-.7-.7-.5-.5.8.7.4zm0 0l.5-.6-.4.6zm.1 0l.7.5.4-.6-.6-.5-.5.7zm-.4.7l-.4.7.6.4.5-.7-.7-.4zm-.1 0l-.8-.1v.4l.3.3.5-.7zm0-.6h.8l.1-2.5-1.5 2 .6.5zm-.3.3l-.5.7.7.5.5-.7-.7-.5zm0 0L52 15l-.5.7.6.5.5-.7zm.3-.6l.6-.7-.7-.5-.5.7.6.5zm.1 0l.5-.6-.5.6zm0 0h.9v-.3l-.3-.3-.5.7zm.7 1l.3-.3-1.4-1-.2.4 1.3 1zm-.8 0h.1l1-1.3H54L53 16zm0 0a1.8 1.8 0 00.1 0l1-1.3-1 1.3zm0-1l-.5.5 1.4 1 .4-.7-1.4-.9zm.7.3h-.2l-.9 1.3h.2l.9-1.3zm.2.6v-.5h-1.6v.5h1.6zm-1.4-1l-.3.3 1.3 1 .3-.3-1.3-1zm.8.2V15l-1 1.3 1-1.2zm0 1l.5-.5-1.3-1-.4.5 1.3 1zm-.7-.4h.1l1-1.2-1 1.2zm.1 0v.1l1-1.3-1 1.3zm-.2-.6v.5H54v-.4h-1.6z" fill="currentColor" mask="url(#B)"></path><mask id="C" fill="#fff"><path d="M55.8 16.5l-.2-.6.1-.1h.4l.1.6H56v-.5h-.3v.4h.3v.2h-.3z"></path></mask><path d="M55.8 16.5l-.2-.6.1-.1h.4l.1.6H56v-.5h-.3v.4h.3v.2h-.3z" fill="#036"></path><path d="M55.8 16.5v-.8.8zm0 0h-.9.8zm-.2-.6l-.8.1.8-.1zm.1-.1V15v.8zm.2 0v.8h.1l-.1-.8zm.2 0l.1.7-.1-.8zm0 0h.9-.8zm.1.6h-.8.8zm0 0l-.8.5.3.5.6-.1-.1-.8zm-.1 0h-.8v.3l.8-.4zm0-.5l.7-.1V15l-.9.1.1.8zm-.3 0l-.1-.8-.8.1v.9l.9-.2zm0 .4l-.8.2.2.8.8-.1-.1-.9zm.3 0l.7-.4-.3-.5-.5.1v.8zm0 .2l.2.8 1.1-.2-.5-1-.7.4zm-.4-.8c.4 0 .8.2.8.6l-1.6.2c0 .5.5.9 1 .8l-.2-1.6zm.8.6v-.5l-1.7.2.1.5 1.6-.2zm0-.5c0 .4-.3.7-.7.8l-.2-1.6a1 1 0 00-.8 1l1.6-.2zm-.7.8a1.1 1.1 0 01.1 0V15h-.3l.2 1.6zm.2 0h.2l-.3-1.7h-.1l.2 1.7zm.2 0a.7.7 0 01-.8-.7l1.6-.2a1 1 0 00-1.1-.8l.3 1.6zm-.8-.7v.6l1.7-.3-.1-.5-1.6.2zm0 .6c0-.4.2-.8.6-.8l.3 1.6c.5-.1.8-.6.8-1l-1.7.2zM57 16l-.1-.2-1.4.8v.2L57 16zm0 .1v-.4l-1.7.2v.4l1.7-.2zM56 15h-.2l.2 1.6h.2L56 15zm-1 1l.1.4 1.7-.3v-.4l-1.7.3zm1 1h.3l-.2-1.6h-.3l.3 1.7zm-.5-.4v.2L57 16l-.1-.2-1.4.8zm.6-1h-.3l.2 1.6h.4l-.3-1.6z" fill="currentColor" mask="url(#C)"></path><mask id="D" fill="#fff"><path d="M57.4 15.2h.1l.1.3v.1l-.3.2v-.2h.1v-.1h-.2v.1l.1.2.2.2-.2.1-.3-.6.4-.3z"></path></mask><path d="M57.4 15.2h.1l.1.3v.1l-.3.2v-.2h.1v-.1h-.2v.1l.1.2.2.2-.2.1-.3-.6.4-.3z" fill="#036"></path><path d="M57.4 15.2l-.4-.7.4.7zm.1 0l.7-.3-.7.4zm.1.3l.8-.3-.8.3zm0 .1l.4.8-.4-.8zm-.3.2l-.7.4.4.7.7-.4-.4-.7zm0-.2l-.4-.7-.7.4.3.7.8-.4zm.1 0l.4.7-.4-.7zm0-.1l.8-.4-.8.4zm0 0l-.7.3.7-.3zm0 0l.3.7-.3-.8zm-.2 0l-.4-.7-.7.4.4.7.7-.4zm0 .1l.8-.3-.7.3zm.1.2l-.7.4.7-.4zm.2.2l.4.7.7-.3-.4-.8-.7.4zm-.2.1l-.7.4.4.8.8-.5-.5-.7zm-.3-.6l-.4-.8-.7.4.4.7.7-.3zm.8.5c-.4.1-.8 0-1-.3l1.4-.8a.9.9 0 00-1.2-.4l.8 1.5zm-1-.4l.1.3 1.5-.7-.2-.3-1.4.7zm.1.3c-.2-.3 0-.8.3-1l.8 1.4c.4-.2.6-.7.4-1.1l-1.5.7zm.3-1l-.2.2.7 1.4.3-.1-.8-1.5zm.9.5l-.1-.1-1.5.7.1.2 1.5-.8zm-.5 1l.2-.1-.8-1.5-.1.1.7 1.5zm.3-.2c.3-.2.5-.6.3-1l-1.5.7c-.2-.4 0-.9.3-1l.9 1.3zm.3-1V15l-1.5.7 1.5-.7zm0-.1a.9.9 0 00-1.2-.4l.7 1.5c-.3.2-.8 0-1-.4l1.4-.7zm-1.2-.4l-.2.1.8 1.4h.1l-.7-1.5zm-.5 1.2v.1l1.5-.7V15l-1.5.8zm0 .1l.1.2 1.5-.8-.1-.1-1.5.7zm.1.2l.2.2 1.4-.8-.1-.2-1.5.8zm.5-.9l-.2.1.9 1.4-.7-1.5zm1 .4l-.4-.6-1.4.7.3.7 1.4-.8zm-.8.5l.5-.3-.8-1.4a3.6 3.6 0 01-.4.2l.7 1.5z" fill="currentColor" mask="url(#D)"></path><mask id="E" fill="#fff"><path d="M59.5 13.9l-.5-.3v.2h-.2l.2-.5h.1v.2l.5.2v.2z"></path></mask><path d="M59.5 13.9l-.5-.3v.2h-.2l.2-.5h.1v.2l.5.2v.2z" fill="#036"></path><path d="M59.5 13.9l-.3.7.7.3.4-.7-.8-.3zm-.5-.3l.3-.7-.7-.3-.4.7.8.3zm0 .2l-.4.7.8.4.3-.8-.8-.3zm-.2 0l-.7-.5-.5.8.9.4.3-.8zm.2-.5l.3-.7-.8-.4-.3.8.8.3zm.1 0l.8.4.3-.8-.8-.3-.3.8zm0 .2l-.8-.3-.3.7.7.4.4-.8zm.5.2l.7.4.3-.8-.7-.3-.3.7zm.2-.6l-.5-.2-.6 1.5.5.2.6-1.5zm-1.6.2v.2l1.5.6V14l-1.5-.7zm1-.3l-.7 1.5h.1l.7-1.5zm.3 1.1l.2-.5-1.5-.6-.1.3 1.4.8zm-.9 0h.2l.6-1.5h-.1l-.7 1.4zm-.2-1h-.1l1.5.7v-.1l-1.4-.7zm.3 1.2l.6.2.6-1.5-.5-.2-.7 1.5zm.1-.9v.2l1.5.6v-.1l-1.5-.7z" fill="currentColor" mask="url(#E)"></path><mask id="F" fill="#fff"><path d="M55.4 16.3H55V16h.3v.1h.1v-.2h-.5v.7h.5v-.2h-.1z"></path></mask><path d="M55.4 16.3H55V16h.3v.1h.1v-.2h-.5v.7h.5v-.2h-.1z" fill="#036"></path><path d="M55.4 16.3v-.8h-.8v.8h.8zm0 0v.9h.8v-.8h-.8zm-.3 0h-.8v.8h.8v-.7zm0-.4v-.8h-.7v.8h.8zm.3 0h.8v-.7h-.8v.8zm0 .1h-.8v.8h.8V16zm.1 0v.8h.8V16h-.8zm0-.1h.9-.9zm0-.1V15v.8zm-.2 0v.8-.8zm-.2 0V15v.8zm-.1 0h-.8.8zm0 .6h-.8.8zm0 .1v.8-.8zm.4 0v-.8.8zm.1 0l-.8-.1h.8zm0-.2h.8v-.7h-.7v.7zm-1 0l1.7.1-1.6-.1zm1-.7h-.3v1.6h.1l.1-1.6zm.5.8V16h-1.7v.3H56zm-.9.4h.3V15h-.2v1.7zm-.5-.9l1.6.1h-1.6zm.8 1h.1v-1.7l-.1 1.6zm1-.9l-1.7-.1 1.7.1zm0 0c0-.6-.4-1-1-1v1.6a.7.7 0 01-.7-.7h1.7zm-1-1h-.1v1.6h.1V15zm-.1 0a1.6 1.6 0 00-.1 0l-.2 1.6h.2l.1-1.6zm-.1 0a1 1 0 00-1 .8l1.6.1c0 .4-.3.7-.8.7l.2-1.6zm-1 .9v.5h1.6V16h-1.6zm0 .5c0 .5.3 1 .8 1l.1-1.7c.4 0 .7.4.7.7h-1.6zm.8 1h.4v-1.7h-.3v1.6zm.4 0c.5 0 1-.4 1-1h-1.7c0-.4.4-.7.8-.7l-.1 1.6zm1-1l-1.7-.1v.1h1.6zm-.8-.9h-.2v1.6l.2-1.6z" fill="currentColor" mask="url(#F)"></path><path d="M56.8 15.6s0 0 0 0 0 0 0 0 0 0 0 0 0 0 0 0h0z" fill="#036" stroke="currentColor" stroke-width="0.817"></path><mask id="G" fill="#fff"><path d="M58 15.7l-.4-.5v-.1l.2-.1v-.1h.2l.4.4v.1h-.2L58 15l-.1.2.2.3.2-.1h.2l-.3.3z"></path></mask><path d="M58 15.7l-.4-.5v-.1l.2-.1v-.1h.2l.4.4v.1h-.2L58 15l-.1.2.2.3.2-.1h.2l-.3.3z" fill="#036"></path><path d="M58 15.7l-.4-.7.5.7zm0 0l.6-.6-.6.5zm-.4-.5l.7-.5-.7.5zm0-.1l-.5-.7.5.7zm.2-.1l-.5-.7.5.7zm0-.1l-.5-.6.6.6zm.2 0l-.6.5.6-.5zm.4.4l-.7.5.7-.5zm0 .1l-.5.7.5.3.5-.3-.5-.7zm-.2 0l-.6.5.2.2.4-.7zM58 15l.7-.5-.5-.6-.7.5.6.6zm-.1.2l-.5-.7-.7.6.5.6.7-.5zm.2.3l-.6.5.5.6.6-.5-.5-.6zm.2-.1l.4-.8-.5-.2-.4.3.5.7zm.2 0l.5.7.9-.8-1-.6-.4.7zm-.8-.4c.3-.2.7-.2 1 .1l-1.3 1c.3.4 1 .5 1.3.2l-1-1.3zm1 .1l-.3-.4-1.3 1 .3.5 1.3-1zm-.4-.4c.3.3.3.8 0 1l-1-1.3a1 1 0 00-.2 1.4l1.2-1.1zm0 1l-1-1.4v.1l1 1.3zm0 0l.2-.2-1-1.2a5 5 0 01-.1 0l1 1.3zm.2-.2c-.3.3-.8.2-1-.1l1.3-1a1 1 0 00-1.4-.1l1.1 1.2zm-1-.1l.3.4 1.3-1-.3-.4-1.3 1zm.3.4a.7.7 0 01.1-1l1 1.3c.5-.3.5-1 .2-1.3l-1.3 1zm1-1v-.2l-.9 1.5h.1l.9-1.4zm.1 0l-.2-.3-1.3 1 .3.4 1.2-1zm-1.4-.4l-.1.1 1 1.3.2-.1-1-1.3zm-.3 1.3l.3.3 1.3-1-.3-.3-1.3 1zm1.4.4l.2-.1-1-1.3-.2.2 1 1.2zm-.7 0h.1l.9-1.4h-.2l-.8 1.4zm0-1.3l-.2.2 1 1.3.3-.2-1-1.3z" fill="currentColor" mask="url(#G)"></path><mask id="H" fill="#fff"><path d="M58.4 14.4l.3.1v.1l.2.1h.1l-.1.2-.2-.1h-.4l.1-.2h-.2l.1.2h.1l.2.3-.6-.4.3-.3z"></path></mask><path d="M58.4 14.4l.3.1v.1l.2.1h.1l-.1.2-.2-.1h-.4l.1-.2h-.2l.1.2h.1l.2.3-.6-.4.3-.3z" fill="#036"></path><path d="M58.4 14.4l-.6-.6.6.6zm0 0l-.5.6.6-.7zm.3.1l.5-.6-.5.6zm0 0l.4.8h.1V15l-.5-.5zm0 .1l.5-.6-.2-.1-.3.7zm0 0L58 14l-.1.1v.1l.7.4zm0 0l-.5.6.6-.6zm.2.1l-.6.6h.1l.5-.6zm.1 0l.6-.5-.5-.5-.6.4.5.6zm0 0l.6.6.5-.5-.5-.6-.6.6zm-.1.2v.8h.4l.2-.3-.6-.5zm0 0l.5-.6-.6.6zm-.2-.1l.6-.6-.6.6zm0 0l.5.5-.6-.5zm-.2 0l-.5.7.6.5.5-.6-.6-.5zm-.1 0l-.6-.6-.5.6.6.6.5-.6zm.1-.2l-.6-.5.6.5zm0 0l-.5.6.5-.6zm0 0l.5-.7-.5.7zm0 0l.5.5-.6-.5zm-.2 0l-.6-.5-.5.6.6.6.5-.6zm.1.2l-.5.6.5-.6zm.1 0l-.5.7.5-.6zm.2.3l.6.5.6-.6-.6-.6-.6.7zm0 0l-.6.7.6.5.5-.6-.6-.5zm-.6-.4l-.6-.6-.6.7.6.5.6-.6zm1 .2c-.4.3-.8.3-1.2 0l1.1-1.2a.9.9 0 00-1.2.1l1.2 1zm-1.2 0l.2.2 1.1-1.2-.2-.2-1 1.3zm.2.2a.8.8 0 010-1l1.2 1c.3-.3.3-.9 0-1.2L58 15.1zm.1-1.2a.8.8 0 00.1 1.4L59 14a.8.8 0 01.1 1.4l-.9-1.4zm-.1 1.3a.8.8 0 001.3-.2l-1.5-.8a.8.8 0 011.3-.2l-1.1 1.2zm1.2 0c-.3.2-.8.3-1 0l1-1.2a.9.9 0 00-1.2 0l1.2 1.2zm-1 0v.1l1.2-1.1V14a13.4 13.4 0 00-.2-.1l-1 1.2zm.1.2a.9.9 0 00.6.2l.4-.2-.9-1.3a.8.8 0 011 0l-1 1.3zm0-.1l1.2-1v-.1l-1.2 1zm0-1h-.1l1.2 1.1.1-.1-1.2-1zm.4-.2a.8.8 0 01.6.2l-1.1 1.2s.3.2.7.2l-.2-1.6zm.6.2l-.1-.1-1.2 1.1v.1h.1l1.2-1.1zm-.2-.2a.9.9 0 00-1.2.1l1.2 1c-.3.4-.7.4-1 .2l1-1.3zm-1.2.1v.1l1.1 1.1.1-.1-1.2-1zm1 0l-1.1 1.2 1.2-1.1zm0 1.1l.1-.1L58 14l-.1.1 1.2 1.1zm.1-.1c.3-.3.3-1 0-1.3L58 15.2a.8.8 0 010-1.1l1.1 1.1zm0-1.2l-1.2 1.2 1.2-1.2zm-.1 0a.9.9 0 00-1.2 0l1.2 1c-.2.4-.7.4-1 .2l1-1.3zm-1.2 0l-.1.1 1.2 1.1.1-.1-1.2-1zm0 1.3l1.1-1.1V14l-1.1 1.2zm0 0l.2.2 1-1.2v-.1l-1.1 1.2zm.2.2l.2.2 1-1.3-.1-.1-1.1 1.2zm.1-1v.1l1.1 1.1.1-.1-1.2-1zm1 0l-.5-.4-1 1.2.5.5 1-1.2zm-.4.8l.3-.5-1.3-1-.2.3 1.2 1.2z" fill="currentColor" mask="url(#H)"></path><mask id="I" fill="#fff"><path d="M59.2 14.5H59l-.1-.2-.2-.1h.2v.2l.2-.2h.2l-.7-.3-.1.2.5.6v-.2z"></path></mask><path d="M59.2 14.5H59l-.1-.2-.2-.1h.2v.2l.2-.2h.2l-.7-.3-.1.2.5.6v-.2z" fill="#036"></path><path d="M59.2 14.5l.7.5.3-.5-.4-.5-.6.5zm-.1 0l-.6.5.6-.6zm-.1-.2l.6-.5-.6.5zm-.2-.1l.2-.8-2.5-.7 1.7 2 .6-.5zm.2 0l.7.4.6-1-1-.2-.3.8zm0 .1l-.7-.4-.3.5.3.4.7-.5zm0 .1l-.5.6.7.8.6-1-.7-.4zm.2-.2l.2-.7-.6-.2-.3.5.7.4zm.1 0l-.2.9.6.1.3-.5-.7-.4zm.1 0l.7.4.6-1-1-.3-.3.8zm-.7-.3l.2-.7-.6-.2-.3.5.7.4zm-.1.2l-.7-.4-.3.5.4.4.6-.5zm.5.6l-.6.5.7.9.6-1-.7-.4zm.7-.7l-.1-.1-1.2 1v.2l1.3-1.1zm-.1-.1l-.1-.1-1.3 1 .2.2 1.2-1.1zm-.1-.1l-.1-.2-1.3 1 .1.2 1.3-1zm-1 1.1h.2l.4-1.5H59l-.4 1.5zm-.3-1.1l1.4 1v-.2l-1.4-.8zm0 1l.2.2 1.2-1.1-.1-.1-1.3 1zm1.5 0v-.1l-1.3-.9-.1.2 1.4.9zm-.8.2h.1l.4-1.5h-.1L59 15zm1-.3l.1-.1-1.4-.9v.1l1.3 1zm-.4-1.4l-.7-.1-.4 1.5.7.2.4-1.6zm-1.6.2l-.1.2 1.4.8v-.1l-1.3-.9zm0 1.1l.5.6 1.2-1-.5-.6-1.2 1zm1.8.5V15l-1.3-.9-.1.2 1.4.8z" fill="currentColor" mask="url(#I)"></path><mask id="J" fill="#fff"><path d="M59 13l.8.2v.2l-.8-.2V13z"></path></mask><path d="M59 13l.8.2v.2l-.8-.2V13z" fill="#036"></path><path d="M59 13l.3-.7-.8-.3-.2.8.8.2zm.8.2l.7.3.3-.8-.8-.2-.2.7zm0 .2l-.3.8.7.2.3-.8-.8-.2zm-.8-.2l-.8-.3-.3.8.9.3.2-.8zm0 0l-.7-.4.7.3zm-.2.6l.7.2.5-1.5-.7-.2-.5 1.5zm.2-.8v.2l1.5.4v-.1L59 13zm1-.4l-.8-.2-.4 1.6.7.2.4-1.6zm-.2.9v-.2l-1.5-.4 1.5.6zm0-.1v-.2l-1.5-.4 1.5.6z" fill="currentColor" mask="url(#J)"></path><mask id="K" fill="#fff"><path d="M59.6 11.8h-.4v-.2h.7v.2l-.4.3h.4v.1h-.7V12l.4-.3z"></path></mask><path d="M59.6 11.8h-.4v-.2h.7v.2l-.4.3h.4v.1h-.7V12l.4-.3z" fill="#036"></path><path d="M59.6 11.8l.5.7 2.3-1.6h-2.8v.9zm-.4 0h-.8v.9h.8v-.9zm0-.2v-.8h-.9v.9h.9zm.7 0h.8v-.8h-.8v.8zm0 .2l.5.7.3-.3v-.4H60zm-.4.3l-.5-.7-2 1.4h2.4v-.7zm.4 0h.8v-.8H60v.8zm0 .1v.9h.8v-.8H60zm-.7 0h-.8v.8h.8v-.8zm0-.1l-.5-.7-.3.2v.4h.8zm.4-1.1h-.4v1.6h.4V11zm.4.8v-.1h-1.6v.1H60zm0-.1v-.1l-1.6.1H60zm-.8.8h.7v-1.7h-.7v1.7zm-.1-.9v.2h1.6v-.2h-1.6zm.4-.5l-.5.3 1 1.4.4-.3-1-1.4zm0 1.8h.4v-1.6h-.4v1.6zM59 12v.1h1.6L59 12zm.8-.7h-.7V13h.7v-1.6zm.1.9v-.1h-1.6H60zm0-.1V12h-1.6H60zm-.3.5l.4-.2-1-1.4-.4.3 1 1.3z" fill="currentColor" mask="url(#K)"></path><mask id="L" fill="#fff"><path d="M59.8 13h-.6v-.6h.6s.1.1 0 .2h-.5v.2h.4v-.2h.2v.3z"></path></mask><path d="M59.8 13h-.6v-.6h.6s.1.1 0 .2h-.5v.2h.4v-.2h.2v.3z" fill="#036"></path><path d="M59.8 13h.8-.8zm0 0l-.2.8.1-.8zm-.6 0l-.1.7.1-.8zm0-.2l.7.1-.8-.1zm0-.2h-.9.9zm0-.1l-.8-.1h.8zm0-.1l.2-.8-.1.8zm.6 0l-.1.9.1-.8zm0 .2l.3.8.5-.1.1-.6-.8-.1zm0 0l-.2.8h.3l-.2-.8zm-.5 0l.1-.9h-.8v.7l.7.1zm0 .2l-.8-.2-.1.9h.8v-.7zm.4 0l-.1.8.8.2.1-.9h-.8zm0-.2l-.1-.8-.6.1v.6l.7.1zm.2 0h.8l.2-1-1.2.2.2.8zm-.9.2c.1-.4.5-.7.8-.6l-.2 1.6c.5 0 1-.3 1-.8l-1.6-.2zm.9-.6l-.6-.1-.2 1.6.5.1.3-1.6zm-.6-.1c.4 0 .7.4.6.8l-1.6-.2c0 .5.3 1 .8 1l.2-1.6zm.6.8v-.1l-1.6-.3v.2l1.6.2zm0-.2v-.2l-1.5-.1v.1l1.6.2zm0-.1c0 .4-.4.6-.7.6l.2-1.6a1 1 0 00-1 .8l1.6.2zm-.7.6h.5l.2-1.6h-.5l-.2 1.6zm.5 0a.7.7 0 01-.6-.8l1.6.3c0-.5-.3-1-.8-1l-.2 1.6zm0-1.4h-.1l.3 1.6h.2l-.4-1.6zm.2 0h-.5l-.2 1.5.4.1.3-1.6zm-1.4.6v.2l1.6.3v-.2l-1.6-.3zm.7 1.2h.4l.2-1.6h-.4l-.2 1.6zm1.3-.7v-.2l-1.6-.2v.2l1.6.2zm-.6.5h.2l-.4-1.6h-.1l.3 1.6zm-.8-1v.4l1.5.2.1-.3-1.6-.2z" fill="currentColor" mask="url(#L)"></path><mask id="M" fill="#fff"><path d="M54.3 10.5l-.2 1 .2-.7v.7h.1v-.7l.2.7H54l.3.2s.2 0 .2-.2l-.2-1z"></path></mask><path d="M54.3 10.5l-.2 1 .2-.7v.7h.1v-.7l.2.7H54l.3.2s.2 0 .2-.2l-.2-1z" fill="#036"></path><path d="M54.3 10.5v-.8h-.6l-.1.6.7.2zm-.2 1l-.8-.2-.3 1h1v-.8zm0 0v.8h.7l.1-.6-.8-.2zm.2-.7h.8l-1.6-.2.8.2zm0 .7h-.8v.8h.8v-.8zm.1 0v.8h.8v-.8h-.8zm0-.7l.8-.2-1.6.2h.8zm.2.7v.8h1l-.2-1-.8.2zm-.5 0v-.8h-1.2l.4 1 .8-.2zm.5 0l.8.3v-.5l-.8.2zm-.2-1l.8-.2-.2-.6h-.6v.8zm-.8-.2l-.3 1 1.6.4.2-1-1.5-.4zm.5 2v-1.6 1.6zm.8-.6l.2-.7-1.6-.4-.1.7 1.5.4zm-1.4-.9v.7h1.6v-.7h-1.6zm.8 1.5h.1v-1.6 1.6zm1-.8v-.7h-1.7v.7h1.6zm-1.7-.5l.2.7 1.6-.4-.2-.7-1.6.4zm1-.3H54v1.6h.5v-1.6zm-1.3 1c.1.4.3.5.5.6l.6.2V11h.2l.3.3-1.6.6zm1 .8c.3 0 .5 0 .6-.2.2 0 .4-.2.5-.5l-1.5-.5.2-.4h.3v1.6zm1.1-1.2l-.2-1-1.6.4.3 1 1.5-.4zm-1-1.6v1.6-1.6z" fill="currentColor" mask="url(#M)"></path><mask id="N" fill="#fff"><path d="M55.4 10l.1.1v.2h.9l.1.1h-1v.4l-.2-.2v-.2h-1 1v-.3h.1z"></path></mask><path d="M55.4 10l.1.1v.2h.9l.1.1h-1v.4l-.2-.2v-.2h-1 1v-.3h.1z" fill="#036"></path><path d="M55.4 10l.3-.7-.3-.1-.3.1.3.8zm.1.1l.7.4.5-.8-.8-.3-.4.7zm0 0v.9h.5l.2-.5-.7-.4zm0 .5l.7.5.4-.6-.5-.5-.6.6zm0 .2l-.8.4.7 1 .7-1-.7-.4zm-.2-.2l-.6-.6-.4.5.3.6.7-.5zm0-.5l-.7.4.2.5h.5v-1zm0 0l-.3-.7-.9.3.5.8.7-.4zm-.2.7l.8-1.4h-.2l-.6 1.4zm-.3-1l1.4.7-1.4-.8zm.7-.5c-.3 0-.5.2-.6.3a1 1 0 00-.2.4v.3h1.6v.1l-.2.3c-.1.1-.3.3-.6.3V9.3zm-.9 1c0 .5.4.9 1 .9V9.6a.7.7 0 01.7.7h-1.7zm1 .9a1 1 0 00.2 0V9.4h-.4.1v1.7zm.2 0h.4V9.6h-.4V11zm.4 0a1.4 1.4 0 00.4 0h-.2V9.5a.9.9 0 00-.3 0 .5.5 0 01.1 0v1.7zm.2 0l-.2-.1a.8.8 0 01-.5-.7h1.7c0-.5-.4-.7-.5-.8a1 1 0 00-.5 0v1.6zm-.7-.8c0-.4.4-.6.5-.7h.2v1.6l.4-.1c.2 0 .6-.3.6-.8h-1.7zm.7-.7a.8.8 0 01.3 0 1.3 1.3 0 00-.5 0v1.6a.5.5 0 01-.1 0 1 1 0 00.3 0V9.7zm-.2 0h-.3v1.6h.4V9.6zm-.4 0a1.1 1.1 0 00-.3 0v1.6h-.1.4V9.7zm-.3 0c-.5 0-.9.4-.9.8h1.7l-.2.5-.6.3V9.6zm-.9.8c0 .3.1.4.2.5a1 1 0 00.1.2l.6-.6.6-.6v.1a.7.7 0 01.2.4h-1.7zm.2-.3v.1l1.3 1 .1-.2-1.4-1zm1.3.1l-.1-.1-1.4.9.1.1 1.4-.9zm-.8.3l.6.6a1 1 0 00.2-.2v-.5h-1.5a.8.8 0 010-.4h.1l.6.5zm.9 0c0-.5-.4-1-1-1v1.7a.7.7 0 01-.6-.8h1.6zm-1-1a1 1 0 00-.2 0v1.7a1.5 1.5 0 00.4 0h-.1V9.6zm-.2 0h-.4v1.7h.4V9.7zm-.4 0a1.4 1.4 0 00-.5.1.7.7 0 01.3 0v1.6a.9.9 0 00.3 0 .5.5 0 01-.1 0V9.6zm-.2 0l.3.1s.4.3.4.7h-1.6c0 .5.3.7.5.8h.4V9.8zm.7.8c0 .4-.3.6-.4.7h-.3V9.6a1 1 0 00-.4.1c-.2 0-.5.3-.5.8H55zm-.7.8a.8.8 0 01-.3 0 1.2 1.2 0 00.5 0V9.6h.1a1 1 0 00-.3 0v1.6zm.2 0h.4V9.4h-.4v1.7zm.4 0a1.2 1.2 0 00.3 0V9.6H55V11zm.3 0c.5 0 .9-.5.9-.9h-1.6c0-.2 0-.4.2-.5 0-.2.3-.2.5-.2v1.6zm.9-.9V10l-.2-.4a.9.9 0 00-.7-.3V11a.8.8 0 01-.6-.3l-.1-.3v-.1h1.6zm-.2-.6l-1.4.8 1.4-.8zm-.4 1.2h.1l-.6-1.6H55l.6 1.6z" fill="currentColor" mask="url(#N)"></path><mask id="O" fill="#fff"><path d="M56.5 10.5l.2 1-.2-.7v.7-.7l-.3.7h.5l-.2.2c-.1 0-.3 0-.3-.2l.2-1z"></path></mask><path d="M56.5 10.5l.2 1-.2-.7v.7-.7l-.3.7h.5l-.2.2c-.1 0-.3 0-.3-.2l.2-1z" fill="#036"></path><path d="M56.5 10.5l.8-.2-.2-.6h-.6v.8zm.2 1v.8h1l-.2-1-.8.2zm0 0l-.8.2.1.6h.7v-.8zm-.2-.7l.8-.2-1.6.2h.8zm0 .7v.8h.8v-.8h-.8zm0 0h-.9v.8h.8v-.8zm0-.7h.7l-1.6-.2.8.2zm-.3.7l-.8-.2-.2 1h1v-.8zm.5 0l.8.3.4-1.1h-1.2v.8zm-.5 0l-.8-.2v.5l.8-.3zm.2-1v-.8h-.6l-.2.6.8.2zm-.7.2l.2 1 1.6-.4-.2-1-1.6.4zm1 0v1.6-1.6zm.8.6l-.2-.7-1.6.4.2.7 1.6-.4zm-1.8-.5v.7h1.6v-.7h-1.6zm.8-.1v1.6-1.6zm.7.8v-.7h-1.6v.7h1.6zm-1.6-1l-.2.8 1.6.4.2-.7-1.6-.4zm.6 1.8h.5v-1.6h-.5v1.6zm-.2-1l.2-.4h.3v1.6c.2 0 .4 0 .5-.2.2 0 .4-.2.5-.5l-1.5-.6zm.5-.4h.2l.3.3-1.6.6c.1.3.3.4.5.5l.6.2V11zm.5.8l.2-1-1.6-.4-.2 1 1.6.4zm-.6-.4V9.7v1.6z" fill="currentColor" mask="url(#O)"></path><mask id="P" fill="#fff"><path d="M55.4 11.2l2.2 2.1v-.1l-2.2-2.1-2.1 2.1v.1l2.1-2z"></path></mask><path d="M55.4 11.2l2.2 2.1v-.1l-2.2-2.1-2.1 2.1v.1l2.1-2z" fill="#036"></path><path d="M55.4 11.2l.6-.6-.6-.5-.6.5.6.6zm2.2 2.1l-.6.6.9.9.4-1.2-.7-.3zm0-.1l.8-.2v-.2l-.3-.2-.5.6zm-2.2-2.1l.6-.6-.6-.6-.6.6.6.6zm-2.1 2.1l-.6-.6-.2.2v.2l.8.2zm0 .1l-.8.3.4 1.2 1-.9-.7-.6zm1.5-1.5l2.2 2.1 1.1-1.1-2.1-2.2-1.2 1.2zm3.5 1.8c.1-.2.1-.4 0-.4V13l-1.5.4V13l1.5.6zm-.2-1L56 10.5l-1.2 1.2 2.2 2 1.1-1zm-3.3-2.1l-2.1 2.1 1.1 1.2 2.2-2.1-1.2-1.2zM52.5 13v.2s-.1.2 0 .4L54 13a.7.7 0 010 .4l-1.5-.4zm1.3 1l2.2-2.2-1.2-1.2-2.1 2.2 1.1 1.1z" fill="currentColor" mask="url(#P)"></path><mask id="Q" fill="#fff"><path d="M55.4 12.2l1.7 1.7v-.1L55.5 12l-1.8 1.8 1.8-1.6z"></path></mask><path d="M55.4 12.2l1.7 1.7v-.1L55.5 12l-1.8 1.8 1.8-1.6z" fill="#036"></path><path d="M55.4 12.2l.6-.6-.6-.6-.6.6.6.6zm1.7 1.7l-.5.5.7.8.5-1-.7-.3zm0-.1l.8.4.3-.5-.4-.5-.6.6zM55.5 12l.6-.5-.6-.6-.6.6.6.5zm-1.8 1.8l-.5-.6-.5.5.3.5.7-.4zm0 0l-.6.5.5.9.7-.8-.5-.5zm1.2-1l1.8 1.6 1.1-1.1-1.7-1.7-1.2 1.2zm3 1.5l-1.3-1v.1l1.3.9zm0-1.1L56 11.5l-1.2 1.1 1.8 1.8 1.2-1.2zm-3-1.7l-1.7 1.7 1.1 1.2 1.8-1.8-1.2-1.1zM53 14.2l1.5-.8-1.5.8zm1.3.2l1.8-1.6-1.2-1.2-1.7 1.7 1.1 1.1z" fill="currentColor" mask="url(#Q)"></path><mask id="R" fill="#fff"><path d="M58 10.6s.3.2.2.3c-.5-.1-.6.3-.6.5 0 .5.4.7.4 1.6 0 .2-.1 1.3-1.6 1.6-.2 0-.7.2-1 .5.4-.4 1-.5 1.2-.5.5-.2 1.3-.7 1.3-1.6 0-.7-.2-1.1-.5-1.1v.2s0 .1 0 0c-.1 0-.2 0-.2.2h.2l.2.1-.2.1s.4.3.4.5c0 .1 0 .1 0 0h-.2s-.1 0 0 0v.4l-.2.5h-.1c-.1 0 0 .3-1 .5l-.9.5-1-.5c-.8-.2-.8-.6-.8-.6l-.1.1a1 1 0 01-.3-.5l.1-.4H53c0 .1 0 .1 0 0 0-.2.3-.5.3-.5l-.2-.1.2-.1h.2l-.2-.1V12c0-.1.1-.2 0-.2-.2 0-.5.4-.5 1 0 1 .8 1.5 1.4 1.7 0 0 .8.1 1.1.4v.1c-.3-.3-.8-.4-1-.5-1.5-.3-1.5-1.4-1.5-1.6 0-.9.3-1.1.3-1.6 0-.2-.1-.6-.5-.5-.2 0 0-.3.1-.3 0-.1.4-.6 1-.6l1 .2.6-.2c-.1.2-.4.3-.6.3l-1-.2a1 1 0 00-.7.2h.1s0 .1 0 0H53v.1h.1v.1H53v.1c-.1 0-.3 0-.3.2.1 0 .6 0 .6.5 0-.2 0-.4-.3-.5 0 0 0-.1 0 0 .2 0 .4.2.4.4 0-.3-.2-.6-.4-.6 0 0 .5 0 .5.6l-.1.6s.3 0 .1.3c.3 0 .2.3.1.3h-.2v.1l-.2.4h.2l-.1.5.1.4h.3c0 .1.2.4.7.6.3 0 .8.2 1 .4.2-.2.8-.4 1-.4.5-.2.7-.5.7-.5s0-.2.2-.2l.3-.3c0-.3-.2-.4-.2-.5h.2c0-.3-.3-.3-.3-.4l.1-.1h-.2s-.2-.3.1-.3c-.2-.3 0-.3.2-.3l-.2-.6c0-.3.2-.5.3-.6-.1-.1 0-.2 0-.1h.1c-.1 0 0-.1 0 0h.2v.1c-.3 0-.5.3-.5.6 0-.3.2-.4.3-.5h.1c-.2.2-.3.4-.3.7v-.1c0-.5.5-.5.6-.5l-.3-.2c0-.2-.2-.5-.7-.5l-1.1.1-.6-.1.6.2 1-.2c.6 0 1 .5 1 .6z"></path></mask><path d="M58 10.6s.3.2.2.3c-.5-.1-.6.3-.6.5 0 .5.4.7.4 1.6 0 .2-.1 1.3-1.6 1.6-.2 0-.7.2-1 .5v0c.4-.4 1-.5 1.2-.5.5-.2 1.3-.7 1.3-1.6 0-.7-.2-1.1-.5-1.1v.2s0 .1 0 0c-.1 0-.2 0-.2.2 0 0 0 0 0 0h.2l.2.1-.2.1s.4.3.4.5c0 .1 0 .1 0 0h-.2s-.1 0 0 0v.4l-.2.5s0 0 0 0h-.1c-.1 0 0 .3-1 .5l-.9.5-1-.5c-.8-.2-.8-.6-.8-.6l-.1.1s0 0 0 0a1 1 0 01-.3-.5l.1-.4s0 0 0 0H53c0 .1 0 .1 0 0 0-.2.3-.5.3-.5l-.2-.1.2-.1h.2s0 0 0 0l-.2-.1V12c0-.1.1-.2 0-.2-.2 0-.5.4-.5 1 0 1 .8 1.5 1.4 1.7 0 0 .8.1 1.1.4v.1c-.3-.3-.8-.4-1-.5-1.5-.3-1.5-1.4-1.5-1.6 0-.9.3-1.1.3-1.6 0-.2-.1-.6-.5-.5-.2 0 0-.3.1-.3 0-.1.4-.6 1-.6l1 .2.6-.2v0c-.1.2-.4.3-.6.3l-1-.2a1 1 0 00-.7.2h.1s0 .1 0 0H53v.1h.1v.1H53s0 0 0 0v.1c-.1 0-.3 0-.3.2.1 0 .6 0 .6.5 0 0 0 0 0 0 0-.2 0-.4-.3-.5 0 0 0-.1 0 0 .2 0 .4.2.4.4v0c0-.3-.2-.6-.4-.6h0s.5 0 .5.6l-.1.6s.3 0 .1.3c.3 0 .2.3.1.3h-.2s0 0 0 0v.1l-.2.4s0 0 0 0h.2l-.1.5.1.4h.3c0 .1.2.4.7.6.3 0 .8.2 1 .4.2-.2.8-.4 1-.4.5-.2.7-.5.7-.5s0-.2.2-.2c0 0 0 0 0 0l.3-.3c0-.3-.2-.4-.2-.5h.2c0-.3-.3-.3-.3-.4l.1-.1s0 0 0 0h-.2s-.2-.3.1-.3c-.2-.3 0-.3.2-.3l-.2-.6c0-.3.2-.5.3-.6 0 0 0 0 0 0-.1-.1 0-.2 0-.1 0 0 0 0 0 0h.1s0 0 0 0c-.1 0 0-.1 0 0 0 0 0 0 0 0h.2v.1c-.3 0-.5.3-.5.6v0c0-.3.2-.4.3-.5h.1c-.2.2-.3.4-.3.7v-.1c0-.5.5-.5.6-.5l-.3-.2h0c0-.2-.2-.5-.7-.5l-1.1.1-.6-.1v0l.6.2 1-.2c.6 0 1 .5 1 .6z" fill="#036" stroke="currentColor" stroke-width="1.635" mask="url(#R)"></path><mask id="S" fill="#fff"><path d="M55.4 12l1.9 1.8c.1.1.2-.3.3-.4l-2.2-2.1-2.2 2.1.3.2v-.4l.1.1h.2v-.4l.1.1h.2v-.4l.2.1v-.2h.1l.1-.2v.1h.2v-.2l.1-.1h.2v-.2l.1-.1h.2v-.2l.1-.1h.2v.4l.1-.1h.2v.4h.4v.3h.3v.3h.3v.2h.3v.4h.3v.2h-.2l-.1-.1v-.1H57v-.1l-.1-.1V13h-.2v-.1l-.1-.1v-.1h-.2v-.1l-.1-.1v-.1H56v-.1l-.2-.1h.2l-.2-.1h-.2v-.3h-.4v.2H55l-.1.1v.2h-.2l-.1.1v.2h-.2l-.1.1v.2H54l-.2.1h.2l-.1.2h-.2l-.2.1h.2l-.1.2h-.5s.2.4.3.3l2-1.8z"></path></mask><path d="M55.4 12l1.9 1.8c.1.1.2-.3.3-.4l-2.2-2.1-2.2 2.1.3.2v-.2h0v-.2l.1.1h.2V13h0v-.2l.1.1h.2v-.2h0v-.2l.2.1h0v-.2h.1l.1-.2v.1h.2v-.2h0l.1-.1h.2v-.2h0l.1-.1h.2v-.2h0l.1-.1h.2v.2h0v.2h0l.1-.1h.2v.2h0v.1h.4v.2h0v.1h.3v.2h0v.1h.3v.2h0v.1h.3v.2h0v.1h.3v.2h0-.2 0l-.1-.1h0v-.1H57h0v-.1l-.1-.1h0v0h-.2 0v-.1l-.1-.1h0v-.1h-.2 0v-.1l-.1-.1h0v-.1H56h0v-.1l-.2-.1h.2l-.2-.1h0-.2v-.3h-.2 0-.2 0v.2h0-.2l-.1.1h0v.2h0-.2l-.1.1h0v.2h0-.2l-.1.1h0v.2h0-.2l-.2.1h.2l-.1.2h0-.2l-.2.1h.2l-.1.2h0-.5s.2.4.3.3l2-1.8z" fill="#036" stroke="currentColor" stroke-width="1.635" mask="url(#S)"></path><path d="M53.9 13.3s.2 0 .2-.2l-.2-.2-.2.2c0 .2 0 .2.2.2zm.6-.6c.1 0 .2 0 .2-.2l-.2-.2-.2.2c0 .2.1.2.2.2zm.6-.6c.1 0 .2 0 .2-.2 0 0 0-.2-.2-.2l-.2.2.2.2zm.6 0c.1 0 .2 0 .2-.2 0 0 0-.2-.2-.2l-.2.2.2.2zm.6.6c.1 0 .2 0 .2-.2 0 0 0-.2-.2-.2l-.2.2.2.2zm.7.6l.1-.2s0-.2-.2-.2l-.2.2c0 .2.1.2.2.2z" fill="currentColor" stroke="currentColor" stroke-width="0.817"></path></g><defs><clipPath id="fdic_clip0"><path fill="#fff" d="M0 0h60.6v24H0z"></path></clipPath></defs></svg>