                        <svg width="31" height="26" viewBox="0 0 31 26" fill="none" xmlns="http://www.w3.org/2000/svg" role="presentation"><g style="mix-blend-mode: luminosity;"><path d="M0.50391 25.0165L0.503906 6.11255L8.98936 8.08308V11.2239L4.32131 10.1543V12.9619L8.99351 14.0524V16.6851L4.29365 15.6086L4.29365 25.908L0.50391 25.0165Z" fill="url(#podcastFintechPaint0_linear)"></path><path d="M0.5 6.11257L8.97459 8.07783V6.4107L4.06765 5.27393L0.5 6.11257Z" fill="#B5B5C4"></path><path d="M4.29883 12.9589V10.1299L6.43891 10.6227V11.5834L8.97565 12.1454V14.073L4.29883 12.9589Z" fill="url(#podcastFintechPaint1_linear)"></path><path d="M20.4467 3.09964L17.0437 2.25293L8.97363 4.11434L12.267 4.97556L20.4467 3.09964Z" fill="url(#podcastFintechPaint2_linear)"></path><path d="M4.29395 15.5808V25.9078L6.43923 25.4526L6.43923 16.0768L4.29395 15.5808Z" fill="url(#podcastFintechPaint3_linear)"></path><path d="M8.97461 23.2637V4.10938L12.2851 4.85689V24.0433C12.2851 24.0433 10.0781 23.5366 8.97461 23.2637Z" fill="url(#podcastFintechPaint4_linear)"></path><path d="M12.2842 4.95551L20.4357 3.08984V14.8143L18.4423 14.3522V7.82621L14.2064 8.80827V17.8853L20.4357 19.3304V22.1212L12.2842 24.079V4.95551Z" fill="url(#podcastFintechPaint5_linear)"></path><path d="M18.4461 7.82471L16.79 8.19805V13.9662L18.4461 14.3472V7.82471Z" fill="#1F1F30"></path><path d="M23.1933 9.70158V11.3425L14.2051 9.26168V8.80185L16.8092 8.19067L23.1933 9.70158Z" fill="url(#podcastFintechPaint6_linear)"></path><path d="M23.0934 15.4235L14.1807 13.3677V15.2765L23.0934 17.3453V15.4235Z" fill="url(#podcastFintechPaint7_linear)"></path><path d="M23.1889 11.3407V0.824463L26.5233 1.69099V20.7602L14.2012 17.882V15.2561L23.0945 17.3347V14.4895L14.2012 12.4018V9.25909L23.1889 11.3407Z" fill="url(#podcastFintechPaint8_linear)"></path><path d="M26.5225 20.7465V1.6817L30.1804 0.82373V19.9026L26.5225 20.7465Z" fill="url(#podcastFintechPaint9_linear)"></path><path d="M26.517 1.69612L23.1807 0.824355L26.7287 0.013916L30.1901 0.824091L26.517 1.69612Z" fill="#B5B5C4"></path></g><g fill="#607AFF" style="mix-blend-mode: color;"><path d="M0.50391 25.0165L0.503906 6.11255L8.98936 8.08308V11.2239L4.32131 10.1543V12.9619L8.99351 14.0524V16.6851L4.29365 15.6086L4.29365 25.908L0.50391 25.0165Z"></path><path d="M.5 6.11257 8.97459 8.07783V6.4107L4.06765 5.27393.5 6.11257zM4.29883 12.9589V10.1299L6.43891 10.6227V11.5834L8.97565 12.1454V14.073L4.29883 12.9589zM4.29395 15.5808V25.9078L6.43923 25.4526 6.43923 16.0768 4.29395 15.5808zM23.1933 9.70158V11.3425L14.2051 9.26168V8.80185L16.8092 8.19067 23.1933 9.70158zM23.0934 15.4235 14.1807 13.3677V15.2765L23.0934 17.3453V15.4235z"></path><path d="M23.1889 11.3407V0.824463L26.5233 1.69099V20.7602L14.2012 17.882V15.2561L23.0945 17.3347V14.4895L14.2012 12.4018V9.25909L23.1889 11.3407Z"></path><path d="M26.5225 20.7465V1.6817L30.1804 0.82373V19.9026L26.5225 20.7465Z"></path><path d="M26.517 1.69612L23.1807 0.824355L26.7287 0.013916L30.1901 0.824091L26.517 1.69612Z"></path></g><g opacity="0.4" fill="#607AFF" style="mix-blend-mode: color;"><path d="M12.3047 4.95551L20.4562 3.08984V9.0513L18.4628 8.58923V7.82621L14.2269 8.80827V17.8853L20.4562 19.3304V22.1212L12.3047 24.079V4.95551Z"></path><path d="M18.4628 14.342V13.4038L20.4562 13.8537V14.8206L18.4628 14.342zM18.4471 7.82471 16.791 8.19805 18.4471 8.58609V7.82471zM16.791 13.9662 18.4471 14.3472V13.3942L16.791 13.0113V13.9662zM20.4662 3.0994 17.0632 2.25269 8.99316 4.1141 12.2866 4.97531 20.4662 3.0994z"></path><path d="M8.99414 23.264V4.10962L12.3046 4.85714V24.0436C12.3046 24.0436 10.0976 23.5369 8.99414 23.264Z"></path></g><defs><linearGradient id="podcastFintechPaint0_linear" x1="3.282" y1="11.812" x2="13.037" y2="11.115" gradientUnits="userSpaceOnUse"><stop offset="0.366" stop-color="#71718E"></stop><stop offset="1" stop-color="#41415A"></stop></linearGradient><linearGradient id="podcastFintechPaint1_linear" x1="6.637" y1="10.13" x2="12.92" y2="16.474" gradientUnits="userSpaceOnUse"><stop stop-color="#565674"></stop><stop offset="0.374" stop-color="#71718E"></stop></linearGradient><linearGradient id="podcastFintechPaint2_linear" x1="11.256" y1="4.303" x2="18.378" y2="2.677" gradientUnits="userSpaceOnUse"><stop stop-color="#9696AB"></stop><stop offset="1" stop-color="#B5B5C4"></stop></linearGradient><linearGradient id="podcastFintechPaint3_linear" x1="5.367" y1="15.608" x2="5.367" y2="25.908" gradientUnits="userSpaceOnUse"><stop stop-color="#41415A"></stop><stop offset="0.374" stop-color="#565674"></stop></linearGradient><linearGradient id="podcastFintechPaint4_linear" x1="10.63" y1="4.252" x2="10.63" y2="24.043" gradientUnits="userSpaceOnUse"><stop offset="0.418" stop-color="#82829C"></stop><stop offset="1" stop-color="#58586F"></stop></linearGradient><linearGradient id="podcastFintechPaint5_linear" x1="20.436" y1="-1.871" x2="16.06" y2="22.842" gradientUnits="userSpaceOnUse"><stop stop-color="#6A6A85"></stop><stop offset="1" stop-color="#343451"></stop></linearGradient><linearGradient id="podcastFintechPaint6_linear" x1="15.735" y1="8.218" x2="23.193" y2="10.694" gradientUnits="userSpaceOnUse"><stop stop-color="#71718E"></stop><stop offset="1" stop-color="#B5B5C4"></stop></linearGradient><linearGradient id="podcastFintechPaint7_linear" x1="13.387" y1="14.317" x2="23.881" y2="16.94" gradientUnits="userSpaceOnUse"><stop stop-color="#484860"></stop><stop offset="0.543" stop-color="#72728F" stop-opacity="0.8"></stop></linearGradient><linearGradient id="podcastFintechPaint8_linear" x1="23.38" y1="13.062" x2="13.384" y2="12.702" gradientUnits="userSpaceOnUse"><stop offset="0.639" stop-color="#71718E"></stop><stop offset="1" stop-color="#565676"></stop></linearGradient><linearGradient id="podcastFintechPaint9_linear" x1="30.18" y1="-3.885" x2="22.234" y2="17.332" gradientUnits="userSpaceOnUse"><stop stop-color="#71718E"></stop><stop offset="1" stop-color="#41415A"></stop></linearGradient></defs></svg>