<?xml version="1.0" encoding="utf-8"?>
<!-- Generator: Adobe Illustrator 24.1.1, SVG Export Plug-In . SVG Version: 6.00 Build 0)  -->
<svg version="1.1" id="Layer_1" xmlns="http://www.w3.org/2000/svg" xmlns:xlink="http://www.w3.org/1999/xlink" x="0px" y="0px"
	 viewBox="0 0 784 179" style="enable-background:new 0 0 784 179;" xml:space="preserve">
<style type="text/css">
	.st0{fill:#FFFFFF;}
</style>
<g>
	<g transform="translate(0.000000,49.000000) scale(0.100000,-0.100000)">
		<g>
			<path class="st0" d="M944.4,404c97.1-21.6,199.6-75.5,226.6-118.7c75.5-113.3,54-312.9-27-312.9c-48.6,0-64.7,37.8-48.6,97.1
				c10.8,54-16.2,129.5-59.4,167.3c-113.3,97.1-383.1,0-609.7-221.2C329.4-76.2,237.6-141,216.1-124.8
				C156.7-65.4,372.6,193.5,566.8,296C674.7,355.4,734,398.6,701.6,404c-118.7,0-415.5-248.2-518-431.6
				C54.2-265.1,75.8-675.1,232.2-880.2c388.5-523.4,1052.1-518,1440.6,5.4c167.3,226.6,156.5,701.4-16.2,949.6
				c-145.7,205-491,383.1-733.8,377.7L761,447.1L944.4,404z M1656.6-27.7c118.7-215.8,134.9-485.6,37.8-582.7
				c-75.5-75.5-366.9-86.3-366.9-10.8c0,32.4,59.4,54,134.9,54c275.2,0,215.8,399.3-102.5,696c-194.2,178.1-178.1,253.6,27,129.5
				C1484,204.3,1602.7,74.8,1656.6-27.7z M1030.8,128.8c0-37.8-43.2-80.9-91.7-91.7c-97.1-16.2-134.9,97.1-59.4,172.7
				C933.7,263.7,1030.8,215.1,1030.8,128.8z M804.2,80.2c16.2-59.4,75.5-107.9,129.5-107.9c113.3,0,329.1-134.9,286-183.4
				c-32.4-27-356.1,70.1-469.4,145.7c-80.9,48.6-97.1,253.6-21.6,253.6C755.6,188.1,788,139.6,804.2,80.2z M631.5-97.8
				c-21.6-21.6-80.9-27-134.9-5.4C410.3-70.8,410.3-60,502,37.1c86.3,97.1,97.1,97.1,129.5,5.4C653.1-11.5,647.7-76.2,631.5-97.8z
				 M1408.5-92.4c-113.3-64.7-183.4-10.8-151.1,118.7c27,107.9,32.4,107.9,134.9,21.6C1478.6-38.5,1484-54.7,1408.5-92.4z
				 M561.4-238.1c16.2-48.6-5.4-59.4-80.9-37.8C178.4-178.8,210.7-686,523.7-966.5c188.8-172.7,172.7-253.6-32.4-118.7
				C194.5-891,43.4-405.4,221.4-221.9C329.4-119.4,523.6-124.8,561.4-238.1z M761-227.3c-21.6-54-54-145.7-70.1-205
				c-37.8-161.9-118.7-242.8-232-242.8c-134.9,0-129.5,86.3,5.4,124.1c59.4,16.2,107.9,70.1,107.9,118.7s27,134.9,54,194.2
				C696.3-108.6,815-97.8,761-227.3z M1543.3-178.8c0-21.6-48.6-70.1-107.9-107.9C1376-324.5,1327.5-400,1327.5-454
				c0-113.3-145.7-259-199.6-199.6c-21.6,16.2-5.4,64.7,27,97.1c37.8,37.8,64.7,118.7,64.7,188.8c0,64.7,43.2,145.7,97.1,172.7
				C1424.6-130.2,1543.3-119.4,1543.3-178.8z M1084.7-275.9c102.5-107.9,86.3-232-37.8-312.9C933.7-659,771.8-578,744.8-448.5
				c-16.2,86.3,124.1,259,205,259C976.8-189.5,1036.2-227.3,1084.7-275.9z M496.6-356.8c54-91.7-70.1-194.2-145.7-118.7
				c-64.7,64.7-21.6,178.1,59.4,178.1C437.3-297.5,475-324.4,496.6-356.8z M1570.3-410.8c0-37.8-43.2-80.9-91.7-91.7
				c-97.1-16.2-134.9,97.1-59.4,172.7C1473.2-275.9,1570.3-324.4,1570.3-410.8z M809.6-615.8c16.2-21.6,102.5-59.4,188.8-75.5
				c161.9-32.4,264.4-199.6,194.2-312.9c-27-37.8-64.7-10.8-102.5,64.7c-32.4,70.1-134.9,140.3-232,167.3
				C755.6-745.2,680-691.3,680-648.1C680.1-561.8,766.4-540.3,809.6-615.8z M642.3-837c-27-107.9-32.4-107.9-134.9-16.2
				c-97.1,86.3-97.1,97.1-5.4,129.5C636.9-675.1,674.7-707.5,642.3-837z M1613.5-723.7c124.1,75.5,118.7-10.8-21.6-188.8
				c-145.7-188.8-377.7-302.1-604.3-302.1c-210.4,0-323.7,102.5-296.8,269.8c21.6,151.1,118.7,140.3,124.1-16.2
				c0-91.7,37.8-124.1,161.9-134.9c172.7-16.2,512.6,161.9,512.6,264.4c0,37.8-37.8,27-102.5-27c-91.7-86.3-102.5-86.3-129.5,16.2
				c-32.4,140.3,0,172.7,145.7,113.3C1473.2-750.7,1559.5-750.7,1613.5-723.7z M1036.2-896.4c54-91.7-70.1-194.2-145.7-118.7
				C825.7-950.3,868.9-837,949.8-837C976.8-837,1014.6-864,1036.2-896.4z"/>
		</g>
	</g>
	<g>
		<path class="st0" d="M227,132.1V54h15.6l18.5,55.3c1.7,5.2,2.9,9,3.7,11.6c0.9-2.8,2.3-7,4.2-12.5L287.6,54h13.9v78.2h-10V66.7
			l-22.7,65.4h-9.3l-22.6-66.5v66.5H227z"/>
		<path class="st0" d="M318.5,132.1V54H375v9.2h-46.2v23.9H372v9.2h-43.2v26.6h48v9.2L318.5,132.1L318.5,132.1z"/>
		<path class="st0" d="M391.2,132.1V54h34.7c7,0,12.3,0.7,15.9,2.1c3.6,1.4,6.5,3.9,8.7,7.4c2.2,3.6,3.3,7.5,3.3,11.8
			c0,5.5-1.8,10.2-5.4,14s-9.1,6.2-16.6,7.3c2.7,1.3,4.8,2.6,6.2,3.9c3,2.8,5.9,6.2,8.6,10.4l13.6,21.3h-13l-10.3-16.3
			c-3-4.7-5.5-8.3-7.5-10.8s-3.7-4.2-5.2-5.2s-3.1-1.7-4.7-2.1c-1.2-0.2-3.1-0.4-5.8-0.4h-12v34.7H391.2z M401.6,88.5h22.2
			c4.7,0,8.4-0.5,11.1-1.5s4.7-2.5,6.1-4.7c1.4-2.1,2.1-4.5,2.1-7c0-3.7-1.3-6.7-4-9.1s-6.9-3.6-12.7-3.6h-24.7v25.9
			C401.7,88.5,401.6,88.5,401.6,88.5z"/>
		<path class="st0" d="M525.7,104.7l10.3,2.6c-2.2,8.5-6.1,15-11.7,19.4c-5.6,4.5-12.5,6.7-20.7,6.7c-8.4,0-15.3-1.7-20.6-5.1
			c-5.3-3.4-9.3-8.4-12-14.9c-2.8-6.5-4.1-13.5-4.1-21c0-8.1,1.6-15.2,4.7-21.3s7.5-10.7,13.3-13.8c5.7-3.1,12.1-4.7,19-4.7
			c7.8,0,14.4,2,19.7,6s9,9.6,11.1,16.8l-10.2,2.4c-1.8-5.7-4.4-9.8-7.9-12.4c-3.4-2.6-7.8-3.9-13-3.9c-6,0-11,1.4-15.1,4.3
			c-4,2.9-6.9,6.7-8.5,11.6s-2.5,9.9-2.5,15c0,6.6,1,12.4,2.9,17.4s4.9,8.7,9,11.1c4.1,2.5,8.5,3.7,13.3,3.7c5.8,0,10.7-1.7,14.7-5
			C521.5,116.2,524.3,111.3,525.7,104.7z"/>
		<path class="st0" d="M600,54h10.3v45.2c0,7.9-0.9,14.1-2.7,18.7s-5,8.4-9.6,11.3c-4.6,2.9-10.7,4.3-18.3,4.3
			c-7.3,0-13.3-1.3-18-3.8s-8-6.2-10-11s-3-11.3-3-19.6V54H559v45.1c0,6.8,0.6,11.8,1.9,15c1.3,3.2,3.4,5.7,6.5,7.4
			c3.1,1.7,6.8,2.6,11.3,2.6c7.6,0,13-1.7,16.3-5.2c3.2-3.4,4.9-10.1,4.9-19.9L600,54L600,54z"/>
		<path class="st0" d="M627.8,132.1V54h34.7c7,0,12.3,0.7,15.9,2.1c3.6,1.4,6.5,3.9,8.7,7.4c2.2,3.6,3.3,7.5,3.3,11.8
			c0,5.5-1.8,10.2-5.4,14c-3.6,3.8-9.1,6.2-16.6,7.3c2.7,1.3,4.8,2.6,6.2,3.9c3,2.8,5.9,6.2,8.6,10.4l13.6,21.3h-13l-10.3-16.3
			c-3-4.7-5.5-8.3-7.5-10.8s-3.7-4.2-5.3-5.2c-1.5-1-3.1-1.7-4.7-2.1c-1.2-0.2-3.1-0.4-5.8-0.4h-12v34.7H627.8z M638.1,88.5h22.2
			c4.7,0,8.4-0.5,11.1-1.5c2.7-1,4.7-2.5,6.1-4.7c1.4-2.1,2.1-4.5,2.1-7c0-3.7-1.3-6.7-4-9.1s-6.9-3.6-12.7-3.6h-24.7L638.1,88.5
			L638.1,88.5z"/>
		<path class="st0" d="M726.5,132.1V99l-30.1-45H709l15.4,23.6c2.8,4.4,5.5,8.8,7.9,13.2c2.3-4.1,5.2-8.7,8.5-13.8L756,54h12
			l-31.2,45v33.1H726.5z"/>
	</g>
</g>
</svg>
