<?xml version="1.0" encoding="utf-8"?>
<!-- Generator: Adobe Illustrator 24.1.1, SVG Export Plug-In . SVG Version: 6.00 Build 0)  -->
<svg version="1.1" id="Layer_1" xmlns="http://www.w3.org/2000/svg" xmlns:xlink="http://www.w3.org/1999/xlink" x="0px" y="0px"
	 viewBox="0 0 92 57" style="enable-background:new 0 0 92 57;" xml:space="preserve">
<style type="text/css">
	.st0{fill:#141414;}
</style>
<g>
	<path class="st0" d="M87.5,9H29c-2.5,0-4.5-2-4.5-4.5l0,0C24.5,2,26.5,0,29,0h58.5C90,0,92,2,92,4.5l0,0C92,7,90,9,87.5,9z"/>
</g>
<g>
	<path class="st0" d="M87.5,26h-79C6,26,4,24,4,21.5l0,0C4,19,6,17,8.5,17h79c2.5,0,4.5,2,4.5,4.5l0,0C92,24,90,26,87.5,26z"/>
</g>
<g>
	<path class="st0" d="M87.5,44h-38C47,44,45,42,45,39.5l0,0c0-2.5,2-4.5,4.5-4.5h38c2.5,0,4.5,2,4.5,4.5l0,0C92,42,90,44,87.5,44z"
		/>
</g>
</svg>
