<?xml version="1.0" encoding="utf-8"?>
<!-- Generator: Adobe Illustrator 24.1.1, SVG Export Plug-In . SVG Version: 6.00 Build 0)  -->
<svg version="1.1" id="Layer_1" xmlns="http://www.w3.org/2000/svg" xmlns:xlink="http://www.w3.org/1999/xlink" x="0px" y="0px"
	 viewBox="0 0 92 57" style="enable-background:new 0 0 92 57;" xml:space="preserve">
<style type="text/css">
	.st0{fill:#141414;}
</style>
<g>
	<g>
		<path class="st0" d="M61.9,50.8L25.5,10.5c-1.2-1.3-1.1-3.3,0.2-4.3l0,0C27.1,4.9,29,5,30.1,6.4l36.5,40.3
			c1.2,1.3,1.1,3.3-0.2,4.3l0,0C65,52.1,63.1,52,61.9,50.8z"/>
		<path class="st0" d="M64.3,55.4c-0.1,0-0.2,0-0.4,0c-1.8-0.1-3.5-0.8-4.7-2.2L22.8,12.9c-2.5-2.8-2.3-7,0.5-9.5
			c1.3-1.2,3-1.8,4.8-1.7c1.8,0.1,3.5,0.8,4.7,2.2l36.5,40.3c1.2,1.3,1.8,3,1.7,4.8c-0.1,1.8-0.8,3.5-2.2,4.7
			C67.6,54.8,65.9,55.4,64.3,55.4z M64.7,48.4L64.7,48.4L64.7,48.4z"/>
	</g>
	<g>
		<path class="st0" d="M30.1,50.8l36.5-40.3c1.2-1.3,1.1-3.3-0.2-4.3l0,0C65,4.9,63.1,5,62,6.4L25.5,46.6c-1.2,1.3-1.1,3.3,0.2,4.3
			l0,0C27,52.1,28.9,52,30.1,50.8z"/>
		<path class="st0" d="M27.8,55.4c-1.7,0-3.3-0.6-4.5-1.7c-1.3-1.2-2.2-2.9-2.2-4.7c0-1.8,0.5-3.5,1.7-4.8L59.2,3.8
			c2.5-2.8,6.7-3,9.5-0.5s3,6.7,0.5,9.5L32.8,53.2l0,0c-1.2,1.3-2.9,2.2-4.7,2.2C28.1,55.4,27.9,55.4,27.8,55.4z"/>
	</g>
</g>
</svg>
