<?xml version="1.0" encoding="utf-8"?>
<!-- Generator: Adobe Illustrator 24.1.1, SVG Export Plug-In . SVG Version: 6.00 Build 0)  -->
<svg version="1.1" id="Layer_1" xmlns="http://www.w3.org/2000/svg" xmlns:xlink="http://www.w3.org/1999/xlink" x="0px" y="0px"
	 viewBox="0 0 640 266" style="enable-background:new 0 0 640 266;" xml:space="preserve">
<style type="text/css">
	.st0{display:none;fill:#FFFFFF;}
	.st1{display:none;}
	.st2{display:inline;fill-rule:evenodd;clip-rule:evenodd;fill:#FFFFFF;}
	.st3{display:inline;fill:#FFFFFF;}
	.st4{fill:#141414;}
	.st5{display:inline;fill:#71718E;}
	.st6{display:inline;opacity:0.5;fill:#71718E;enable-background:new    ;}
	.st7{display:inline;fill:none;stroke:#71718E;stroke-width:1.194;stroke-linecap:round;}
	.st8{display:inline;fill:none;stroke:#71718E;stroke-width:1.194;}
</style>
<path class="st0" d="M120.8,142.1l-24.4-5.6c-16.1-3.9-16.1-15.4-16.1-15.4c0-17.7,16.7-17.7,16.7-17.7c9.2,0,16.7,8.2,16.7,17.7
	h71.7C183.6,81.7,151.8,60,95.6,60c-34-0.1-60.6,7.9-76.9,23.1C8.1,92.8,2.5,105.7,2.5,120.3c0,28,16.4,46.9,50.3,54.5l42.3,9.5l0,0
	c7.5,1.8,16.3,3.6,16.5,11.6c-0.2,23.5-33.3,23.4-33.5,0L0,195.7c0.1,41,32.5,63.7,91.2,63.8c33.7,0.1,59.2-7.7,75.7-23.1
	c10.8-10.1,16.1-22.7,16.1-38.8C183.1,169.2,165.1,152.2,120.8,142.1z M293.2,163.2l-0.1,37.4c0,6.4-5.1,11.7-11.4,11.7
	s-11.4-5.2-11.4-11.7l0.1-76.2l67.2,0.1l0.1-55.6l-67.2-0.1l0.1-42.1l-69.8,30.1l-0.3,132.4c-0.1,44.6,28.3,70.3,77.8,70.4
	c49.3,0.1,82.5-28.1,82.5-70v-26.1L293.2,163.2z M469.6,259.5L470,72.2L376.2,72l-0.1,55.8h19.3l-0.3,131.5L469.6,259.5z
	 M474.3,28.6c0.5,10.4-7,17.7-15.8,21.3c-9,3.8-18.5,4.6-26,4.8c-7.4-0.2-16.9-1.1-26-4.8c-8.8-3.6-16.2-10.9-15.8-21.3
	c-0.5-10.4,7-17.7,15.8-21.3c9-3.8,18.5-4.6,26-4.8c7.4,0.2,16.9,1.1,26,4.8C467.3,10.8,474.8,18.2,474.3,28.6z M625.7,144.1
	c2.2,0,9.3,0.1,14.1,1.2l0.1-74.5c-4.1-0.6-8.3-0.9-12.4-0.9c-10.3,0-18.9,1.8-25.4,5.4c-22.4,12.6-27.9,24.5-31.3,59.3l-0.1,0.9
	h-8.5l0.1-63.3L489.8,72l-0.4,187.4l74.4,0.2l0.1-58.1C564,165.4,587.1,144,625.7,144.1z"/>
<g class="st1">
	<path class="st2" d="M356,238.6l-17-63.5h-22.4l-17.2,63.5l-14.1-56.5c-5.1,6.6-11.4,11.4-19,14.3c-0.6,0.2-1.3,0.5-2,0.7
		l20.3,67.5h26.5l16.7-57.3l16.5,57.3h26.5l27-89.5H372L356,238.6z"/>
	<path class="st2" d="M279,175.9c4.2-5.8,6.3-12.4,6.3-19.4c0-7.6-2.5-14.2-7.5-19.6c-5-5.5-11.4-8.3-19-8.3c-7.2,0-13.2,1.9-18,5.8
		c-5,4-7.5,8.7-7.5,13.9c0,3.4,1.1,6.5,3.2,9.1c1.6,1.9,4.5,4.2,9.7,4.2c3.5,0,6.5-1.2,8.9-3.6c2.4-2.4,3.7-5.2,3.7-8.4
		c0-2.6-0.9-5.2-2.7-7.8c-1-1.4-1.1-2-1-2c0.3-0.2,1.2-0.5,3.6-0.5c3.8,0,6.8,1.2,9.2,3.8c2.5,2.6,3.7,5.9,3.7,10
		c0,7.2-2.9,12.4-8.7,15.9c-6.3,3.8-16.9,5.8-31.4,5.8c-18,0-30.2,3.4-37.4,10.4c-7.1,6.9-10.7,14.7-10.7,23.2
		c0,6.1,2.2,11.3,6.5,15.5s9.5,6.3,15.4,6.3c5.1,0,9.4-1.6,12.8-4.8c3.4-3.2,5.1-7.3,5.1-12.2c0-3.7-1.2-6.6-3.5-8.8
		c-2.3-2.1-4.9-3.2-8-3.2c-3.3,0-6.1,1.3-8.3,3.8c-2,2.4-3,5.4-3,8.9c0,0.4,0,1,0.1,2l0.1,1c0,0.2,0,0.4,0,0.5c-0.1,0-0.2,0-0.3,0
		c-1.1,0-2.4-0.8-3.7-2.3c-1.5-1.6-2.2-3.7-2.2-6.4c0-4.7,2.2-8.5,6.9-11.7c5-3.5,10.6-5.2,17-5.2c7.9,0,14,2.1,18.5,6.5
		c4.5,4.3,6.7,9.3,6.7,15.1c0,9-4.6,16.6-14.2,23.3c-9.8,6.8-21.8,10.3-35.7,10.3c-14.5,0-26.8-4.4-36.5-13
		c-9.6-8.5-14.5-17.6-14.5-27c0-4.5,1.4-8.3,4.4-11.6c2.9-3.2,5.8-4.7,8.8-4.7c2.2,0,4.7,1.1,7.2,3.3c3.7,3.1,6.8,4.6,9.6,4.6
		c3.5,0,5.5-1.6,6.6-2.9c1.4-1.7,2.1-3.6,2.1-5.6c0-4-2.1-10.7-16.3-10.7c-0.6,0-0.7-0.1-0.7-0.1s-0.6-0.6-1.6-3.2
		c-0.7-1.9-1.1-4.3-1.1-7.2c0-6.4,2.6-12.1,8-17.1c5.4-5.1,11.1-7.6,17.2-7.6c3.6,0,6.6,0.9,9.1,2.8c2.2,1.7,3.3,3.8,3.3,6.5
		c0,2-0.4,4.1-1.2,6.1c-1,2.4-1.2,3.4-1.2,4.2c0,3,2.1,5.1,5,5.1c3.5,0,6.6-2.1,9.4-6.2c2.4-3.7,3.7-7.8,3.7-12.2
		c0-6-2.6-11.1-7.7-15.4c-4.9-4.1-11.1-6.1-18.4-6.1c-6.4,0-12.6,1.7-18.5,5.1c-5.8,3.3-10.7,7.8-14.4,13.2
		c-3.9,5.6-5.8,11.8-5.8,18.3c0,4.5,1,9.3,2.9,14.4c-8.5,1.9-15.1,5.6-19.8,11.2c-5.4,6.4-8.2,14.4-8.2,23.7
		c0,7.5,1.8,14.7,5.3,21.3c3.5,6.5,8.4,12.1,14.5,16.6c6,4.4,12.3,7.8,18.9,10.1c6.6,2.3,15.3,3.5,25.9,3.5c13,0,24.1-2,33.2-5.9
		c9.2-3.9,17.1-10,23.6-18.1c6.6-8.3,9.9-17,9.9-26c0-9.4-3.3-17.5-9.9-24.3c7-0.7,12.6-1.8,17.1-3.5
		C269.6,185.8,274.9,181.7,279,175.9z M181.9,0h23.4v18.8h16.9V38h-16.9v34.6c0,13.4,4.1,16.1,13.3,16.1c1.5,0,2.4,0,4.3-0.2v20.2
		c0,0-3.6,0.9-10.2,0.9c-21.5,0-31-12-31-36.3V38h-9.5V18.8h9.6L181.9,0L181.9,0z M282.7,42.8c-17.7,0-24.3,11-24.3,28.8v36.8h-23.8
		V18.8h23.2V34c4-8.9,12.9-15.2,24.8-15.2v24H282.7z M295.1,70.5V18.8h23.8v54.4c0,9.9,6.9,16.1,15,16.1c9.8,0,16-7.2,16-16.8V18.8
		h23.8v89.5h-23.3V97.9c-3.8,6.2-12.4,12.7-24.1,12.7C300.6,110.6,295.1,89.5,295.1,70.5z M386.5,94l13.9-12.3
		c4.5,5.1,10.5,9.8,20.7,9.8c6.7,0,11-2.9,11-8c0-13.7-42.5-8.4-42.5-40.2c0-16.6,14.3-26.5,32.7-26.5c17,0,26.5,8.9,30.8,15.9
		l-15.7,11.6c-2.8-3.4-7.8-8.6-16.2-8.6c-5.5,0-9.3,2.7-9.3,7.2c0,14.2,42.7,7.4,42.7,39.4c0,17.5-15.2,28.4-34.6,28.4
		C402.3,110.6,391.3,101.7,386.5,94z"/>
	<path class="st2" d="M474.3,0h23.4v18.8h16.9V38h-16.9v34.6c0,13.4,4.1,16.1,13.3,16.1c1.5,0,2.4,0,4.3-0.2v20.2
		c0,0-3.6,0.9-10.2,0.9c-21.5,0-31-12-31-36.3V38h-9.5V18.8h9.6V0H474.3z M419.9,140.9c-7.8,0-13.8,5.8-13.8,13.5s6,13.5,13.8,13.5
		c7.9,0,13.9-5.8,13.9-13.5S427.8,140.9,419.9,140.9z"/>
	<path class="st2" d="M408.1,264.7h23.8v-89.5h-23.8V264.7z M449.8,264.7h23.8V140.9h-23.8V264.7z M491.4,264.7h23.8V140.9h-23.8
		L491.4,264.7L491.4,264.7z"/>
</g>
<g class="st1">
	<path class="st3" d="M1.1,147.3l72.3,71.8C36.5,212.9,7.3,183.9,1.1,147.3z M0,128.8l93,92.4c5.5-0.3,10.9-1.1,16.1-2.4L2.4,112.8
		C1.1,118,0.3,123.3,0,128.8z M7,99l116,115.3c4.2-1.8,8.3-3.9,12.1-6.3L13.4,86.9C10.9,90.8,8.8,94.8,7,99z M21.2,75.3
		c16.2-18.7,40.2-30.6,67-30.6c48.8,0,88.3,39.3,88.3,87.8c0,26.6-11.9,50.5-30.7,66.6L21.2,75.3z M242.8,184.3h61.7v-15.1h-43.7V85
		h-18L242.8,184.3L242.8,184.3z M319.3,184.3h17.6v-74.5h-17.6V184.3z M328.2,99.2c5.6,0,10.1-4.3,10.1-9.5c0-5.3-4.6-9.6-10.1-9.6
		c-5.6,0-10.2,4.3-10.2,9.6C318,95,322.5,99.2,328.2,99.2z M372.5,140.7c0-10.8,6.5-17,15.8-17c9.1,0,14.5,6,14.5,15.9v44.7h17.6
		v-47.4c0-17.8-10.1-28-25.5-28c-11.2,0-18.8,5.3-22.2,13.6h-0.9v-12.7H355v74.5h17.6v-43.6L372.5,140.7L372.5,140.7z M471.1,185.8
		c17.4,0,29.3-8.5,32.4-21.4l-16.4-1.8c-2.4,6.3-8.2,9.6-15.8,9.6c-11.3,0-18.9-7.5-19-20.2h51.9v-5.4c0-26.1-15.7-37.6-34-37.6
		c-21.3,0-35.3,15.7-35.3,38.6C435,170.9,448.7,185.8,471.1,185.8z M452.4,140c0.5-9.5,7.6-17.5,18-17.5c10.1,0,16.9,7.4,17,17.5
		H452.4z M540.5,185.8c11.7,0,18.7-5.5,21.9-11.7h0.6v10.2h16.9v-49.9c0-19.7-16.1-25.6-30.3-25.6c-15.7,0-27.7,7-31.6,20.6
		l16.4,2.3c1.7-5.1,6.7-9.5,15.3-9.5c8.1,0,12.6,4.2,12.6,11.5v0.3c0,5-5.3,5.3-18.4,6.7c-14.5,1.6-28.3,5.9-28.3,22.6
		C515.6,178.1,526.3,185.8,540.5,185.8z M545.1,172.9c-7.3,0-12.6-3.3-12.6-9.8c0-6.7,5.9-9.6,13.7-10.7c4.6-0.6,13.8-1.8,16.1-3.6
		v8.8C562.4,165.9,555.7,172.9,545.1,172.9z M597.5,184.3h17.6v-43.8c0-9.5,7.1-16.1,16.8-16.1c3,0,6.6,0.5,8.1,1v-16.1
		c-1.6-0.3-4.4-0.5-6.3-0.5c-8.5,0-15.7,4.8-18.4,13.5h-0.8v-12.4h-17L597.5,184.3L597.5,184.3z"/>
</g>
<g>
	<path class="st4" d="M131,188.7c-13.1,0-25.8-5.5-34.5-14.8c-8.9-9.7-13.5-23.5-12.4-37.5c1-12.5,6.4-25.3,15.3-36
		c7.7-9.1,17-15.9,27.1-19.7c11.3-4.2,23.4-4.5,33.9-0.9c10.2,3.5,19,10.8,24.3,20.1c5.4,9.2,7.2,20.5,5.2,31
		c-2.6,12.7-11.9,26.4-26.4,26.6c-7.4,0.1-13.6-3.5-19.4-7c-2.1-1.3-4.1-2.4-6.1-3.5c-1.4,3.9-3.1,7.7-5.5,11.3c-2.4,3.7-5,6.3-8,8
		c-4.1,2.4-9,2.8-12.9,1.2c-6.2-2.5-9.6-10.2-7.7-17c1.4-4.8,4.6-8.7,9.4-11.3c5.4-3,12.5-4.1,19-3c0.4-1.3,0.7-2.7,1-4.1V132
		c0.1-0.2,0.5-2,1.3-4.5c-0.9-0.4-1.8-0.7-2.6-1.2c-8.2-4.1-14.1-10.4-19.3-15.9l6.3-5.8c5.9,6.3,10.5,11,16.8,14.1
		c0.4,0.2,1,0.4,1.4,0.6c1.5-4.2,3.3-8.6,5.2-11.5c2.4-3.7,5-6.3,8-8.1c4.1-2.4,8.9-2.9,12.9-1.3c6.2,2.5,9.7,10.1,7.7,17
		c-1.5,5.5-6,10.2-12.1,12.7c-4.9,2.1-10.5,2.6-16.2,1.7c-0.5,1.7-1,3.2-1.2,4.3v0.1c-0.4,1.5-0.8,3-1.2,4.5c2.8,1.3,5.4,2.9,8,4.4
		c5,3,9.8,5.8,14.8,5.8c0.1,0,0.1,0,0.2,0c6.9-0.1,15.4-6.3,18.1-19.8c1.7-8.5,0.2-17.6-4.2-25.1c-4.4-7.4-11.5-13.3-19.8-16.2
		c-8.7-3-18.7-2.7-28.2,0.7c-8.7,3.2-16.8,9.1-23.5,17.1c-7.8,9.4-12.6,20.4-13.4,31.3c-0.9,11.7,3,23.2,10.2,31
		c7.4,8,18.6,12.5,29.9,12c10.9-0.5,21.9-5.7,29.4-14l6.3,5.7c-9.2,10.2-22.1,16.3-35.5,16.8C132.4,188.7,131.8,188.7,131,188.7z
		 M127.6,144.4c-3.6,0-7.3,0.8-10,2.4c-2.7,1.5-4.6,3.6-5.2,6.1c-0.7,2.7,0.5,6,2.7,6.9c1.5,0.6,3.5,0.4,5.3-0.7
		c1.8-1,3.4-2.7,5.1-5.2c1.8-2.9,3.3-6,4.5-9.2C129.1,144.4,128.4,144.4,127.6,144.4z M145.7,121.6c3.6,0.4,7.1-0.1,10.2-1.3
		c3.6-1.5,6.3-4.1,7.1-7.1c0.7-2.7-0.6-6-2.7-6.8c-1.5-0.6-3.5-0.3-5.3,0.7c-1.8,1-3.4,2.8-5.1,5.3
		C148.4,114.6,147,118.1,145.7,121.6z M233.1,161.1h-11.1v-57h11.1V161.1z M276.3,142.4c0,11.4-7.6,19.4-18.4,19.4
		c-10.8,0-18.3-8-18.3-19.4v-21.4h11v21.4c0,5.2,2.9,8.4,7.3,8.4c4.5,0,7.3-3.2,7.3-8.4v-21.4h11.1L276.3,142.4L276.3,142.4z
		 M321,138.5V161H310v-21.2c0-5.2-3-8.6-7.6-8.6c-4.6,0-7.6,3.4-7.6,8.6V161h-11.1v-40h11.1v5.2c2.4-3.8,6-6,10.5-6
		C315.1,120.2,321,127.1,321,138.5z M346.7,161.9c-11.5,0-20.3-8.9-20.3-20.7c0-11.9,8.8-20.9,20.3-20.9c7.6,0,13.9,3.9,17,9.8
		l-9.4,5.5c-1.4-2.7-4.2-4.4-7.6-4.4c-5.5,0-9.4,4.2-9.4,9.8c0,5.5,3.9,9.7,9.4,9.7c3.8,0,6.8-1.8,8.3-5.1l9.8,4.6
		C361.9,157.3,354.9,161.9,346.7,161.9z M405.8,138.5V161h-11.1v-21.2c0-5.2-3-8.6-7.6-8.6c-4.6,0-7.6,3.4-7.6,8.6V161h-11.1v-56.9
		h11.1v22.2c2.4-3.8,6-6,10.5-6C399.9,120.2,405.8,127.1,405.8,138.5z M431.5,161.9c-11.5,0-20.3-8.9-20.3-20.7
		c0-11.9,8.8-20.9,20.3-20.9c7.6,0,13.9,3.9,17,9.8l-9.4,5.5c-1.4-2.7-4.2-4.4-7.6-4.4c-5.5,0-9.4,4.2-9.4,9.8
		c0,5.5,3.9,9.7,9.4,9.7c3.8,0,6.8-1.8,8.3-5.1l9.8,4.6C446.8,157.3,439.8,161.9,431.5,161.9z M464.3,161.1h-11.1v-57h11.1V161.1z
		 M507.5,142.4c0,11.4-7.6,19.4-18.4,19.4c-10.8,0-18.3-8-18.3-19.4v-21.4h11v21.4c0,5.2,2.9,8.4,7.3,8.4c4.5,0,7.3-3.2,7.3-8.4
		v-21.4h11.1L507.5,142.4L507.5,142.4z M556,141c0,11.5-8,20.9-17.9,20.9c-5.3,0-9.5-2.2-12.2-6.4v5.6h-11.1v-57h11.1v22.6
		c2.7-4.2,6.9-6.4,12.2-6.4C548,120.2,556,129.5,556,141z M545.2,141c0-5.5-4.4-9.8-9.7-9.8c-5.4,0-9.7,4.3-9.7,9.8
		c0,5.6,4.2,9.8,9.7,9.8C541,150.9,545.2,146.6,545.2,141z"/>
</g>
<g class="st1">
	<path class="st5" d="M106.6,53h38.6v157.6h-21.4V71.7L88.3,210.6h-31L21.5,71.5v139.2H0V53h38.6l33.9,140.5L106.6,53z M214,212.9
		c-12.5,0-22.6-3-30.3-9c-7.6-6-11.4-14.3-11.4-25c0-7.6,1.9-13.9,5.8-18.9c4-5,9.4-8.8,16.2-11.5c6.9-2.8,14.8-4.6,23.6-5.5
		c13-1.4,22.3-2.7,27.7-4s8.1-3.4,8.1-6.3v-0.2c0-5.8-2.4-10.2-7.2-13.1c-4.8-3-11.6-4.5-20.5-4.5c-9.4,0-16.6,1.7-21.7,5.1
		c-5.1,3.3-7.6,8.7-7.6,16h-22.2c0-8.7,2.2-16.1,6.6-22.1c4.4-6.1,10.5-10.7,18.3-13.8c7.8-3.2,16.7-4.8,26.7-4.8
		c9.2,0,17.6,1.5,25.2,4.4c7.6,2.9,13.7,7.1,18.2,12.8c4.5,5.7,6.8,12.8,6.8,21.3V188c0,2.6,0.1,5.2,0.2,7.7
		c0.2,2.4,0.6,4.6,1.2,6.5c0.6,2.2,1.4,4.1,2.2,5.6c0.9,1.4,1.6,2.4,2.2,2.9h-22.5c-0.4-0.4-1-1.3-1.9-2.7c-0.8-1.4-1.5-3.1-2.1-4.9
		c-0.6-1.6-1-3.3-1.2-5.3c-4,4.6-9.4,8.3-16.4,11.1C231.1,211.5,223.1,212.9,214,212.9z M218.7,193.7c6.4,0,12.3-1,17.7-3.1
		c5.3-2.1,9.6-5.3,12.7-9.6c3.2-4.3,4.8-9.8,4.8-16.4v-9.8c-4.3,1.3-9.1,2.4-14.5,3.2c-5.3,0.8-10.8,1.5-16.3,2
		c-9.4,0.9-16.4,2.6-21.1,5c-4.7,2.4-7.1,6.5-7.1,12.2C194.9,188.2,202.8,193.7,218.7,193.7z M389.7,97.1l-35.8,113.5h-30
		L287.2,97.1h23.3l28.3,97.6l27.6-97.6H389.7z M512,175c-0.6,6.1-3,12.1-7.3,18c-4.3,5.8-10.4,10.7-18.4,14.4
		c-8,3.8-17.7,5.7-29.1,5.7s-21.5-2.5-30.3-7.5c-8.7-5-15.4-11.9-20.3-20.7s-7.3-19-7.3-30.6c0-11.7,2.5-21.9,7.4-30.8
		c4.9-8.8,11.7-15.7,20.4-20.6c8.7-5,18.8-7.5,30.2-7.5c11.5,0,21.5,2.5,29.9,7.5c8.5,5,15,11.9,19.6,20.6
		c4.6,8.8,6.9,18.8,6.9,30.2c0,1.3,0,2.8-0.1,4.7c-0.1,1.8-0.2,3-0.3,3.6H422c1.4,9.9,5.2,17.6,11.3,23.2c6.2,5.6,14.5,8.3,24.7,8.3
		c7.1,0,13-1,17.5-2.9c4.6-1.9,8-4.3,10.3-7.2c2.3-2.8,3.6-5.7,3.8-8.5H512V175z M457.5,114.6c-9.4,0-17.2,2.6-23.4,7.8
		c-6.2,5.2-10.2,12.4-11.9,21.6H490c-0.6-8-3.5-14.9-8.9-20.6C475.6,117.5,467.8,114.6,457.5,114.6z M538.8,210.7V97.1h22.6V114
		c4.3-5.8,9.7-10.3,16.1-13.7c6.4-3.3,13.4-5,20.9-5c13,0,23.2,3.8,30.6,11.5c7.4,7.6,11,18,11,31.2v72.6h-22.6v-66.2
		c0-8.3-1.9-15-5.8-20.3c-3.9-5.3-10.6-7.9-20.2-7.9c-5.6,0-10.7,1.4-15.3,4.3c-4.5,2.9-8.1,6.7-10.8,11.6c-2.6,4.9-4,10.4-4,16.6
		v61.9L538.8,210.7L538.8,210.7z"/>
</g>
<g class="st1">
	<path class="st5" d="M46.2,56.2l69,50.8l69-50.8l46.2,86.7l-48.7,48.9v-60l-19.1-4.4L141,198.6l-25.9,11.1l-25.9-11.1l-21.6-71.2
		l-19.1,4.4v60L0,142.9L46.2,56.2z"/>
	<path class="st5" d="M67.8,127.4L57,91.8L0,142.9L67.8,127.4z M162.6,127.4l10.8-35.6l57,51.1L162.6,127.4z"/>
	<path class="st6" d="M67.8,127.4L46.2,56.2l-7.9,14.9L56.7,130L67.8,127.4z"/>
	<path class="st5" d="M0,142.9l48.7-11.1v11.1v48.9l-40-40.3L0,142.9z M230.4,142.9l-48.7-11.1v11.1v48.9l40-40.3L230.4,142.9z"/>
	<path class="st5" d="M0,142.9l48.7-11.1v11.1l-40,8.7L0,142.9z M230.4,142.9l-48.7-11.1v11.1l40,8.7L230.4,142.9z M46.2,56.2
		l69,50.8l69-50.8l-43.1,142.4l-25.9,11.1l-25.9-11.1L46.2,56.2z"/>
	<path class="st5" d="M115.2,209.8l-25.9-11.1L57,91.8l58.2,95.1l58.2-95.1l-32.3,106.8L115.2,209.8z"/>
	<path class="st5" d="M115.2,209.8l-25.9-11.1l25.9-11.8l25.9,11.8L115.2,209.8z"/>
	<path class="st5" d="M46.2,56.2l69,50.8l69-50.8l46.2,86.7l-48.7,48.9v-60l-19.1-4.4L141,198.6l-25.9,11.1l-25.9-11.1l-21.6-71.2
		l-19.1,4.4v60L0,142.9L46.2,56.2z M302.5,141.1l19-25.4v44.6h17.1V88.2h-15l-23.2,30.6l-22.9-30.6h-15.1v72.1h17.2v-44.7l18.6,25.6
		L302.5,141.1L302.5,141.1z M354,160.2h16.8v-55H354V160.2z M352.5,90.5c0,4.7,4,8.6,10,8.6c6.1,0,10.1-3.9,10.1-8.6s-4-8.7-10-8.7
		S352.5,85.8,352.5,90.5z M400.4,132.7c0-9.1,6.6-15.1,15-15.1c8.3,0,15,6.1,15,15.1c0,9.2-6.6,15.3-14.9,15.3
		C407.1,148,400.4,141.9,400.4,132.7z M383.7,132.8c0,16.1,11.7,28.3,28.5,28.3c7.4,0,13.4-2.6,17.7-5.8v1.8
		c0,5.1-2.5,13.6-13.8,13.6c-7.5,0-11.3-3.6-12.7-8h-15.9c0.6,10.1,8.3,21.6,28.7,21.6c19.2,0,30.2-11.7,30.2-28.1v-50.8h-13.5
		l-1,4.6c-4.1-3.3-10.2-6.3-17.9-6.3C395.3,103.5,383.7,116.7,383.7,132.8z M520,130.7c0-17-7.6-27.1-25.5-27.1
		c-6.2,0-11.9,2.4-16.1,5.3l0.1-23.3h-16.6v74.7h16.7v-29c0-8,5.1-13.7,12.6-13.7c7.4,0,11.9,2.8,11.9,13.4v29.3H520V130.7z
		 M537.4,103.6l-8.5,3.2v12.5h8.9v19.5c0,18.5,10.4,21.8,23,21.8h10.9l0.1-13.4h-9.4c-4.5,0-8-1.7-8-8.6v-19.3h16.3v-14h-16.3V90
		l-12,0.1L537.4,103.6z M622,105.3L608.7,138l-0.9-3.4l-12.1-29.3h-18.5l22.6,51.5l-10.6,22.3h18.1l32.7-73.8H622z"/>
</g>
<g class="st1">
	<path class="st5" d="M140.2,154.8c11,0,17.9-5.6,17.9-14.5l0,0c0-6.9-4-10.8-13.7-12.8l-4.9-1c-5.7-1.2-8-3.2-8-6.5l0,0
		c0-3.9,3.6-6.3,8.7-6.3c5.2,0,8.6,2.5,9.2,6.1l0.1,0.4h7.9v-0.4c-0.6-7.4-6.9-12.9-17.1-12.9c-9.9,0-17,5.5-17,13.7l0,0
		c0,6.8,4.1,11.2,13.4,13.2l4.9,1c5.9,1.3,8.3,3.3,8.3,6.6l0,0c0,3.9-3.9,6.7-9.4,6.7c-5.8,0-9.9-2.5-10.3-6.4v-0.3h-7.9v0.4
		C122.8,149.5,129.5,154.8,140.2,154.8z M194.9,154.8c10.6,0,18.2-6.1,19.4-15.3v-0.2h-8v0.2c-1.2,5.1-5.5,8.3-11.3,8.3
		c-7.8,0-12.7-6.5-12.7-17v-0.1c0-10.4,4.9-16.9,12.7-16.9c5.8,0,10.2,3.6,11.3,9v0.1h8v-0.3c-1.1-9.4-9-16-19.4-16
		c-13,0-21,9.2-21,24.1v0.1C173.8,145.6,181.9,154.8,194.9,154.8z M231.9,153.6h8.2v-17.3h9.1l9,17.3h9.4l-10-18.5
		c5.4-2,8.6-7,8.6-13.1l0,0c0-8.7-5.9-14.2-15.8-14.2h-18.5L231.9,153.6L231.9,153.6z M240.1,130.1v-15.7h9.3c5.2,0,8.4,3,8.4,7.8
		v0.1c0,4.9-3,7.8-8.2,7.8H240.1z M281.2,153.6h8.6l3.8-11.9h17l3.8,11.9h8.6l-16.3-45.9h-9.3L281.2,153.6z M301.9,116.3h0.5
		l6.2,19.2h-12.9L301.9,116.3z M345.7,153.6h8.2v-39H368v-6.9h-36.5v6.9h14.1L345.7,153.6L345.7,153.6z M402.5,154.8
		c10.6,0,18.2-6.1,19.4-15.3v-0.2h-8v0.2c-1.2,5.1-5.5,8.3-11.3,8.3c-7.8,0-12.7-6.5-12.7-17v-0.1c0-10.4,4.9-16.9,12.7-16.9
		c5.8,0,10.2,3.6,11.3,9v0.1h8v-0.3c-1.1-9.4-9-16-19.4-16c-13,0-21,9.2-21,24.1v0.1C381.5,145.6,389.5,154.8,402.5,154.8z
		 M439.6,153.6h8.2v-19.9h22.3v19.9h8.2v-45.9h-8.2v19.1h-22.3v-19.1h-8.2V153.6z M498.1,153.6h8.2v-15.2h10.1
		c9.3,0,15.6-6.2,15.6-15.3V123c0-9.2-6.3-15.3-15.6-15.3h-18.3L498.1,153.6L498.1,153.6z M514.4,114.5c5.9,0,9.3,3.1,9.3,8.6v0.1
		c0,5.5-3.4,8.7-9.3,8.7h-8.1v-17.4C506.3,114.5,514.4,114.5,514.4,114.5z M543.1,153.6h8.6l3.8-11.9h17l3.8,11.9h8.6l-16.3-45.9
		h-9.3L543.1,153.6z M563.7,116.3h0.5l6.2,19.2h-12.9L563.7,116.3z M601.2,153.6h17.2c13.7,0,21.6-8.4,21.6-23.1v-0.1
		c0-14.4-8-22.7-21.6-22.7h-17.2V153.6z M609.4,146.7v-32.1h7.9c9,0,14.3,5.8,14.3,15.9v0.1c0,10.3-5.2,16.1-14.3,16.1L609.4,146.7
		L609.4,146.7z"/>
	<path class="st7" d="M30.4,110.6H71 M29.9,126.9h40.5 M30.4,144.2H71"/>
	<path class="st8" d="M18.2,91.7h63.9c1.8,0,3.3,1.5,3.3,3.3v63.8c0,1.8-1.5,3.3-3.3,3.3H18.2c-1.8,0-3.3-1.5-3.3-3.3V95
		C15,93.2,16.4,91.7,18.2,91.7z"/>
	<path class="st8" d="M17.1,103.9H3.3c-1.8,0-3.3,1.5-3.3,3.3V171c0,1.8,1.5,3.3,3.3,3.3h63.9c1.8,0,3.3-1.5,3.3-3.3v-8.9"/>
</g>
<g class="st1">
	<path class="st5" d="M80.8,149.7c27.4,6.1,63,17.4,62.3,55.5c0,17.1-6.8,30.6-19.9,40.2C110,255,93.6,260,73.7,260
		c-35.2,0-61.2-15.6-72.5-41.6l33.1-19.2c6.1,17.1,19.2,25.6,39.5,25.6s30.2-6.8,30.2-20c0-11.4-14.9-18.1-33.8-22.8
		c-26.6-6.8-62.6-17.4-61.9-54.8c0-16.4,6.1-29.6,18.5-39.5c12.5-9.9,28.1-15,46.6-15c29.6,0,53.4,13.9,65.8,37L106.8,128
		c-6.1-13.5-17.4-20.3-33.5-20.3c-14.6,0-26,6.4-26,18.8C47.3,138.3,62.3,144.3,80.8,149.7z M319.4,150.7V260H281V154.7
		c0-26.6-15.3-41.3-39.9-41.3c-27,0-45.2,16.7-45.2,51.3V260h-38.5V11h38.5v94c11.8-18.2,29.9-27.4,55.2-27.4
		C292,77.4,319.4,105.2,319.4,150.7z M455.9,6.3c0,8.1-3.2,15.9-8.9,21.6c-5.7,5.7-13.5,8.9-21.6,8.9s-15.9-3.2-21.6-8.9
		s-8.9-13.5-8.9-21.6C394.9,6.3,455.9,6.3,455.9,6.3z M374,182.8c5.7,27,27.4,42,56.9,42c20.3,0,35.6-7.5,45.9-22.1l31.7,18.5
		c-17.4,26-43.4,38.8-77.9,38.8c-28.8,0-52.3-8.9-70.1-26.3c-17.8-17.8-26.6-40.2-26.6-67.3c0-26.6,8.9-48.8,26.3-66.6
		c17.4-18.2,40.2-27,67.6-27c26,0,47.4,9.3,64.1,27.4c16.7,18.2,25.3,40.6,25.3,66.6c-0.1,5.4-0.6,10.7-1.5,16L374,182.8L374,182.8z
		 M478.3,151.4c-5.3-28.8-25.6-43.8-50.9-43.8c-28.5,0-48.4,16.7-53.7,43.8H478.3z M638.9,43.3c-28.1-2.5-42,9.3-42,35.2V82h42v37
		h-42v141h-38.4V119.1h-27v-37h27v-3.6c0-48.8,27.8-75.5,80.4-72.2V43.3z"/>
</g>
</svg>
