<?xml version="1.0" encoding="utf-8"?>
<!-- Generator: Adobe Illustrator 24.1.1, SVG Export Plug-In . SVG Version: 6.00 Build 0)  -->
<svg version="1.1" id="Layer_1" xmlns="http://www.w3.org/2000/svg" xmlns:xlink="http://www.w3.org/1999/xlink" x="0px" y="0px"
	 viewBox="0 0 162 22" style="enable-background:new 0 0 162 22;" xml:space="preserve">
<style type="text/css">
	.st0{fill:#141414;}
</style>
<g>
	<path class="st0" d="M35,16.3c2.7,0,4.3-1.4,4.3-3.5v0c0-1.7-1-2.6-3.3-3.1l-1.2-0.3c-1.4-0.3-1.9-0.8-1.9-1.6v0
		c0-0.9,0.9-1.5,2.1-1.5c1.3,0,2.1,0.6,2.2,1.5l0,0.1h1.9l0-0.1C38.9,6,37.4,4.6,35,4.6c-2.4,0-4.1,1.3-4.1,3.3v0
		c0,1.7,1,2.7,3.3,3.2l1.2,0.2c1.4,0.3,2,0.8,2,1.6v0c0,1-0.9,1.6-2.3,1.6c-1.4,0-2.4-0.6-2.5-1.5l0-0.1h-1.9l0,0.1
		C30.7,15,32.4,16.3,35,16.3z M48.2,16.3c2.6,0,4.4-1.5,4.7-3.7v-0.1H51l0,0c-0.3,1.2-1.3,2-2.7,2c-1.9,0-3.1-1.6-3.1-4.1v0
		c0-2.5,1.2-4.1,3.1-4.1c1.4,0,2.5,0.9,2.7,2.2l0,0h1.9V8.5c-0.3-2.3-2.2-3.9-4.7-3.9c-3.1,0-5.1,2.2-5.1,5.8v0
		C43.1,14,45.1,16.3,48.2,16.3z M57.2,16h2v-4.2h2.2l2.2,4.2h2.3l-2.4-4.5c1.3-0.5,2.1-1.7,2.1-3.2v0c0-2.1-1.4-3.5-3.8-3.5h-4.5V16
		z M59.2,10.3V6.5h2.3c1.3,0,2,0.7,2,1.9v0c0,1.2-0.7,1.9-2,1.9H59.2z M69.1,16h2.1l0.9-2.9h4.1l0.9,2.9h2.1L75.3,4.9h-2.2L69.1,16z
		 M74.1,7h0.1l1.5,4.6h-3.1L74.1,7z M84.7,16h2V6.6h3.4V4.9h-8.8v1.7h3.4V16z M98.5,16.3c2.6,0,4.4-1.5,4.7-3.7v-0.1h-1.9l0,0
		c-0.3,1.2-1.3,2-2.7,2c-1.9,0-3.1-1.6-3.1-4.1v0c0-2.5,1.2-4.1,3.1-4.1c1.4,0,2.5,0.9,2.7,2.2l0,0h1.9V8.5
		c-0.3-2.3-2.2-3.9-4.7-3.9c-3.1,0-5.1,2.2-5.1,5.8v0C93.4,14,95.4,16.3,98.5,16.3z M107.5,16h2v-4.8h5.4V16h2V4.9h-2v4.6h-5.4V4.9
		h-2V16z M121.7,16h2v-3.7h2.4c2.3,0,3.8-1.5,3.8-3.7v0c0-2.2-1.5-3.7-3.8-3.7h-4.4V16z M125.6,6.5c1.4,0,2.3,0.8,2.3,2.1v0
		c0,1.3-0.8,2.1-2.3,2.1h-2V6.5H125.6z M132.5,16h2.1l0.9-2.9h4.1l0.9,2.9h2.1l-3.9-11.1h-2.2L132.5,16z M137.5,7h0.1l1.5,4.6h-3.1
		L137.5,7z M146.6,16h4.2c3.3,0,5.2-2,5.2-5.6v0c0-3.5-1.9-5.5-5.2-5.5h-4.2V16z M148.6,14.3V6.6h1.9c2.2,0,3.5,1.4,3.5,3.9v0
		c0,2.5-1.3,3.9-3.5,3.9H148.6z"/>
	<g>
		<path class="st0" d="M18.2,14.3H8.4c-0.3,0-0.6-0.3-0.6-0.6s0.3-0.6,0.6-0.6h9.8c0.3,0,0.6,0.3,0.6,0.6S18.5,14.3,18.2,14.3z
			 M18.1,10.1H8.2c-0.3,0-0.6-0.3-0.6-0.6s0.3-0.6,0.6-0.6h9.8c0.3,0,0.6,0.3,0.6,0.6S18.4,10.1,18.1,10.1z M18.2,6.2H8.4
			C8,6.2,7.8,5.9,7.8,5.6S8,5,8.4,5h9.8c0.3,0,0.6,0.3,0.6,0.6S18.5,6.2,18.2,6.2z"/>
	</g>
	<g>
		<path class="st0" d="M20.9,18.7H5.4C4.7,18.7,4,18,4,17.3V1.8C4,1,4.7,0.4,5.4,0.4h15.5c0.8,0,1.4,0.6,1.4,1.4v15.5
			C22.3,18,21.7,18.7,20.9,18.7z M5.4,1.6c-0.1,0-0.2,0.1-0.2,0.2v15.5c0,0.1,0.1,0.2,0.2,0.2h15.5c0.1,0,0.2-0.1,0.2-0.2V1.8
			c0-0.1-0.1-0.2-0.2-0.2H5.4z"/>
	</g>
	<g>
		<path class="st0" d="M17.3,21.6H1.8c-0.8,0-1.4-0.6-1.4-1.4V4.7C0.4,4,1,3.3,1.8,3.3h3.3v1.2H1.8c-0.1,0-0.2,0.1-0.2,0.2v15.5
			c0,0.1,0.1,0.2,0.2,0.2h15.5c0.1,0,0.2-0.1,0.2-0.2v-2.1h1.2v2.1C18.7,21,18,21.6,17.3,21.6z"/>
	</g>
</g>
</svg>
