<?xml version="1.0" encoding="utf-8"?>
<!-- Generator: Adobe Illustrator 24.1.1, SVG Export Plug-In . SVG Version: 6.00 Build 0)  -->
<svg version="1.1" id="Layer_1" xmlns="http://www.w3.org/2000/svg" xmlns:xlink="http://www.w3.org/1999/xlink" x="0px" y="0px"
	 viewBox="0 0 640 266" style="enable-background:new 0 0 640 266;" xml:space="preserve">
<style type="text/css">
	.st0{display:none;fill:#FFFFFF;}
	.st1{display:none;}
	.st2{display:inline;fill-rule:evenodd;clip-rule:evenodd;fill:#FFFFFF;}
	.st3{display:inline;fill:#FFFFFF;}
	.st4{display:inline;opacity:0.5;fill:#FFFFFF;enable-background:new    ;}
	.st5{display:inline;}
	.st6{fill:#FFFFFF;}
	.st7{fill:#141414;}
</style>
<path class="st0" d="M120.8,142.1l-24.4-5.6c-16.1-3.9-16.1-15.4-16.1-15.4c0-17.7,16.7-17.7,16.7-17.7c9.2,0,16.7,8.2,16.7,17.7
	h71.7C183.6,81.7,151.8,60,95.6,60c-34-0.1-60.6,7.9-76.9,23.1C8.1,92.8,2.5,105.7,2.5,120.3c0,28,16.4,46.9,50.3,54.5l42.3,9.5l0,0
	c7.5,1.8,16.3,3.6,16.5,11.6c-0.2,23.5-33.3,23.4-33.5,0L0,195.7c0.1,41,32.5,63.7,91.2,63.8c33.7,0.1,59.2-7.7,75.7-23.1
	c10.8-10.1,16.1-22.7,16.1-38.8C183.1,169.2,165.1,152.2,120.8,142.1z M293.2,163.2l-0.1,37.4c0,6.4-5.1,11.7-11.4,11.7
	s-11.4-5.2-11.4-11.7l0.1-76.2l67.2,0.1l0.1-55.6l-67.2-0.1l0.1-42.1l-69.8,30.1l-0.3,132.4c-0.1,44.6,28.3,70.3,77.8,70.4
	c49.3,0.1,82.5-28.1,82.5-70v-26.1L293.2,163.2z M469.6,259.5L470,72.2L376.2,72l-0.1,55.8h19.3l-0.3,131.5L469.6,259.5z
	 M474.3,28.6c0.5,10.4-7,17.7-15.8,21.3c-9,3.8-18.5,4.6-26,4.8c-7.4-0.2-16.9-1.1-26-4.8c-8.8-3.6-16.2-10.9-15.8-21.3
	c-0.5-10.4,7-17.7,15.8-21.3c9-3.8,18.5-4.6,26-4.8c7.4,0.2,16.9,1.1,26,4.8C467.3,10.8,474.8,18.2,474.3,28.6z M625.7,144.1
	c2.2,0,9.3,0.1,14.1,1.2l0.1-74.5c-4.1-0.6-8.3-0.9-12.4-0.9c-10.3,0-18.9,1.8-25.4,5.4c-22.4,12.6-27.9,24.5-31.3,59.3l-0.1,0.9
	h-8.5l0.1-63.3L489.8,72l-0.4,187.4l74.4,0.2l0.1-58.1C564,165.4,587.1,144,625.7,144.1z"/>
<g class="st1">
	<path class="st2" d="M356,238.6l-17-63.5h-22.4l-17.2,63.5l-14.1-56.5c-5.1,6.6-11.4,11.4-19,14.3c-0.6,0.2-1.3,0.5-2,0.7
		l20.3,67.5h26.5l16.7-57.3l16.5,57.3h26.5l27-89.5H372L356,238.6z"/>
	<path class="st2" d="M279,175.9c4.2-5.8,6.3-12.4,6.3-19.4c0-7.6-2.5-14.2-7.5-19.6c-5-5.5-11.4-8.3-19-8.3c-7.2,0-13.2,1.9-18,5.8
		c-5,4-7.5,8.7-7.5,13.9c0,3.4,1.1,6.5,3.2,9.1c1.6,1.9,4.5,4.2,9.7,4.2c3.5,0,6.5-1.2,8.9-3.6c2.4-2.4,3.7-5.2,3.7-8.4
		c0-2.6-0.9-5.2-2.7-7.8c-1-1.4-1.1-2-1-2c0.3-0.2,1.2-0.5,3.6-0.5c3.8,0,6.8,1.2,9.2,3.8c2.5,2.6,3.7,5.9,3.7,10
		c0,7.2-2.9,12.4-8.7,15.9c-6.3,3.8-16.9,5.8-31.4,5.8c-18,0-30.2,3.4-37.4,10.4c-7.1,6.9-10.7,14.7-10.7,23.2
		c0,6.1,2.2,11.3,6.5,15.5s9.5,6.3,15.4,6.3c5.1,0,9.4-1.6,12.8-4.8c3.4-3.2,5.1-7.3,5.1-12.2c0-3.7-1.2-6.6-3.5-8.8
		c-2.3-2.1-4.9-3.2-8-3.2c-3.3,0-6.1,1.3-8.3,3.8c-2,2.4-3,5.4-3,8.9c0,0.4,0,1,0.1,2l0.1,1c0,0.2,0,0.4,0,0.5c-0.1,0-0.2,0-0.3,0
		c-1.1,0-2.4-0.8-3.7-2.3c-1.5-1.6-2.2-3.7-2.2-6.4c0-4.7,2.2-8.5,6.9-11.7c5-3.5,10.6-5.2,17-5.2c7.9,0,14,2.1,18.5,6.5
		c4.5,4.3,6.7,9.3,6.7,15.1c0,9-4.6,16.6-14.2,23.3c-9.8,6.8-21.8,10.3-35.7,10.3c-14.5,0-26.8-4.4-36.5-13
		c-9.6-8.5-14.5-17.6-14.5-27c0-4.5,1.4-8.3,4.4-11.6c2.9-3.2,5.8-4.7,8.8-4.7c2.2,0,4.7,1.1,7.2,3.3c3.7,3.1,6.8,4.6,9.6,4.6
		c3.5,0,5.5-1.6,6.6-2.9c1.4-1.7,2.1-3.6,2.1-5.6c0-4-2.1-10.7-16.3-10.7c-0.6,0-0.7-0.1-0.7-0.1s-0.6-0.6-1.6-3.2
		c-0.7-1.9-1.1-4.3-1.1-7.2c0-6.4,2.6-12.1,8-17.1c5.4-5.1,11.1-7.6,17.2-7.6c3.6,0,6.6,0.9,9.1,2.8c2.2,1.7,3.3,3.8,3.3,6.5
		c0,2-0.4,4.1-1.2,6.1c-1,2.4-1.2,3.4-1.2,4.2c0,3,2.1,5.1,5,5.1c3.5,0,6.6-2.1,9.4-6.2c2.4-3.7,3.7-7.8,3.7-12.2
		c0-6-2.6-11.1-7.7-15.4c-4.9-4.1-11.1-6.1-18.4-6.1c-6.4,0-12.6,1.7-18.5,5.1c-5.8,3.3-10.7,7.8-14.4,13.2
		c-3.9,5.6-5.8,11.8-5.8,18.3c0,4.5,1,9.3,2.9,14.4c-8.5,1.9-15.1,5.6-19.8,11.2c-5.4,6.4-8.2,14.4-8.2,23.7
		c0,7.5,1.8,14.7,5.3,21.3c3.5,6.5,8.4,12.1,14.5,16.6c6,4.4,12.3,7.8,18.9,10.1c6.6,2.3,15.3,3.5,25.9,3.5c13,0,24.1-2,33.2-5.9
		c9.2-3.9,17.1-10,23.6-18.1c6.6-8.3,9.9-17,9.9-26c0-9.4-3.3-17.5-9.9-24.3c7-0.7,12.6-1.8,17.1-3.5
		C269.6,185.8,274.9,181.7,279,175.9z M181.9,0h23.4v18.8h16.9V38h-16.9v34.6c0,13.4,4.1,16.1,13.3,16.1c1.5,0,2.4,0,4.3-0.2v20.2
		c0,0-3.6,0.9-10.2,0.9c-21.5,0-31-12-31-36.3V38h-9.5V18.8h9.6L181.9,0L181.9,0z M282.7,42.8c-17.7,0-24.3,11-24.3,28.8v36.8h-23.8
		V18.8h23.2V34c4-8.9,12.9-15.2,24.8-15.2v24H282.7z M295.1,70.5V18.8h23.8v54.4c0,9.9,6.9,16.1,15,16.1c9.8,0,16-7.2,16-16.8V18.8
		h23.8v89.5h-23.3V97.9c-3.8,6.2-12.4,12.7-24.1,12.7C300.6,110.6,295.1,89.5,295.1,70.5z M386.5,94l13.9-12.3
		c4.5,5.1,10.5,9.8,20.7,9.8c6.7,0,11-2.9,11-8c0-13.7-42.5-8.4-42.5-40.2c0-16.6,14.3-26.5,32.7-26.5c17,0,26.5,8.9,30.8,15.9
		l-15.7,11.6c-2.8-3.4-7.8-8.6-16.2-8.6c-5.5,0-9.3,2.7-9.3,7.2c0,14.2,42.7,7.4,42.7,39.4c0,17.5-15.2,28.4-34.6,28.4
		C402.3,110.6,391.3,101.7,386.5,94z"/>
	<path class="st2" d="M474.3,0h23.4v18.8h16.9V38h-16.9v34.6c0,13.4,4.1,16.1,13.3,16.1c1.5,0,2.4,0,4.3-0.2v20.2
		c0,0-3.6,0.9-10.2,0.9c-21.5,0-31-12-31-36.3V38h-9.5V18.8h9.6V0H474.3z M419.9,140.9c-7.8,0-13.8,5.8-13.8,13.5s6,13.5,13.8,13.5
		c7.9,0,13.9-5.8,13.9-13.5S427.8,140.9,419.9,140.9z"/>
	<path class="st2" d="M408.1,264.7h23.8v-89.5h-23.8V264.7z M449.8,264.7h23.8V140.9h-23.8V264.7z M491.4,264.7h23.8V140.9h-23.8
		L491.4,264.7L491.4,264.7z"/>
</g>
<g class="st1">
	<path class="st3" d="M1.1,147.3l72.3,71.8C36.5,212.9,7.3,183.9,1.1,147.3z M0,128.8l93,92.4c5.5-0.3,10.9-1.1,16.1-2.4L2.4,112.8
		C1.1,118,0.3,123.3,0,128.8z M7,99l116,115.3c4.2-1.8,8.3-3.9,12.1-6.3L13.4,86.9C10.9,90.8,8.8,94.8,7,99z M21.2,75.3
		c16.2-18.7,40.2-30.6,67-30.6c48.8,0,88.3,39.3,88.3,87.8c0,26.6-11.9,50.5-30.7,66.6L21.2,75.3z M242.8,184.3h61.7v-15.1h-43.7V85
		h-18L242.8,184.3L242.8,184.3z M319.3,184.3h17.6v-74.5h-17.6V184.3z M328.2,99.2c5.6,0,10.1-4.3,10.1-9.5c0-5.3-4.6-9.6-10.1-9.6
		c-5.6,0-10.2,4.3-10.2,9.6C318,95,322.5,99.2,328.2,99.2z M372.5,140.7c0-10.8,6.5-17,15.8-17c9.1,0,14.5,6,14.5,15.9v44.7h17.6
		v-47.4c0-17.8-10.1-28-25.5-28c-11.2,0-18.8,5.3-22.2,13.6h-0.9v-12.7H355v74.5h17.6v-43.6L372.5,140.7L372.5,140.7z M471.1,185.8
		c17.4,0,29.3-8.5,32.4-21.4l-16.4-1.8c-2.4,6.3-8.2,9.6-15.8,9.6c-11.3,0-18.9-7.5-19-20.2h51.9v-5.4c0-26.1-15.7-37.6-34-37.6
		c-21.3,0-35.3,15.7-35.3,38.6C435,170.9,448.7,185.8,471.1,185.8z M452.4,140c0.5-9.5,7.6-17.5,18-17.5c10.1,0,16.9,7.4,17,17.5
		H452.4z M540.5,185.8c11.7,0,18.7-5.5,21.9-11.7h0.6v10.2h16.9v-49.9c0-19.7-16.1-25.6-30.3-25.6c-15.7,0-27.7,7-31.6,20.6
		l16.4,2.3c1.7-5.1,6.7-9.5,15.3-9.5c8.1,0,12.6,4.2,12.6,11.5v0.3c0,5-5.3,5.3-18.4,6.7c-14.5,1.6-28.3,5.9-28.3,22.6
		C515.6,178.1,526.3,185.8,540.5,185.8z M545.1,172.9c-7.3,0-12.6-3.3-12.6-9.8c0-6.7,5.9-9.6,13.7-10.7c4.6-0.6,13.8-1.8,16.1-3.6
		v8.8C562.4,165.9,555.7,172.9,545.1,172.9z M597.5,184.3h17.6v-43.8c0-9.5,7.1-16.1,16.8-16.1c3,0,6.6,0.5,8.1,1v-16.1
		c-1.6-0.3-4.4-0.5-6.3-0.5c-8.5,0-15.7,4.8-18.4,13.5h-0.8v-12.4h-17L597.5,184.3L597.5,184.3z"/>
</g>
<g class="st1">
	<path class="st3" d="M63.8,208.5c-17.7,0-35-7.4-46.8-20C4.9,175.3-1.3,156.7,0.2,137.6c1.3-17,8.7-34.3,20.8-48.8
		c10.4-12.4,23.1-21.6,36.7-26.7c15.3-5.7,31.7-6.1,46-1.2c13.8,4.7,25.8,14.6,33,27.2c7.3,12.5,9.8,27.8,7,42
		c-3.5,17.2-16.1,35.8-35.8,36.1c-10.1,0.2-18.4-4.8-26.3-9.5c-2.9-1.7-5.6-3.3-8.3-4.7c-1.9,5.3-4.2,10.5-7.4,15.3
		c-3.3,5-6.8,8.6-10.9,10.9c-5.6,3.2-12.2,3.8-17.5,1.6c-8.4-3.4-13-13.8-10.4-23.1c1.9-6.5,6.2-11.8,12.7-15.3
		c7.3-4,17-5.5,25.8-4.1c0.5-1.8,0.9-3.7,1.4-5.5v-0.1c0.1-0.3,0.7-2.7,1.7-6.1c-1.2-0.5-2.4-1-3.5-1.6
		c-11.1-5.5-19.1-14.1-26.2-21.6l8.5-7.9c8,8.6,14.3,14.9,22.8,19.1c0.6,0.3,1.3,0.6,1.9,0.8c2-5.7,4.5-11.7,7.1-15.6
		c3.2-5,6.8-8.6,10.8-11c5.6-3.3,12.1-3.9,17.5-1.7c8.4,3.4,13.1,13.7,10.5,23c-2,7.4-8.1,13.8-16.4,17.2
		c-6.7,2.8-14.2,3.5-21.9,2.3c-0.7,2.3-1.3,4.4-1.6,5.8v0.2c-0.5,2-1.1,4.1-1.6,6.1c3.8,1.8,7.3,3.9,10.9,6c6.8,4,13.3,7.9,20,7.9
		c0.1,0,0.2,0,0.3,0c9.3-0.1,20.9-8.6,24.6-26.8c2.3-11.5,0.3-23.9-5.7-34c-5.9-10.1-15.6-18.1-26.8-22c-11.8-4-25.4-3.7-38.2,1
		C49.9,77.1,38.9,85.2,29.9,96c-10.6,12.7-17.1,27.7-18.2,42.4c-1.2,15.8,4,31.4,13.8,42.1c10.1,10.8,25.2,16.9,40.5,16.3
		c14.8-0.7,29.7-7.7,39.9-19l8.6,7.7c-12.5,13.8-30,22.1-48.1,22.8C65.7,208.5,64.8,208.5,63.8,208.5z M59.1,148.4
		c-4.9,0-9.9,1.1-13.6,3.2c-3.7,2-6.2,4.9-7.1,8.3c-1,3.7,0.7,8.1,3.6,9.3c2,0.8,4.7,0.5,7.2-0.9c2.4-1.3,4.6-3.7,6.9-7.1
		c2.5-3.9,4.5-8.1,6.1-12.5C61.2,148.5,60.2,148.4,59.1,148.4z M83.6,117.6c4.9,0.5,9.6-0.1,13.8-1.8c4.9-2,8.5-5.6,9.6-9.6
		c1-3.7-0.8-8.1-3.7-9.2c-2-0.8-4.7-0.4-7.2,1c-2.4,1.4-4.6,3.8-6.9,7.2C87.3,108.1,85.4,112.8,83.6,117.6z M202.2,171.1h-15V93.8
		h15V171.1z M260.7,145.8c0,15.4-10.3,26.3-25,26.3c-14.6,0-24.8-10.8-24.8-26.3v-29h14.9v29c0,7,3.9,11.4,9.9,11.4
		c6.1,0,9.9-4.4,9.9-11.4v-29h15v29H260.7z M321.4,140.4V171h-15v-28.7c0-7.1-4.1-11.7-10.3-11.7c-6.3,0-10.3,4.6-10.3,11.7V171h-15
		v-54.2h15v7.1c3.3-5.2,8.2-8.2,14.2-8.2C313.3,115.7,321.4,125,321.4,140.4z M356.2,172.2c-15.6,0-27.5-12-27.5-28.1
		s11.9-28.3,27.5-28.3c10.3,0,18.8,5.3,23,13.3l-12.7,7.5c-1.9-3.7-5.7-5.9-10.3-5.9c-7.5,0-12.8,5.7-12.8,13.3
		c0,7.5,5.3,13.2,12.8,13.2c5.1,0,9.2-2.5,11.3-6.9l13.3,6.2C376.8,166,367.3,172.2,356.2,172.2z M436.4,140.4V171h-15.1v-28.7
		c0-7.1-4.1-11.7-10.3-11.7c-6.3,0-10.3,4.6-10.3,11.7V171h-15.1V93.8h15.1v30.1c3.3-5.2,8.2-8.2,14.2-8.2
		C428.3,115.7,436.4,125,436.4,140.4z M471.2,172.2c-15.6,0-27.5-12-27.5-28.1s11.9-28.3,27.5-28.3c10.3,0,18.8,5.3,23,13.3
		l-12.7,7.5c-1.9-3.7-5.7-5.9-10.3-5.9c-7.5,0-12.8,5.7-12.8,13.3c0,7.5,5.3,13.2,12.8,13.2c5.1,0,9.2-2.5,11.3-6.9l13.3,6.2
		C491.9,166,482.4,172.2,471.2,172.2z M515.7,171.1h-15V93.8h15V171.1z M574.3,145.8c0,15.4-10.3,26.3-25,26.3
		c-14.6,0-24.8-10.8-24.8-26.3v-29h14.9v29c0,7,3.9,11.4,9.9,11.4c6.1,0,9.9-4.4,9.9-11.4v-29h15.1L574.3,145.8L574.3,145.8z
		 M640,143.9c0,15.6-10.8,28.3-24.3,28.3c-7.2,0-12.9-3-16.5-8.7v7.6h-15.1V93.8h15.1v30.7c3.6-5.7,9.3-8.7,16.5-8.7
		C629.2,115.7,640,128.3,640,143.9z M625.4,143.9c0-7.4-5.9-13.3-13.1-13.3c-7.3,0-13.1,5.8-13.1,13.3c0,7.6,5.7,13.3,13.1,13.3
		C619.6,157.3,625.4,151.4,625.4,143.9z"/>
</g>
<g class="st1">
	<path class="st3" d="M106.6,53h38.6v157.6h-21.4V71.7L88.3,210.6h-31L21.5,71.5v139.2H0V53h38.6l33.9,140.5L106.6,53z M214,212.9
		c-12.5,0-22.6-3-30.3-9c-7.6-6-11.4-14.3-11.4-25c0-7.6,1.9-13.9,5.8-18.9c4-5,9.4-8.8,16.2-11.5c6.9-2.8,14.8-4.6,23.6-5.5
		c13-1.4,22.3-2.7,27.7-4s8.1-3.4,8.1-6.3v-0.2c0-5.8-2.4-10.2-7.2-13.1c-4.8-3-11.6-4.5-20.5-4.5c-9.4,0-16.6,1.7-21.7,5.1
		c-5.1,3.3-7.6,8.7-7.6,16h-22.2c0-8.7,2.2-16.1,6.6-22.1c4.4-6.1,10.5-10.7,18.3-13.8c7.8-3.2,16.7-4.8,26.7-4.8
		c9.2,0,17.6,1.5,25.2,4.4c7.6,2.9,13.7,7.1,18.2,12.8c4.5,5.7,6.8,12.8,6.8,21.3V188c0,2.6,0.1,5.2,0.2,7.7
		c0.2,2.4,0.6,4.6,1.2,6.5c0.6,2.2,1.4,4.1,2.2,5.6c0.9,1.4,1.6,2.4,2.2,2.9h-22.5c-0.4-0.4-1-1.3-1.9-2.7c-0.8-1.4-1.5-3.1-2.1-4.9
		c-0.6-1.6-1-3.3-1.2-5.3c-4,4.6-9.4,8.3-16.4,11.1C231.1,211.5,223.1,212.9,214,212.9z M218.7,193.7c6.4,0,12.3-1,17.7-3.1
		c5.3-2.1,9.6-5.3,12.7-9.6c3.2-4.3,4.8-9.8,4.8-16.4v-9.8c-4.3,1.3-9.1,2.4-14.5,3.2c-5.3,0.8-10.8,1.5-16.3,2
		c-9.4,0.9-16.4,2.6-21.1,5c-4.7,2.4-7.1,6.5-7.1,12.2C194.9,188.2,202.8,193.7,218.7,193.7z M389.7,97.1l-35.8,113.5h-30
		L287.2,97.1h23.3l28.3,97.6l27.6-97.6H389.7z M512,175c-0.6,6.1-3,12.1-7.3,18c-4.3,5.8-10.4,10.7-18.4,14.4
		c-8,3.8-17.7,5.7-29.1,5.7s-21.5-2.5-30.3-7.5c-8.7-5-15.4-11.9-20.3-20.7s-7.3-19-7.3-30.6c0-11.7,2.5-21.9,7.4-30.8
		c4.9-8.8,11.7-15.7,20.4-20.6c8.7-5,18.8-7.5,30.2-7.5c11.5,0,21.5,2.5,29.9,7.5c8.5,5,15,11.9,19.6,20.6
		c4.6,8.8,6.9,18.8,6.9,30.2c0,1.3,0,2.8-0.1,4.7c-0.1,1.8-0.2,3-0.3,3.6H422c1.4,9.9,5.2,17.6,11.3,23.2c6.2,5.6,14.5,8.3,24.7,8.3
		c7.1,0,13-1,17.5-2.9c4.6-1.9,8-4.3,10.3-7.2c2.3-2.8,3.6-5.7,3.8-8.5H512V175z M457.5,114.6c-9.4,0-17.2,2.6-23.4,7.8
		c-6.2,5.2-10.2,12.4-11.9,21.6H490c-0.6-8-3.5-14.9-8.9-20.6C475.6,117.5,467.8,114.6,457.5,114.6z M538.8,210.7V97.1h22.6V114
		c4.3-5.8,9.7-10.3,16.1-13.7c6.4-3.3,13.4-5,20.9-5c13,0,23.2,3.8,30.6,11.5c7.4,7.6,11,18,11,31.2v72.6h-22.6v-66.2
		c0-8.3-1.9-15-5.8-20.3c-3.9-5.3-10.6-7.9-20.2-7.9c-5.6,0-10.7,1.4-15.3,4.3c-4.5,2.9-8.1,6.7-10.8,11.6c-2.6,4.9-4,10.4-4,16.6
		v61.9L538.8,210.7L538.8,210.7z"/>
</g>
<g class="st1">
	<path class="st3" d="M46.2,56.2l69,50.8l69-50.8l46.2,86.7l-48.7,48.9v-60l-19.1-4.4L141,198.6l-25.9,11.1l-25.9-11.1l-21.6-71.2
		l-19.1,4.4v60L0,142.9L46.2,56.2z"/>
	<path class="st3" d="M67.8,127.4L57,91.8L0,142.9L67.8,127.4z M162.6,127.4l10.8-35.6l57,51.1L162.6,127.4z"/>
	<path class="st4" d="M67.8,127.4L46.2,56.2l-7.9,14.9L56.7,130L67.8,127.4z"/>
	<path class="st3" d="M0,142.9l48.7-11.1v11.1v48.9l-40-40.3L0,142.9z M230.4,142.9l-48.7-11.1v11.1v48.9l40-40.3L230.4,142.9z"/>
	<path class="st3" d="M0,142.9l48.7-11.1v11.1l-40,8.7L0,142.9z M230.4,142.9l-48.7-11.1v11.1l40,8.7L230.4,142.9z M46.2,56.2
		l69,50.8l69-50.8l-43.1,142.4l-25.9,11.1l-25.9-11.1L46.2,56.2z"/>
	<path class="st3" d="M115.2,209.8l-25.9-11.1L57,91.8l58.2,95.1l58.2-95.1l-32.3,106.8L115.2,209.8z"/>
	<path class="st3" d="M115.2,209.8l-25.9-11.1l25.9-11.8l25.9,11.8L115.2,209.8z"/>
	<path class="st3" d="M46.2,56.2l69,50.8l69-50.8l46.2,86.7l-48.7,48.9v-60l-19.1-4.4L141,198.6l-25.9,11.1l-25.9-11.1l-21.6-71.2
		l-19.1,4.4v60L0,142.9L46.2,56.2z M302.5,141.1l19-25.4v44.6h17.1V88.2h-15l-23.2,30.6l-22.9-30.6h-15.1v72.1h17.2v-44.7l18.6,25.6
		L302.5,141.1L302.5,141.1z M354,160.2h16.8v-55H354V160.2z M352.5,90.5c0,4.7,4,8.6,10,8.6c6.1,0,10.1-3.9,10.1-8.6s-4-8.7-10-8.7
		S352.5,85.8,352.5,90.5z M400.4,132.7c0-9.1,6.6-15.1,15-15.1c8.3,0,15,6.1,15,15.1c0,9.2-6.6,15.3-14.9,15.3
		C407.1,148,400.4,141.9,400.4,132.7z M383.7,132.8c0,16.1,11.7,28.3,28.5,28.3c7.4,0,13.4-2.6,17.7-5.8v1.8
		c0,5.1-2.5,13.6-13.8,13.6c-7.5,0-11.3-3.6-12.7-8h-15.9c0.6,10.1,8.3,21.6,28.7,21.6c19.2,0,30.2-11.7,30.2-28.1v-50.8h-13.5
		l-1,4.6c-4.1-3.3-10.2-6.3-17.9-6.3C395.3,103.5,383.7,116.7,383.7,132.8z M520,130.7c0-17-7.6-27.1-25.5-27.1
		c-6.2,0-11.9,2.4-16.1,5.3l0.1-23.3h-16.6v74.7h16.7v-29c0-8,5.1-13.7,12.6-13.7c7.4,0,11.9,2.8,11.9,13.4v29.3H520V130.7z
		 M537.4,103.6l-8.5,3.2v12.5h8.9v19.5c0,18.5,10.4,21.8,23,21.8h10.9l0.1-13.4h-9.4c-4.5,0-8-1.7-8-8.6v-19.3h16.3v-14h-16.3V90
		l-12,0.1L537.4,103.6z M622,105.3L608.7,138l-0.9-3.4l-12.1-29.3h-18.5l22.6,51.5l-10.6,22.3h18.1l32.7-73.8H622z"/>
</g>
<g class="st1">
	<g class="st5">
		<path class="st6" d="M134.2,160c11,0,17.9-6.3,17.9-16.3l0,0c0-7.8-4-12.1-13.7-14.4l-4.9-1.2c-5.7-1.4-8.1-3.6-8.1-7.3l0,0
			c0-4.4,3.6-7.1,8.7-7.1c5.3,0,8.7,2.8,9.2,6.8l0.1,0.4h7.9v-0.5c-0.6-8.3-6.9-14.5-17.1-14.5c-9.9,0-17,6.2-17,15.4l0,0
			c0,7.7,4.1,12.6,13.5,14.8l4.9,1.1c5.9,1.4,8.3,3.7,8.3,7.4l0,0c0,4.4-3.9,7.5-9.4,7.5c-5.8,0-9.9-2.9-10.3-7.2v-0.4h-8v0.5
			C116.7,154.1,123.5,160,134.2,160z M189,160c10.6,0,18.2-6.9,19.4-17.2v-0.2h-8.1v0.2c-1.2,5.7-5.5,9.3-11.3,9.3
			c-7.8,0-12.7-7.3-12.7-19V133c0-11.7,4.9-19,12.7-19c5.8,0,10.2,4,11.4,10.1v0.1h8.1v-0.3c-1.1-10.5-9-17.9-19.5-17.9
			c-13,0-21.1,10.3-21.1,27v0.1C167.9,149.7,176,160,189,160z M226.1,158.7h8.2v-19.4h9.1l9,19.4h9.4l-10-20.7
			c5.4-2.2,8.7-7.8,8.7-14.6v-0.1c0-9.8-5.9-16-15.8-16h-18.6L226.1,158.7L226.1,158.7z M234.3,132.3v-17.6h9.3
			c5.2,0,8.4,3.4,8.4,8.7v0.1c0,5.5-3,8.8-8.2,8.8H234.3z M275.5,158.7h8.6l3.8-13.3h17l3.9,13.3h8.6l-16.3-51.4h-9.3L275.5,158.7z
			 M296.2,116.8h0.5l6.2,21.5H290L296.2,116.8z M340.1,158.7h8.2V115h14.2v-7.7H326v7.7h14.1V158.7z M397.1,160
			c10.6,0,18.2-6.9,19.4-17.2v-0.2h-8.1v0.2c-1.2,5.7-5.5,9.3-11.3,9.3c-7.8,0-12.7-7.3-12.7-19V133c0-11.7,4.9-19,12.7-19
			c5.8,0,10.2,4,11.4,10.1v0.1h8.1v-0.3c-1.1-10.5-9-17.9-19.5-17.9c-13,0-21.1,10.3-21.1,27v0.1C375.9,149.7,384,160,397.1,160z
			 M434.1,158.7h8.2v-22.3h22.4v22.3h8.2v-51.4h-8.2v21.4h-22.4v-21.4h-8.2V158.7z M492.8,158.7h8.2v-17h10.1
			c9.3,0,15.6-6.9,15.6-17.2v-0.1c0-10.3-6.3-17.2-15.6-17.2h-18.4L492.8,158.7L492.8,158.7z M509.1,114.8c5.9,0,9.3,3.5,9.3,9.7
			v0.1c0,6.2-3.4,9.7-9.3,9.7H501v-19.5H509.1z M537.9,158.7h8.6l3.8-13.3h17l3.9,13.3h8.6l-16.3-51.4h-9.3L537.9,158.7z
			 M558.5,116.8h0.5l6.2,21.5h-12.9L558.5,116.8z M596.1,158.7h17.2c13.8,0,21.6-9.4,21.6-25.9v-0.1c0-16.1-8-25.4-21.6-25.4h-17.2
			V158.7z M604.4,151v-36h7.9c9,0,14.3,6.6,14.3,17.9v0.1c0,11.5-5.2,18-14.3,18H604.4z"/>
	</g>
	<g class="st5">
		<path class="st6" d="M34.5,109.8h42 M34,126.7h42 M34.5,144.6h42"/>
		<path class="st6" d="M21.9,90.2h66.2c1.9,0,3.4,1.5,3.4,3.4v66.1c0,1.9-1.5,3.4-3.4,3.4H21.9c-1.9,0-3.4-1.5-3.4-3.4V93.6
			C18.5,91.8,20,90.2,21.9,90.2z"/>
		<path class="st6" d="M19.3,102.8H6.1c-1.7,0-3.1,1.5-3.1,3.4v66.1c0,1.9,1.4,3.4,3.1,3.4h61.1c1.7,0,3.1-1.5,3.1-3.4v-9.2"/>
	</g>
</g>
<g>
	<path class="st7" d="M201.3,141.3c13.6,3,31.3,8.6,30.9,27.5c0,8.5-3.4,15.2-9.9,20c-6.6,4.8-14.7,7.2-24.6,7.2
		c-17.5,0-30.4-7.7-36-20.6l16.4-9.5c3,8.5,9.5,12.7,19.6,12.7c10.1,0,15-3.4,15-9.9c0-5.7-7.4-9-16.8-11.3
		c-13.2-3.4-31.1-8.6-30.7-27.2c0-8.1,3-14.7,9.2-19.6c6.2-4.9,13.9-7.4,23.1-7.4c14.7,0,26.5,6.9,32.7,18.4l-16.1,9.1
		c-3-6.7-8.6-10.1-16.6-10.1c-7.2,0-12.9,3.2-12.9,9.3C184.7,135.6,192.1,138.6,201.3,141.3z M319.7,141.8V196h-19.1v-52.3
		c0-13.2-7.6-20.5-19.8-20.5c-13.4,0-22.4,8.3-22.4,25.5V196h-19.1V72.5h19.1v46.7c5.9-9,14.8-13.6,27.4-13.6
		C306.1,105.4,319.7,119.2,319.7,141.8z M387.5,70.1c0,4-1.6,7.9-4.4,10.7s-6.7,4.4-10.7,4.4s-7.9-1.6-10.7-4.4s-4.4-6.7-4.4-10.7
		C357.2,70.1,387.5,70.1,387.5,70.1z M346.8,157.7c2.8,13.4,13.6,20.8,28.2,20.8c10.1,0,17.7-3.7,22.8-11l15.7,9.2
		c-8.6,12.9-21.5,19.3-38.7,19.3c-14.3,0-26-4.4-34.8-13.1c-8.8-8.8-13.2-20-13.2-33.4c0-13.2,4.4-24.2,13.1-33.1
		c8.6-9,20-13.4,33.6-13.4c12.9,0,23.5,4.6,31.8,13.6c8.3,9,12.6,20.2,12.6,33.1c0,2.7-0.3,5.3-0.7,7.9H346.8L346.8,157.7z
		 M398.6,142.1c-2.6-14.3-12.7-21.7-25.3-21.7c-14.1,0-24,8.3-26.7,21.7H398.6z M478.3,88.5c-13.9-1.2-20.8,4.6-20.8,17.5v1.7h20.8
		v18.4h-20.8v70h-19.1v-69.9H425v-18.4h13.4V106c0-24.2,13.8-37.5,39.9-35.8V88.5z"/>
</g>
</svg>
